<?xml version='1.0' encoding='utf-8'?>
<svg width="35.352894mm" height="62.659455mm" viewBox="-17.676447 -31.329727 35.352894 62.659455" version="1.1" xmlns="http://www.w3.org/2000/svg">
  <g transform="scale(1,-1)" stroke-linecap="round">
    <g fill="none" stroke="rgb(0,0,0)" stroke-width="0.3" id="visible">
      <line x1="17.526447" y1="-28.597616" x2="-12.362225" y2="-31.179727" />
      <line x1="17.526447" y1="-28.597616" x2="16.384209" y2="-15.375884" />
      <line x1="-12.362225" y1="-31.179727" x2="-13.504463" y2="-17.957995" />
      <path d="M -13.504463,-17.957995 A 1.5,1.5 94.93757809155998 0,1 -13.759063,-15.010932" />
      <line x1="-13.759063" y1="-15.010932" x2="-16.129609" y2="12.428821" />
      <path d="M -16.129609,12.428821 A 1.5,1.5 94.93757809155998 0,1 -16.384209,15.375884" />
      <line x1="-16.384209" y1="15.375884" x2="-17.526447" y2="28.597616" />
      <line x1="12.362225" y1="31.179727" x2="-17.526447" y2="28.597616" />
      <line x1="13.504463" y1="17.957995" x2="12.362225" y2="31.179727" />
      <path d="M 13.504463,17.957995 A 1.5,1.5 94.93757809155998 0,1 13.759063,15.010932" />
      <line x1="16.129609" y1="-12.428821" x2="13.759063" y2="15.010932" />
      <path d="M 16.129609,-12.428821 A 1.5,1.5 94.93757809155998 0,1 16.384209,-15.375884" />
    </g>
    <g fill="none" stroke="rgb(128,128,128)" stroke-width="0.1" id="hidden">
      <line x1="17.526447" y1="-28.597616" x2="-12.362225" y2="-31.179727" />
      <line x1="17.526447" y1="-28.597616" x2="16.384209" y2="-15.375884" />
      <line x1="-12.362225" y1="-31.179727" x2="-13.504463" y2="-17.957995" />
      <path d="M -13.504463,-17.957995 A 1.5,1.5 94.93757809155998 0,1 -13.759063,-15.010932" />
      <line x1="-13.759063" y1="-15.010932" x2="-16.129609" y2="12.428821" />
      <path d="M -16.129609,12.428821 A 1.5,1.5 94.93757809155998 0,1 -16.384209,15.375884" />
      <line x1="-16.384209" y1="15.375884" x2="-17.526447" y2="28.597616" />
      <line x1="12.362225" y1="31.179727" x2="-17.526447" y2="28.597616" />
      <line x1="13.504463" y1="17.957995" x2="12.362225" y2="31.179727" />
      <path d="M 13.504463,17.957995 A 1.5,1.5 94.93757809155998 0,1 13.759063,15.010932" />
      <line x1="16.129609" y1="-12.428821" x2="13.759063" y2="15.010932" />
      <path d="M 16.129609,-12.428821 A 1.5,1.5 94.93757809155998 0,1 16.384209,-15.375884" />
    </g>
  </g>
</svg>