<?xml version='1.0' encoding='utf-8'?>
<<<<<<< HEAD
<svg width="65.30042mm" height="5.80185mm" viewBox="-32.65021 -2.934975 65.30042 5.80185" version="1.1" xmlns="http://www.w3.org/2000/svg">
  <g transform="scale(1,-1)" stroke-linecap="round">
    <g fill="none" stroke="rgb(0,0,0)" stroke-width="0.3" id="visible">
      <line x1="-32.50021" y1="-2.716875" x2="-32.50021" y2="2.783125" />
      <line x1="-32.50021" y1="-2.716875" x2="32.49979" y2="-2.716875" />
      <path d="M -24.375095,2.78363 A 4.0,0.0001762010618104365 -2.9621223775198046e-24 0,1 -29.000135,2.783456" />
      <path d="M -29.000135,2.783456 A 4.0,0.0001762010618104365 -2.9621223775198046e-24 0,1 -21.692968,2.783356" />
      <line x1="-21.692968" y1="2.783125" x2="-21.692968" y2="2.783356" />
      <line x1="-24.375095" y1="2.783282" x2="-24.375095" y2="2.78363" />
      <line x1="21.692653" y1="2.783125" x2="21.692653" y2="2.783356" />
      <line x1="24.374905" y1="2.783282" x2="24.374905" y2="2.78363" />
      <path d="M 24.374905,2.78363 A 4.0,0.0001762010618104365 -180.0 0,0 28.999865,2.783456" />
      <path d="M 28.999865,2.783456 A 4.0,0.0001762010618104365 -180.0 0,0 21.692653,2.783356" />
      <line x1="24.374947" y1="2.78363" x2="24.374947" y2="2.783819" />
      <line x1="16.693884" y1="2.783819" x2="24.374947" y2="2.783819" />
      <line x1="16.693884" y1="2.783125" x2="16.693884" y2="2.783819" />
      <line x1="16.693989" y1="2.783819" x2="16.693989" y2="2.784282" />
      <path d="M 16.693989,2.784282 A 17.5,0.0007708796454206598 180.0 0,0 17.5,2.78405" />
      <path d="M 17.5,2.78405 A 17.5,0.0007708796454206598 180.0 0,0 16.693884,2.783819" />
      <line x1="24.375095" y1="2.78363" x2="24.375095" y2="2.784471" />
      <line x1="21.692968" y1="2.783819" x2="21.692968" y2="2.784744" />
      <path d="M 21.692968,2.784744 A 4.0,0.00017620106181043653 180.0 0,0 29.000135,2.784645" />
      <path d="M 29.000135,2.784645 A 4.0,0.00017620106181043653 180.0 0,0 24.375095,2.784471" />
      <line x1="8.125157" y1="2.784744" x2="21.692968" y2="2.784744" />
      <line x1="8.125157" y1="2.783125" x2="8.125157" y2="2.784744" />
      <line x1="8.125155" y1="2.783125" x2="8.125155" y2="2.784733" />
      <path d="M 8.125155,2.784733 A 17.5,0.0007708796454206598 -2.9621223775198046e-24 0,1 -8.124845,2.784733" />
      <line x1="-8.124845" y1="2.783125" x2="-8.124845" y2="2.784733" />
      <line x1="-8.124842" y1="2.784733" x2="-8.124842" y2="2.784744" />
      <line x1="-21.692653" y1="2.784744" x2="-8.124842" y2="2.784744" />
      <line x1="-21.692653" y1="2.783819" x2="-21.692653" y2="2.784744" />
      <path d="M -21.692653,2.784744 A 4.0,0.0001762010618104365 -2.9621223775198046e-24 0,1 -28.999865,2.784645" />
      <path d="M -28.999865,2.784645 A 4.0,0.0001762010618104365 -2.9621223775198046e-24 0,1 -24.374905,2.784471" />
      <line x1="-24.374905" y1="2.783819" x2="-24.374905" y2="2.784471" />
      <line x1="-16.693884" y1="2.783125" x2="-16.693884" y2="2.784282" />
      <path d="M -16.693884,2.784282 A 17.5,0.0007708796454206598 -2.9621223775198046e-24 0,1 -17.5,2.78405" />
      <path d="M -17.5,2.78405 A 17.5,0.0007708796454206598 -2.9621223775198046e-24 0,1 -16.693989,2.783819" />
      <line x1="-16.693989" y1="2.783125" x2="-16.693989" y2="2.783819" />
      <line x1="-24.375052" y1="2.783819" x2="-16.693989" y2="2.783819" />
      <line x1="-24.375052" y1="2.78363" x2="-24.375052" y2="2.783819" />
      <line x1="32.49979" y1="-2.716875" x2="32.49979" y2="2.783125" />
      <line x1="-32.50021" y1="2.783125" x2="32.49979" y2="2.783125" />
      <line x1="-29.000135" y1="2.783125" x2="-29.000135" y2="2.783456" />
      <line x1="28.999865" y1="2.783125" x2="28.999865" y2="2.783456" />
      <line x1="17.5" y1="2.783819" x2="17.5" y2="2.78405" />
      <line x1="29.000135" y1="2.783125" x2="29.000135" y2="2.784645" />
      <line x1="-28.999865" y1="2.783458" x2="-28.999865" y2="2.784645" />
      <line x1="-17.5" y1="2.783819" x2="-17.5" y2="2.78405" />
    </g>
    <g fill="none" stroke="rgb(128,128,128)" stroke-width="0.1" id="hidden">
      <line x1="-32.50021" y1="2.783125" x2="-32.49979" y2="2.784975" />
      <line x1="-32.49979" y1="-2.715025" x2="-32.49979" y2="2.784975" />
      <line x1="-32.50021" y1="-2.716875" x2="-32.49979" y2="-2.715025" />
      <line x1="32.49979" y1="-2.716875" x2="32.50021" y2="-2.715025" />
      <line x1="-32.49979" y1="-2.715025" x2="32.50021" y2="-2.715025" />
      <path d="M -24.375113,-2.716449 A 2.25,9.911309726837053e-05 -2.9621223775198046e-24 0,1 -27.250135,-2.716544" />
      <path d="M -27.250135,-2.716544 A 2.25,9.911309726837053e-05 -2.9621223775198046e-24 0,1 -24.375157,-2.71664" />
      <line x1="-24.375113" y1="-2.716449" x2="-24.375052" y2="-2.716181" />
      <line x1="-24.375052" y1="-2.716181" x2="-16.693989" y2="-2.716181" />
      <path d="M -16.693884,-2.715718 A 17.5,0.0007708796454206598 -2.9621223775198046e-24 0,1 -17.5,-2.71595" />
      <path d="M -17.5,-2.71595 A 17.5,0.0007708796454206598 -2.9621223775198046e-24 0,1 -16.693989,-2.716181" />
      <line x1="-24.374947" y1="-2.715718" x2="-16.693884" y2="-2.715718" />
      <line x1="-24.374947" y1="-2.715718" x2="-24.374887" y2="-2.71545" />
      <path d="M -24.374843,-2.71526 A 2.25,9.911309726837053e-05 -2.9621223775198046e-24 0,1 -27.249865,-2.715355" />
      <path d="M -27.249865,-2.715355 A 2.25,9.911309726837053e-05 -2.9621223775198046e-24 0,1 -24.374887,-2.71545" />
      <line x1="-24.374843" y1="-2.71526" x2="-24.374842" y2="-2.715256" />
      <line x1="-24.374842" y1="-2.715256" x2="-8.124842" y2="-2.715256" />
      <line x1="-8.124845" y1="-2.715267" x2="-8.124842" y2="-2.715256" />
      <path d="M 8.125155,-2.715267 A 17.5,0.0007708796454206598 -2.9621223775198046e-24 0,1 -8.124845,-2.715267" />
      <line x1="8.125155" y1="-2.715267" x2="8.125157" y2="-2.715256" />
      <line x1="8.125157" y1="-2.715256" x2="24.375157" y2="-2.715256" />
      <line x1="24.375157" y1="-2.71526" x2="24.375157" y2="-2.715256" />
      <path d="M 24.375113,-2.71545 A 2.25,9.911309726837056e-05 1.94125652133138e-19 0,1 27.250135,-2.715355" />
      <path d="M 27.250135,-2.715355 A 2.25,9.911309726837056e-05 1.94125652133138e-19 0,1 24.375157,-2.71526" />
      <line x1="24.375052" y1="-2.715718" x2="24.375113" y2="-2.71545" />
      <line x1="16.693989" y1="-2.715718" x2="24.375052" y2="-2.715718" />
      <path d="M 16.693884,-2.716181 A 17.5,0.0007708796454206599 -9.706282606656896e-20 0,1 17.5,-2.71595" />
      <path d="M 17.5,-2.71595 A 17.5,0.0007708796454206599 -9.706282606656896e-20 0,1 16.693989,-2.715718" />
      <line x1="16.693884" y1="-2.716181" x2="24.374947" y2="-2.716181" />
      <line x1="24.374887" y1="-2.716449" x2="24.374947" y2="-2.716181" />
      <path d="M 24.374843,-2.71664 A 2.25,9.911309726837056e-05 1.94125652133138e-19 0,1 27.249865,-2.716544" />
      <path d="M 27.249865,-2.716544 A 2.25,9.911309726837056e-05 1.94125652133138e-19 0,1 24.374887,-2.716449" />
      <line x1="24.374842" y1="-2.716644" x2="24.374843" y2="-2.71664" />
      <line x1="8.124842" y1="-2.716644" x2="24.374842" y2="-2.716644" />
      <line x1="8.124842" y1="-2.716644" x2="8.124845" y2="-2.716632" />
      <path d="M -8.125155,-2.716632 A 17.5,0.0007708796454206598 -2.9621223775198046e-24 0,1 8.124845,-2.716632" />
      <line x1="-8.125157" y1="-2.716644" x2="-8.125155" y2="-2.716632" />
      <line x1="-24.375157" y1="-2.716644" x2="-8.125157" y2="-2.716644" />
      <line x1="-24.375157" y1="-2.716644" x2="-24.375157" y2="-2.71664" />
      <line x1="-24.375157" y1="-2.716644" x2="-24.375157" y2="-1.566644" />
      <line x1="-24.375157" y1="-1.566644" x2="-24.375157" y2="-1.56664" />
      <line x1="-24.375157" y1="-2.71664" x2="-24.375157" y2="-1.56664" />
      <line x1="-24.375113" y1="-1.566449" x2="-24.375095" y2="-1.56637" />
      <path d="M -24.375113,-1.566449 A 2.25,9.911309726837053e-05 -2.9621223775198046e-24 0,1 -27.250135,-1.566544" />
      <path d="M -27.250135,-1.566544 A 2.25,9.911309726837053e-05 -2.9621223775198046e-24 0,1 -24.375157,-1.56664" />
      <line x1="-21.692968" y1="-1.566644" x2="-24.375157" y2="-1.566644" />
      <path d="M -24.375095,-1.56637 A 4.0,0.0001762010618104365 -2.9621223775198046e-24 0,1 -29.000135,-1.566544" />
      <path d="M -29.000135,-1.566544 A 4.0,0.0001762010618104365 -2.9621223775198046e-24 0,1 -21.692968,-1.566644" />
      <line x1="-21.692968" y1="-1.566644" x2="-21.692968" y2="2.783125" />
      <line x1="-24.375095" y1="-1.56637" x2="-24.375095" y2="2.783282" />
      <line x1="-8.125157" y1="-2.716644" x2="-8.125157" y2="2.783356" />
      <line x1="-21.692968" y1="2.783356" x2="-8.125157" y2="2.783356" />
      <line x1="-8.125157" y1="2.783356" x2="-8.125155" y2="2.783368" />
      <line x1="-8.125155" y1="-2.716632" x2="-8.125155" y2="2.783368" />
      <line x1="8.124845" y1="-2.716632" x2="8.124845" y2="2.783368" />
      <path d="M -8.125155,2.783368 A 17.5,0.0007708796454206598 -2.9621223775198046e-24 0,1 8.124845,2.783368" />
      <line x1="8.124842" y1="2.783356" x2="8.124845" y2="2.783368" />
      <line x1="8.124842" y1="-2.716644" x2="8.124842" y2="2.783356" />
      <line x1="24.374842" y1="-2.716644" x2="24.374842" y2="-1.566644" />
      <line x1="24.374842" y1="-1.566644" x2="21.692653" y2="-1.566644" />
      <line x1="21.692653" y1="-1.566644" x2="21.692653" y2="2.783125" />
      <line x1="8.124842" y1="2.783356" x2="21.692653" y2="2.783356" />
      <path d="M 24.374905,-1.56637 A 4.0,0.0001762010618104365 -180.0 0,0 28.999865,-1.566544" />
      <path d="M 28.999865,-1.566544 A 4.0,0.0001762010618104365 -180.0 0,0 21.692653,-1.566644" />
      <line x1="24.374905" y1="-1.56637" x2="24.374905" y2="2.783282" />
      <line x1="24.374887" y1="-1.566449" x2="24.374905" y2="-1.56637" />
      <path d="M 24.374843,-1.56664 A 2.25,9.911309726837055e-05 9.7062826066569e-20 0,1 27.249865,-1.566544" />
      <path d="M 27.249865,-1.566544 A 2.25,9.911309726837055e-05 9.7062826066569e-20 0,1 24.374887,-1.566449" />
      <line x1="24.374842" y1="-1.566644" x2="24.374843" y2="-1.56664" />
      <line x1="24.374843" y1="-2.71664" x2="24.374843" y2="-1.56664" />
      <line x1="24.374887" y1="-2.716449" x2="24.374887" y2="-1.566449" />
      <line x1="24.374905" y1="2.78363" x2="24.374947" y2="2.783819" />
      <line x1="24.374947" y1="-2.716181" x2="24.374947" y2="2.78363" />
      <line x1="16.693884" y1="-2.716181" x2="16.693884" y2="2.783125" />
      <line x1="16.693989" y1="-2.715718" x2="16.693989" y2="2.783819" />
      <line x1="24.375052" y1="-2.715718" x2="24.375052" y2="2.784282" />
      <line x1="16.693989" y1="2.784282" x2="24.375052" y2="2.784282" />
      <line x1="24.375052" y1="2.784282" x2="24.375095" y2="2.784471" />
      <line x1="24.375095" y1="-1.565529" x2="24.375095" y2="2.78363" />
      <line x1="24.375095" y1="-1.565529" x2="24.375113" y2="-1.56545" />
      <line x1="24.375113" y1="-2.71545" x2="24.375113" y2="-1.56545" />
      <path d="M 21.692968,-1.565256 A 4.0,0.0001762010618104365 180.0 0,0 29.000135,-1.565355" />
      <path d="M 29.000135,-1.565355 A 4.0,0.0001762010618104365 180.0 0,0 24.375095,-1.565529" />
      <line x1="24.375157" y1="-1.565256" x2="21.692968" y2="-1.565256" />
      <line x1="24.375157" y1="-1.56526" x2="24.375157" y2="-1.565256" />
      <path d="M 24.375113,-1.56545 A 2.25,9.911309726837055e-05 9.7062826066569e-20 0,1 27.250135,-1.565355" />
      <path d="M 27.250135,-1.565355 A 2.25,9.911309726837055e-05 9.7062826066569e-20 0,1 24.375157,-1.56526" />
      <line x1="21.692968" y1="-1.565256" x2="21.692968" y2="2.783819" />
      <line x1="24.375157" y1="-2.71526" x2="24.375157" y2="-1.56526" />
      <line x1="24.375157" y1="-2.715256" x2="24.375157" y2="-1.565256" />
      <line x1="8.125157" y1="-2.715256" x2="8.125157" y2="2.783125" />
      <line x1="8.125155" y1="2.784733" x2="8.125157" y2="2.784744" />
      <line x1="8.125155" y1="-2.715267" x2="8.125155" y2="2.783125" />
      <line x1="-8.124845" y1="-2.715267" x2="-8.124845" y2="2.783125" />
      <line x1="-8.124845" y1="2.784733" x2="-8.124842" y2="2.784744" />
      <line x1="-8.124842" y1="-2.715256" x2="-8.124842" y2="2.784733" />
      <line x1="-21.692653" y1="-1.565256" x2="-21.692653" y2="2.783819" />
      <line x1="-21.692653" y1="-1.565256" x2="-24.374842" y2="-1.565256" />
      <line x1="-24.374842" y1="-2.715256" x2="-24.374842" y2="-1.565256" />
      <line x1="-24.374843" y1="-1.56526" x2="-24.374842" y2="-1.565256" />
      <path d="M -24.374843,-1.56526 A 2.25,9.911309726837053e-05 -2.9621223775198046e-24 0,1 -27.249865,-1.565355" />
      <path d="M -27.249865,-1.565355 A 2.25,9.911309726837053e-05 -2.9621223775198046e-24 0,1 -24.374887,-1.56545" />
      <line x1="-24.374905" y1="-1.565529" x2="-24.374887" y2="-1.56545" />
      <path d="M -21.692653,-1.565256 A 4.0,0.0001762010618104365 -2.9621223775198046e-24 0,1 -28.999865,-1.565355" />
      <path d="M -28.999865,-1.565355 A 4.0,0.0001762010618104365 -2.9621223775198046e-24 0,1 -24.374905,-1.565529" />
      <line x1="-24.374905" y1="-1.565529" x2="-24.374905" y2="2.783819" />
      <line x1="-24.374843" y1="-2.71526" x2="-24.374843" y2="-1.56526" />
      <line x1="-24.374887" y1="-2.71545" x2="-24.374887" y2="-1.56545" />
      <line x1="-24.374947" y1="2.784282" x2="-24.374905" y2="2.784471" />
      <line x1="-24.374947" y1="-2.715718" x2="-24.374947" y2="2.784282" />
      <line x1="-16.693884" y1="-2.715718" x2="-16.693884" y2="2.783125" />
      <line x1="-24.374947" y1="2.784282" x2="-16.693884" y2="2.784282" />
      <line x1="-16.693989" y1="-2.716181" x2="-16.693989" y2="2.783125" />
      <line x1="-24.375052" y1="-2.716181" x2="-24.375052" y2="2.78363" />
      <line x1="-24.375113" y1="-2.716449" x2="-24.375113" y2="-1.566449" />
      <line x1="-24.375095" y1="2.78363" x2="-24.375052" y2="2.783819" />
      <line x1="32.49979" y1="2.783125" x2="32.50021" y2="2.784975" />
      <line x1="32.50021" y1="-2.715025" x2="32.50021" y2="2.784975" />
      <line x1="-32.49979" y1="2.784975" x2="32.50021" y2="2.784975" />
      <line x1="-29.000135" y1="-1.566544" x2="-29.000135" y2="2.783125" />
      <line x1="28.999865" y1="-1.566544" x2="28.999865" y2="2.783125" />
      <line x1="27.249865" y1="-2.716544" x2="27.249865" y2="-1.566544" />
      <line x1="17.5" y1="-2.71595" x2="17.5" y2="2.783819" />
      <line x1="29.000135" y1="-1.565355" x2="29.000135" y2="2.783125" />
      <line x1="27.250135" y1="-2.715355" x2="27.250135" y2="-1.565355" />
      <line x1="-28.999865" y1="-1.565355" x2="-28.999865" y2="2.783458" />
      <line x1="-27.249865" y1="-2.715355" x2="-27.249865" y2="-1.565355" />
      <line x1="-17.5" y1="-2.71595" x2="-17.5" y2="2.783819" />
      <line x1="-27.250135" y1="-2.716544" x2="-27.250135" y2="-1.566544" />
=======
<svg width="65.3004mm" height="5.80222mm" viewBox="-32.6502 -2.943972 65.3004 5.80222" version="1.1" xmlns="http://www.w3.org/2000/svg">
  <g transform="scale(1,-1)" stroke-linecap="round">
    <g fill="none" stroke="rgb(0,0,0)" stroke-width="0.3" id="visible">
      <path d="M -32.5002,-2.708195 A 1.0,5.286225397366031e-05 0.0 0,1 -31.50021,-2.708248" />
      <line x1="-31.50021" y1="-2.708248" x2="31.49979" y2="-2.708248" />
      <path d="M 31.49979,-2.708248 A 1.0,5.286225397366031e-05 0.0 0,1 32.4998,-2.708195" />
      <path d="M 32.4998,-2.706079 A 1.0,5.286225397366031e-05 180.0 0,0 32.5002,-2.706081" />
      <path d="M 29.000135,2.793576 A 4.0,0.00021144901589464124 0.0 0,1 21.000135,2.793576" />
      <path d="M 21.000135,2.793576 A 4.0,0.00021144901589464124 0.0 0,1 29.000135,2.793576" />
      <line x1="29.000135" y1="2.791752" x2="29.000135" y2="2.793576" />
      <path d="M 17.5,2.792862 A 17.5,0.0009250894445390554 0.0 0,1 -17.5,2.792862" />
      <path d="M -17.5,2.792862 A 17.5,0.0009250894445390554 0.0 0,1 17.5,2.792862" />
      <line x1="17.5" y1="-1.208248" x2="17.5" y2="-1.208111" />
      <line x1="17.5" y1="2.791752" x2="17.5" y2="2.792862" />
      <path d="M -20.999865,2.793576 A 4.0,0.00021144901589464124 0.0 0,1 -28.999865,2.793576" />
      <path d="M -28.999865,2.793576 A 4.0,0.00021144901589464124 0.0 0,1 -20.999865,2.793576" />
      <line x1="-20.999865" y1="2.791752" x2="-20.999865" y2="2.793576" />
      <path d="M 28.999865,2.792149 A 4.0,0.00021144901589464124 0.0 0,1 20.999865,2.792149" />
      <path d="M 20.999865,2.792149 A 4.0,0.00021144901589464124 0.0 0,1 28.999865,2.792149" />
      <line x1="28.999865" y1="2.791752" x2="28.999865" y2="2.792149" />
      <path d="M -21.000135,2.792149 A 4.0,0.00021144901589464124 0.0 0,1 -29.000135,2.792149" />
      <path d="M -29.000135,2.792149 A 4.0,0.00021144901589464124 0.0 0,1 -21.000135,2.792149" />
      <line x1="-21.000135" y1="2.791752" x2="-21.000135" y2="2.792149" />
      <line x1="32.5002" y1="-2.706081" x2="32.5002" y2="2.793919" />
      <path d="M 31.50021,2.793972 A 1.0,5.286225397366031e-05 180.0 0,0 32.5002,2.793919" />
      <line x1="32.4998" y1="-2.708195" x2="32.4998" y2="2.791805" />
      <path d="M 31.49979,2.791752 A 1.0,5.286225397366031e-05 0.0 0,1 32.4998,2.791805" />
      <line x1="-31.50021" y1="2.791752" x2="31.49979" y2="2.791752" />
      <line x1="-6.067515" y1="-1.208248" x2="-19.432905" y2="-1.208248" />
      <line x1="-19.432905" y1="1.291752" x2="-6.067515" y2="1.291752" />
      <line x1="19.432485" y1="-1.208248" x2="6.067095" y2="-1.208248" />
      <line x1="6.067095" y1="1.291752" x2="19.432485" y2="1.291752" />
      <path d="M 18.477821,-1.208211 A 6.0,0.0003171735238419619 0.0 0,1 7.021773,-1.208211" />
      <path d="M 19.432485,-1.208248 A 1.0,5.286225397366031e-05 180.0 0,0 18.477821,-1.208211" />
      <path d="M 6.067095,-1.208248 A 1.0,5.286225397366031e-05 0.0 0,1 7.021773,-1.208211" />
      <path d="M -7.022179,-1.208211 A 6.0,0.00031717352384196185 -1.9412565221602883e-19 0,1 -18.478227,-1.208211" />
      <path d="M -6.067515,-1.208248 A 1.0,5.286225397366031e-05 180.0 0,0 -7.022179,-1.208211" />
      <path d="M -19.432905,-1.208248 A 1.0,5.286225397366031e-05 0.0 0,1 -18.478227,-1.208211" />
      <line x1="-32.4998" y1="2.791804" x2="-32.4998" y2="2.79392" />
      <path d="M -32.4998,2.79392 A 1.0,5.286225397366031e-05 180.0 0,0 -31.49979,2.793972" />
      <line x1="-32.5002" y1="-2.708195" x2="-32.5002" y2="2.791805" />
      <path d="M -32.5002,2.791805 A 1.0,5.286225397366031e-05 0.0 0,1 -31.50021,2.791752" />
      <line x1="-32.5002" y1="-2.708195" x2="-32.5002" y2="2.791805" />
      <line x1="-32.4998" y1="2.791804" x2="-32.4998" y2="2.79392" />
      <line x1="32.4998" y1="-2.708195" x2="32.4998" y2="2.791805" />
      <line x1="32.5002" y1="-2.706081" x2="32.5002" y2="2.793919" />
      <line x1="31.50021" y1="2.791752" x2="31.50021" y2="2.793972" />
      <line x1="31.49979" y1="-2.708248" x2="31.49979" y2="2.791752" />
      <line x1="-31.49979" y1="2.791752" x2="-31.49979" y2="2.793972" />
      <line x1="-31.50021" y1="-2.708248" x2="-31.50021" y2="2.791752" />
      <line x1="-19.432905" y1="-1.208248" x2="-19.432905" y2="1.291752" />
      <line x1="-6.067515" y1="-1.208248" x2="-6.067515" y2="1.291752" />
      <line x1="6.067095" y1="-1.208248" x2="6.067095" y2="1.291752" />
      <line x1="19.432485" y1="-1.208248" x2="19.432485" y2="1.291752" />
      <line x1="18.477821" y1="-1.208211" x2="18.477821" y2="1.291752" />
      <line x1="7.021773" y1="-1.208211" x2="7.021773" y2="1.291752" />
      <line x1="-7.022179" y1="-1.208211" x2="-7.022179" y2="1.291752" />
      <line x1="-18.478227" y1="-1.208211" x2="-18.478227" y2="1.291752" />
      <line x1="29.000135" y1="2.791752" x2="29.000135" y2="2.793576" />
      <line x1="21.000135" y1="2.792151" x2="21.000135" y2="2.793576" />
      <line x1="17.5" y1="-1.208248" x2="17.5" y2="-1.208111" />
      <line x1="17.5" y1="2.791752" x2="17.5" y2="2.792862" />
      <line x1="-17.5" y1="-1.208248" x2="-17.5" y2="-1.208111" />
      <line x1="-17.5" y1="2.791752" x2="-17.5" y2="2.792862" />
      <line x1="-20.999865" y1="2.791752" x2="-20.999865" y2="2.793576" />
      <line x1="-28.999865" y1="2.792151" x2="-28.999865" y2="2.793576" />
      <line x1="28.999865" y1="2.791752" x2="28.999865" y2="2.792149" />
      <line x1="20.999865" y1="2.791752" x2="20.999865" y2="2.792149" />
      <line x1="-21.000135" y1="2.791752" x2="-21.000135" y2="2.792149" />
      <line x1="-29.000135" y1="2.791752" x2="-29.000135" y2="2.792149" />
      <line x1="32.5002" y1="-2.706081" x2="32.5002" y2="2.793919" />
      <line x1="-32.5002" y1="-2.708195" x2="-32.5002" y2="2.791805" />
    </g>
    <g fill="none" stroke="rgb(128,128,128)" stroke-width="0.1" id="hidden">
      <line x1="-32.5002" y1="2.791805" x2="-32.4998" y2="2.79392" />
      <line x1="-32.5002" y1="-2.708195" x2="-32.4998" y2="-2.70608" />
      <path d="M -32.4998,-2.70608 A 1.0,5.286225397366031e-05 180.0 0,0 -31.49979,-2.706028" />
      <line x1="-31.49979" y1="-2.706028" x2="31.50021" y2="-2.706028" />
      <path d="M 31.50021,-2.706028 A 1.0,5.286225397366031e-05 180.0 0,0 32.4998,-2.706079" />
      <line x1="32.4998" y1="-2.708195" x2="32.5002" y2="-2.706081" />
      <path d="M -22.750135,-2.707851 A 2.25,0.0001189400714407357 0.0 0,1 -27.250135,-2.707851" />
      <path d="M -27.250135,-2.707851 A 2.25,0.0001189400714407357 0.0 0,1 -22.750135,-2.707851" />
      <path d="M 27.249865,-2.707851 A 2.25,0.0001189400714407357 0.0 0,1 22.749865,-2.707851" />
      <path d="M 22.749865,-2.707851 A 2.25,0.0001189400714407357 0.0 0,1 27.249865,-2.707851" />
      <path d="M -22.749865,-2.706424 A 2.25,0.0001189400714407357 0.0 0,1 -27.249865,-2.706424" />
      <path d="M -27.249865,-2.706424 A 2.25,0.0001189400714407357 0.0 0,1 -22.749865,-2.706424" />
      <path d="M 17.5,-2.707138 A 17.5,0.0009250894445390554 0.0 0,1 -17.5,-2.707138" />
      <path d="M -17.5,-2.707138 A 17.5,0.0009250894445390554 0.0 0,1 17.5,-2.707138" />
      <path d="M 27.250135,-2.706424 A 2.25,0.0001189400714407357 0.0 0,1 22.750135,-2.706424" />
      <path d="M 22.750135,-2.706424 A 2.25,0.0001189400714407357 0.0 0,1 27.250135,-2.706424" />
      <path d="M 27.250135,-1.606424 A 2.25,0.0001189400714407357 0.0 0,1 22.750135,-1.606424" />
      <path d="M 22.750135,-1.606424 A 2.25,0.0001189400714407357 0.0 0,1 27.250135,-1.606424" />
      <line x1="27.250135" y1="-2.706424" x2="27.250135" y2="-1.606424" />
      <path d="M 29.000135,-1.606424 A 4.0,0.00021144901589464124 0.0 0,1 21.000135,-1.606424" />
      <path d="M 21.000135,-1.606424 A 4.0,0.00021144901589464124 0.0 0,1 29.000135,-1.606424" />
      <line x1="29.000135" y1="-1.606424" x2="29.000135" y2="2.791752" />
      <line x1="17.5" y1="-2.707138" x2="17.5" y2="-1.208248" />
      <line x1="17.5" y1="-1.208111" x2="17.5" y2="2.791752" />
      <path d="M -22.749865,-1.606424 A 2.25,0.0001189400714407357 0.0 0,1 -27.249865,-1.606424" />
      <path d="M -27.249865,-1.606424 A 2.25,0.0001189400714407357 0.0 0,1 -22.749865,-1.606424" />
      <line x1="-22.749865" y1="-2.706424" x2="-22.749865" y2="-1.606424" />
      <path d="M -20.999865,-1.606424 A 4.0,0.00021144901589464124 0.0 0,1 -28.999865,-1.606424" />
      <path d="M -28.999865,-1.606424 A 4.0,0.00021144901589464124 0.0 0,1 -20.999865,-1.606424" />
      <line x1="-20.999865" y1="-1.606424" x2="-20.999865" y2="2.791752" />
      <path d="M 27.249865,-1.607851 A 2.25,0.0001189400714407357 0.0 0,1 22.749865,-1.607851" />
      <path d="M 22.749865,-1.607851 A 2.25,0.0001189400714407357 0.0 0,1 27.249865,-1.607851" />
      <line x1="27.249865" y1="-2.707851" x2="27.249865" y2="-1.607851" />
      <path d="M 28.999865,-1.607851 A 4.0,0.00021144901589464124 0.0 0,1 20.999865,-1.607851" />
      <path d="M 20.999865,-1.607851 A 4.0,0.00021144901589464124 0.0 0,1 28.999865,-1.607851" />
      <line x1="28.999865" y1="-1.607851" x2="28.999865" y2="2.791752" />
      <path d="M -22.750135,-1.607851 A 2.25,0.0001189400714407357 0.0 0,1 -27.250135,-1.607851" />
      <path d="M -27.250135,-1.607851 A 2.25,0.0001189400714407357 0.0 0,1 -22.750135,-1.607851" />
      <line x1="-22.750135" y1="-2.707851" x2="-22.750135" y2="-1.607851" />
      <path d="M -21.000135,-1.607851 A 4.0,0.00021144901589464124 0.0 0,1 -29.000135,-1.607851" />
      <path d="M -29.000135,-1.607851 A 4.0,0.00021144901589464124 0.0 0,1 -21.000135,-1.607851" />
      <line x1="-21.000135" y1="-1.607851" x2="-21.000135" y2="2.791752" />
      <line x1="32.4998" y1="2.791805" x2="32.5002" y2="2.793919" />
      <line x1="-31.49979" y1="2.793972" x2="31.50021" y2="2.793972" />
      <line x1="-19.432485" y1="-1.206028" x2="-6.067095" y2="-1.206028" />
      <line x1="-6.067095" y1="1.293972" x2="-19.432485" y2="1.293972" />
      <line x1="6.067515" y1="-1.206028" x2="19.432905" y2="-1.206028" />
      <line x1="19.432905" y1="1.293972" x2="6.067515" y2="1.293972" />
      <path d="M 6.067515,-1.206028 A 1.0,5.286225397366031e-05 180.0 0,0 7.022179,-1.206065" />
      <path d="M 6.067515,1.293972 A 1.0,5.286225397366031e-05 180.0 0,0 7.022179,1.293935" />
      <path d="M 7.022179,1.293935 A 6.0,0.0003171735238419619 -1.9412565221602883e-19 0,1 18.478227,1.293935" />
      <path d="M 7.022179,-1.206065 A 6.0,0.0003171735238419619 -1.9412565221602883e-19 0,1 18.478227,-1.206065" />
      <path d="M 19.432905,1.293972 A 1.0,5.286225397366031e-05 0.0 0,1 18.478227,1.293935" />
      <path d="M 19.432905,-1.206028 A 1.0,5.286225397366031e-05 0.0 0,1 18.478227,-1.206065" />
      <path d="M -19.432485,-1.206028 A 1.0,5.286225397366031e-05 180.0 0,0 -18.477821,-1.206065" />
      <path d="M -19.432485,1.293972 A 1.0,5.286225397366031e-05 180.0 0,0 -18.477821,1.293935" />
      <path d="M -18.477821,1.293935 A 6.0,0.0003171735238419619 -1.9412565221602878e-19 0,1 -7.021773,1.293935" />
      <path d="M -18.477821,-1.206065 A 6.0,0.0003171735238419619 -1.9412565221602878e-19 0,1 -7.021773,-1.206065" />
      <path d="M -6.067095,1.293972 A 1.0,5.286225397366031e-05 0.0 0,1 -7.021773,1.293935" />
      <path d="M -6.067095,-1.206028 A 1.0,5.286225397366031e-05 0.0 0,1 -7.021773,-1.206065" />
      <path d="M 18.477821,1.291789 A 6.0,0.0003171735238419619 0.0 0,1 7.021773,1.291789" />
      <path d="M 6.067095,1.291752 A 1.0,5.286225397366031e-05 0.0 0,1 7.021773,1.291789" />
      <path d="M 19.432485,1.291752 A 1.0,5.286225397366031e-05 180.0 0,0 18.477821,1.291789" />
      <path d="M -7.022179,1.291789 A 6.0,0.00031717352384196185 -1.9412565221602883e-19 0,1 -18.478227,1.291789" />
      <path d="M -19.432905,1.291752 A 1.0,5.286225397366031e-05 0.0 0,1 -18.478227,1.291789" />
      <path d="M -6.067515,1.291752 A 1.0,5.286225397366031e-05 180.0 0,0 -7.022179,1.291789" />
      <line x1="-32.4998" y1="-2.70608" x2="-32.4998" y2="2.791804" />
      <path d="M 31.5,1.292862 A 6.0,0.00031717352384196185 0.0 0,1 19.5,1.292862" />
      <path d="M 19.5,1.292862 A 6.0,0.00031717352384196185 0.0 0,1 31.5,1.292862" />
      <line x1="31.5" y1="-1.207138" x2="31.5" y2="1.292862" />
      <path d="M 31.5,-1.207138 A 6.0,0.00031717352384196185 0.0 0,1 19.5,-1.207138" />
      <path d="M 19.5,-1.207138 A 6.0,0.00031717352384196185 0.0 0,1 31.5,-1.207138" />
      <path d="M -31.5,1.292862 A 6.0,0.00031717352384196185 0.0 0,1 -19.5,1.292862" />
      <path d="M -19.5,1.292862 A 6.0,0.00031717352384196185 0.0 0,1 -31.5,1.292862" />
      <line x1="-31.5" y1="-1.207138" x2="-31.5" y2="1.292862" />
      <path d="M -31.5,-1.207138 A 6.0,0.00031717352384196185 0.0 0,1 -19.5,-1.207138" />
      <path d="M -19.5,-1.207138 A 6.0,0.00031717352384196185 0.0 0,1 -31.5,-1.207138" />
      <line x1="27.250135" y1="-2.706424" x2="27.250135" y2="-1.606424" />
      <line x1="22.750135" y1="-2.706424" x2="22.750135" y2="-1.606424" />
      <line x1="29.000135" y1="-1.606424" x2="29.000135" y2="2.791752" />
      <line x1="21.000135" y1="-1.606424" x2="21.000135" y2="2.792151" />
      <line x1="17.5" y1="-2.707138" x2="17.5" y2="-1.208248" />
      <line x1="17.5" y1="-1.208111" x2="17.5" y2="2.791752" />
      <line x1="-17.5" y1="-2.707138" x2="-17.5" y2="-1.208248" />
      <line x1="-17.5" y1="-1.208111" x2="-17.5" y2="2.791752" />
      <line x1="-22.749865" y1="-2.706424" x2="-22.749865" y2="-1.606424" />
      <line x1="-27.249865" y1="-2.706424" x2="-27.249865" y2="-1.606424" />
      <line x1="-20.999865" y1="-1.606424" x2="-20.999865" y2="2.791752" />
      <line x1="-28.999865" y1="-1.606424" x2="-28.999865" y2="2.792151" />
      <line x1="27.249865" y1="-2.707851" x2="27.249865" y2="-1.607851" />
      <line x1="22.749865" y1="-2.707851" x2="22.749865" y2="-1.607851" />
      <line x1="28.999865" y1="-1.607851" x2="28.999865" y2="2.791752" />
      <line x1="20.999865" y1="-1.607851" x2="20.999865" y2="2.791752" />
      <line x1="-22.750135" y1="-2.707851" x2="-22.750135" y2="-1.607851" />
      <line x1="-27.250135" y1="-2.707851" x2="-27.250135" y2="-1.607851" />
      <line x1="-21.000135" y1="-1.607851" x2="-21.000135" y2="2.791752" />
      <line x1="-29.000135" y1="-1.607851" x2="-29.000135" y2="2.791752" />
      <line x1="31.5" y1="-1.207138" x2="31.5" y2="1.292862" />
      <line x1="19.5" y1="-1.207138" x2="19.5" y2="1.292862" />
      <line x1="-19.5" y1="-1.207138" x2="-19.5" y2="1.292862" />
      <line x1="-31.5" y1="-1.207138" x2="-31.5" y2="1.292862" />
      <line x1="-32.4998" y1="-2.70608" x2="-32.4998" y2="2.791804" />
      <line x1="31.50021" y1="-2.706028" x2="31.50021" y2="2.791752" />
      <line x1="-31.49979" y1="-2.706028" x2="-31.49979" y2="2.791752" />
      <line x1="-6.067095" y1="-1.206028" x2="-6.067095" y2="1.293972" />
      <line x1="-19.432485" y1="-1.206028" x2="-19.432485" y2="1.293972" />
      <line x1="19.432905" y1="-1.206028" x2="19.432905" y2="1.293972" />
      <line x1="6.067515" y1="-1.206028" x2="6.067515" y2="1.293972" />
      <line x1="7.022179" y1="-1.206065" x2="7.022179" y2="1.293935" />
      <line x1="18.478227" y1="-1.206065" x2="18.478227" y2="1.293935" />
      <line x1="-18.477821" y1="-1.206065" x2="-18.477821" y2="1.293935" />
      <line x1="-7.021773" y1="-1.206065" x2="-7.021773" y2="1.293935" />
      <line x1="18.477821" y1="1.291752" x2="18.477821" y2="1.291789" />
      <line x1="7.021773" y1="1.291752" x2="7.021773" y2="1.291789" />
      <line x1="-7.022179" y1="1.291752" x2="-7.022179" y2="1.291789" />
      <line x1="-18.478227" y1="1.291752" x2="-18.478227" y2="1.291789" />
>>>>>>> feat-l3
    </g>
  </g>
</svg>