<?xml version='1.0' encoding='utf-8'?>
<svg width="75.30054mm" height="10.303645mm" viewBox="-37.65027 -5.208093 75.30054 10.303645" version="1.1" xmlns="http://www.w3.org/2000/svg">
  <g transform="scale(1,-1)" stroke-linecap="round">
    <g fill="none" stroke="rgb(0,0,0)" stroke-width="0.3" id="visible">
      <path d="M -37.50027,-4.945518 A 0.5,3.3135443295789095e-05 0.0 0,1 -37.000275,-4.945552" />
      <line x1="-37.000275" y1="-4.945552" x2="36.999725" y2="-4.945552" />
      <path d="M 36.999725,-4.945552 A 0.5,3.3135443295789095e-05 0.0 0,1 37.49973,-4.945518" />
      <path d="M 37.49973,-4.941938 A 0.5,3.3135443295789095e-05 180.0 0,0 37.50027,-4.94194" />
      <path d="M 34.0002,5.057596 A 4.0,0.00026508354636631276 0.0 0,1 26.0002,5.057596" />
      <path d="M 26.0002,5.057596 A 4.0,0.00026508354636631276 0.0 0,1 34.0002,5.057596" />
      <line x1="34.0002" y1="5.054448" x2="34.0002" y2="5.057596" />
      <line x1="17.5" y1="5.054448" x2="17.5" y2="5.056271" />
      <path d="M 17.5,5.056271 A 17.5,0.0011597405153526183 0.0 0,1 -17.5,5.056271" />
      <path d="M -17.5,5.056271 A 17.5,0.0011597405153526183 0.0 0,1 17.5,5.056271" />
      <path d="M -25.9998,5.057596 A 4.0,0.00026508354636631276 0.0 0,1 -33.9998,5.057596" />
      <path d="M -33.9998,5.057596 A 4.0,0.00026508354636631276 0.0 0,1 -25.9998,5.057596" />
      <line x1="-25.9998" y1="5.054448" x2="-25.9998" y2="5.057596" />
      <path d="M 33.9998,5.054945 A 4.0,0.00026508354636631276 0.0 0,1 25.9998,5.054945" />
      <path d="M 25.9998,5.054945 A 4.0,0.00026508354636631276 0.0 0,1 33.9998,5.054945" />
      <line x1="33.9998" y1="5.054448" x2="33.9998" y2="5.054945" />
      <path d="M -26.0002,5.054945 A 4.0,0.00026508354636631276 0.0 0,1 -34.0002,5.054945" />
      <path d="M -34.0002,5.054945 A 4.0,0.00026508354636631276 0.0 0,1 -26.0002,5.054945" />
      <line x1="-26.0002" y1="5.054448" x2="-26.0002" y2="5.054945" />
      <line x1="37.50027" y1="-4.94194" x2="37.50027" y2="5.05806" />
      <path d="M 37.000275,5.058093 A 0.5,3.3135443295789095e-05 180.0 0,0 37.50027,5.05806" />
      <line x1="37.49973" y1="-4.945518" x2="37.49973" y2="5.054482" />
      <path d="M 36.999725,5.054448 A 0.5,3.3135443295789095e-05 0.0 0,1 37.49973,5.054482" />
      <line x1="-37.000275" y1="5.054448" x2="36.999725" y2="5.054448" />
      <line x1="-37.49973" y1="5.05448" x2="-37.49973" y2="5.05806" />
      <path d="M -37.49973,5.05806 A 0.5,3.3135443295789095e-05 180.0 0,0 -36.999725,5.058093" />
      <line x1="-37.50027" y1="-4.945518" x2="-37.50027" y2="5.054482" />
      <path d="M -37.50027,5.054482 A 0.5,3.3135443295789095e-05 0.0 0,1 -37.000275,5.054448" />
      <line x1="-37.50027" y1="-4.945518" x2="-37.50027" y2="5.054482" />
      <line x1="-37.49973" y1="5.05448" x2="-37.49973" y2="5.05806" />
      <line x1="37.49973" y1="-4.945518" x2="37.49973" y2="5.054482" />
      <line x1="37.50027" y1="-4.94194" x2="37.50027" y2="5.05806" />
      <line x1="37.000275" y1="5.054448" x2="37.000275" y2="5.058093" />
      <line x1="36.999725" y1="-4.945552" x2="36.999725" y2="5.054448" />
      <line x1="-36.999725" y1="5.054448" x2="-36.999725" y2="5.058093" />
      <line x1="-37.000275" y1="-4.945552" x2="-37.000275" y2="5.054448" />
      <line x1="34.0002" y1="5.054448" x2="34.0002" y2="5.057596" />
      <line x1="26.0002" y1="5.054949" x2="26.0002" y2="5.057596" />
      <line x1="17.5" y1="5.054448" x2="17.5" y2="5.056271" />
      <line x1="-17.5" y1="5.054448" x2="-17.5" y2="5.056271" />
      <line x1="-25.9998" y1="5.054448" x2="-25.9998" y2="5.057596" />
      <line x1="-33.9998" y1="5.054949" x2="-33.9998" y2="5.057596" />
      <line x1="33.9998" y1="5.054448" x2="33.9998" y2="5.054945" />
      <line x1="25.9998" y1="5.054448" x2="25.9998" y2="5.054945" />
      <line x1="-26.0002" y1="5.054448" x2="-26.0002" y2="5.054945" />
      <line x1="-34.0002" y1="5.054448" x2="-34.0002" y2="5.054945" />
      <line x1="37.50027" y1="-4.94194" x2="37.50027" y2="5.05806" />
      <line x1="-37.50027" y1="-4.945518" x2="-37.50027" y2="5.054482" />
    </g>
  </g>
</svg>