<?xml version='1.0' encoding='utf-8'?>
<svg width="60.3mm" height="60.300294mm" viewBox="-30.15 -30.150846 60.3 60.300294" version="1.1" xmlns="http://www.w3.org/2000/svg">
  <g transform="scale(1,-1)" stroke-linecap="round">
    <g fill="none" stroke="rgb(0,0,0)" stroke-width="0.3" id="visible">
      <path d="M -25.842897,-15.236991 A 30.0,29.999999996998795 -3.4309979066197613e-15 0,1 -21.213203,-21.213899" />
      <path d="M -21.213203,-21.213899 A 30.0,29.999999996998795 -3.4309979066197613e-15 0,1 -15.236295,-25.843593" />
      <path d="M -21.213203,-21.212881 A 30.0,29.999999996998795 -3.4309979066197613e-15 0,1 -15.236295,-25.842574" />
      <path d="M -21.213203,-21.212358 A 30.0,29.999999996998795 -3.4309979066197613e-15 0,1 21.213203,21.214049 A 30.0,29.999999996998795 -3.4309979066197613e-15 0,1 -21.213203,-21.212358" />
      <path d="M -25.842897,-15.235973 A 30.0,29.999999996998795 -3.4309979066197613e-15 0,1 -21.213203,-21.212881" />
      <path d="M 0.27357,-29.999449 A 30.0,29.999999996998795 -3.4309979066197613e-15 0,1 14.762458,-26.117163" />
      <path d="M 26.116467,-14.763154 A 30.0,29.999999996998795 -3.4309979066197613e-15 0,1 29.998753,-0.274266" />
      <path d="M 0.27357,-29.99843 A 30.0,29.999999996998795 -3.4309979066197613e-15 0,1 14.762458,-26.116144" />
      <path d="M 26.116467,-14.762135 A 30.0,29.999999996998795 -3.4309979066197613e-15 0,1 29.998753,-0.273248" />
      <line x1="-25.842519" y1="-15.236613" x2="-25.842897" y2="-15.236991" />
      <line x1="-15.235325" y1="-25.842623" x2="-15.236295" y2="-25.843593" />
      <line x1="-15.235966" y1="-25.842245" x2="-15.236295" y2="-25.842574" />
      <line x1="-25.842703" y1="-15.235778" x2="-25.842897" y2="-15.235973" />
      <path d="M -20.152543,-20.151697 A 28.5,28.499999997148855 -3.4309979066197613e-15 0,1 20.152543,20.153389 A 28.5,28.499999997148855 -3.4309979066197613e-15 0,1 -20.152543,-20.151697" />
      <line x1="14.762221" y1="-26.116278" x2="14.762458" y2="-26.117163" />
      <line x1="0.273158" y1="-29.997911" x2="0.27357" y2="-29.999449" />
      <path d="M 28.5,7.5e-05 A 28.5,28.499999997148855 -3.4309979066197613e-15 0,1 28.499785,0.110107" />
      <line x1="28.499785" y1="0.110107" x2="28.499788" y2="0.110122" />
      <line x1="29.998743" y1="-0.274264" x2="29.998753" y2="-0.274266" />
      <line x1="26.11571" y1="-14.762951" x2="26.116467" y2="-14.763154" />
      <line x1="24.739" y1="14.151177" x2="24.736939" y2="14.153238" />
      <path d="M 24.736939,14.153238 A 28.5,28.499999997148855 -3.4309979066197613e-15 0,1 14.153934,24.736243" />
      <line x1="14.153934" y1="24.736243" x2="14.150331" y2="24.739846" />
      <line x1="0.116473" y1="28.500608" x2="0.110803" y2="28.499089" />
      <path d="M 0.110803,28.499089 A 28.5,28.499999997148855 -3.4309979066197613e-15 0,1 -14.345851,24.62544" />
      <line x1="-14.345851" y1="24.62544" x2="-14.35075" y2="24.624127" />
      <line x1="-24.625371" y1="14.34801" x2="-24.626136" y2="14.345155" />
      <path d="M -24.626136,14.345155 A 28.5,28.499999997148855 -3.4309979066197613e-15 0,1 -28.5,7.5e-05" />
      <line x1="14.762336" y1="-26.11569" x2="14.762458" y2="-26.116144" />
      <line x1="0.27343" y1="-29.997908" x2="0.27357" y2="-29.99843" />
      <path d="M 28.5,0.000584 A 28.5,28.499999997148855 -3.4309979066197613e-15 0,1 28.499785,0.111126" />
      <line x1="28.499785" y1="0.111126" x2="28.499787" y2="0.111133" />
      <line x1="29.998748" y1="-0.273246" x2="29.998753" y2="-0.273248" />
      <line x1="26.11621" y1="-14.762066" x2="26.116467" y2="-14.762135" />
      <line x1="24.737639" y1="14.153556" x2="24.736939" y2="14.154256" />
      <path d="M 24.736939,14.154256 A 28.5,28.499999997148855 -3.4309979066197613e-15 0,1 14.153934,24.737262" />
      <line x1="14.153934" y1="24.737262" x2="14.152711" y2="24.738485" />
      <line x1="0.112728" y1="28.500623" x2="0.110803" y2="28.500107" />
      <path d="M 0.110803,28.500107 A 28.5,28.499999997148855 -3.4309979066197613e-15 0,1 -14.345851,24.626458" />
      <line x1="-14.345851" y1="24.626458" x2="-14.347514" y2="24.626013" />
      <line x1="-24.625876" y1="14.347142" x2="-24.626136" y2="14.346173" />
      <path d="M -24.626136,14.346173 A 28.5,28.499999997148855 -3.4309979066197613e-15 0,1 -28.5,0.000584" />
    </g>
  </g>
</svg>