ISO-10303-21;
HEADER;
FILE_DESCRIPTION(('Open CASCADE Model'),'2;1');
FILE_NAME('Open CASCADE Shape Model','2026-07-09T15:22:21',('Author'),(
    'Open CASCADE'),'Open CASCADE STEP processor 7.9','build123d',
  'Unknown');
FILE_SCHEMA(('AUTOMOTIVE_DESIGN { 1 0 10303 214 1 1 1 1 }'));
ENDSEC;
DATA;
#1 = APPLICATION_PROTOCOL_DEFINITION('international standard',
  'automotive_design',2000,#2);
#2 = APPLICATION_CONTEXT(
  'core data for automotive mechanical design processes');
#3 = SHAPE_DEFINITION_REPRESENTATION(#4,#10);
#4 = PRODUCT_DEFINITION_SHAPE('','',#5);
#5 = PRODUCT_DEFINITION('design','',#6,#9);
#6 = PRODUCT_DEFINITION_FORMATION('','',#7);
#7 = PRODUCT('COMPOUND','COMPOUND','',(#8));
#8 = PRODUCT_CONTEXT('',#2,'mechanical');
#9 = PRODUCT_DEFINITION_CONTEXT('part definition',#2,'design');
#10 = SHAPE_REPRESENTATION('',(#11,#15,#191,#363,#535,#707),#1175);
#11 = AXIS2_PLACEMENT_3D('',#12,#13,#14);
#12 = CARTESIAN_POINT('',(0.,0.,0.));
#13 = DIRECTION('',(0.,0.,1.));
#14 = DIRECTION('',(1.,0.,-0.));
#15 = MANIFOLD_SOLID_BREP('',#16);
#16 = CLOSED_SHELL('',(#17,#134,#159,#186));
#17 = ADVANCED_FACE('',(#18),#33,.T.);
#18 = FACE_BOUND('',#19,.T.);
#19 = EDGE_LOOP('',(#20,#56,#82,#115));
#20 = ORIENTED_EDGE('',*,*,#21,.T.);
#21 = EDGE_CURVE('',#22,#24,#26,.T.);
#22 = VERTEX_POINT('',#23);
#23 = CARTESIAN_POINT('',(9.,-3.340658617698,100.));
#24 = VERTEX_POINT('',#25);
#25 = CARTESIAN_POINT('',(9.,3.340658617698,100.));
#26 = SURFACE_CURVE('',#27,(#32,#44),.PCURVE_S1.);
#27 = CIRCLE('',#28,9.6);
#28 = AXIS2_PLACEMENT_3D('',#29,#30,#31);
#29 = CARTESIAN_POINT('',(0.,0.,100.));
#30 = DIRECTION('',(0.,0.,1.));
#31 = DIRECTION('',(0.9375,-0.347985272677,0.));
#32 = PCURVE('',#33,#38);
#33 = CYLINDRICAL_SURFACE('',#34,9.6);
#34 = AXIS2_PLACEMENT_3D('',#35,#36,#37);
#35 = CARTESIAN_POINT('',(0.,0.,100.));
#36 = DIRECTION('',(0.,0.,1.));
#37 = DIRECTION('',(1.,0.,0.));
#38 = DEFINITIONAL_REPRESENTATION('',(#39),#43);
#39 = LINE('',#40,#41);
#40 = CARTESIAN_POINT('',(5.927764105489,0.));
#41 = VECTOR('',#42,1.);
#42 = DIRECTION('',(1.,0.));
#43 = ( GEOMETRIC_REPRESENTATION_CONTEXT(2)
PARAMETRIC_REPRESENTATION_CONTEXT() REPRESENTATION_CONTEXT('2D SPACE',''
  ) );
#44 = PCURVE('',#45,#50);
#45 = PLANE('',#46);
#46 = AXIS2_PLACEMENT_3D('',#47,#48,#49);
#47 = CARTESIAN_POINT('',(0.,0.,100.));
#48 = DIRECTION('',(0.,0.,1.));
#49 = DIRECTION('',(1.,0.,0.));
#50 = DEFINITIONAL_REPRESENTATION('',(#51),#55);
#51 = CIRCLE('',#52,9.6);
#52 = AXIS2_PLACEMENT_2D('',#53,#54);
#53 = CARTESIAN_POINT('',(0.,0.));
#54 = DIRECTION('',(0.9375,-0.347985272677));
#55 = ( GEOMETRIC_REPRESENTATION_CONTEXT(2)
PARAMETRIC_REPRESENTATION_CONTEXT() REPRESENTATION_CONTEXT('2D SPACE',''
  ) );
#56 = ORIENTED_EDGE('',*,*,#57,.T.);
#57 = EDGE_CURVE('',#24,#58,#60,.T.);
#58 = VERTEX_POINT('',#59);
#59 = CARTESIAN_POINT('',(9.,3.340658617698,106.));
#60 = SURFACE_CURVE('',#61,(#65,#71),.PCURVE_S1.);
#61 = LINE('',#62,#63);
#62 = CARTESIAN_POINT('',(9.,3.340658617698,100.));
#63 = VECTOR('',#64,1.);
#64 = DIRECTION('',(0.,0.,1.));
#65 = PCURVE('',#33,#66);
#66 = DEFINITIONAL_REPRESENTATION('',(#67),#70);
#67 = B_SPLINE_CURVE_WITH_KNOTS('',1,(#68,#69),.UNSPECIFIED.,.F.,.F.,(2,
    2),(0.,6.),.PIECEWISE_BEZIER_KNOTS.);
#68 = CARTESIAN_POINT('',(6.63860650887,0.));
#69 = CARTESIAN_POINT('',(6.63860650887,6.));
#70 = ( GEOMETRIC_REPRESENTATION_CONTEXT(2)
PARAMETRIC_REPRESENTATION_CONTEXT() REPRESENTATION_CONTEXT('2D SPACE',''
  ) );
#71 = PCURVE('',#72,#77);
#72 = PLANE('',#73);
#73 = AXIS2_PLACEMENT_3D('',#74,#75,#76);
#74 = CARTESIAN_POINT('',(9.,-4.8,100.));
#75 = DIRECTION('',(1.,0.,0.));
#76 = DIRECTION('',(0.,0.,1.));
#77 = DEFINITIONAL_REPRESENTATION('',(#78),#81);
#78 = B_SPLINE_CURVE_WITH_KNOTS('',1,(#79,#80),.UNSPECIFIED.,.F.,.F.,(2,
    2),(-6.000000070117E-07,6.0000006),.PIECEWISE_BEZIER_KNOTS.);
#79 = CARTESIAN_POINT('',(-6.000000070117E-07,-8.140658617698));
#80 = CARTESIAN_POINT('',(6.0000006,-8.140658617698));
#81 = ( GEOMETRIC_REPRESENTATION_CONTEXT(2)
PARAMETRIC_REPRESENTATION_CONTEXT() REPRESENTATION_CONTEXT('2D SPACE',''
  ) );
#82 = ORIENTED_EDGE('',*,*,#83,.T.);
#83 = EDGE_CURVE('',#58,#84,#86,.T.);
#84 = VERTEX_POINT('',#85);
#85 = CARTESIAN_POINT('',(9.,-3.340658617698,106.));
#86 = SURFACE_CURVE('',#87,(#92,#99),.PCURVE_S1.);
#87 = CIRCLE('',#88,9.6);
#88 = AXIS2_PLACEMENT_3D('',#89,#90,#91);
#89 = CARTESIAN_POINT('',(0.,0.,106.));
#90 = DIRECTION('',(0.,0.,-1.));
#91 = DIRECTION('',(0.9375,0.347985272677,0.));
#92 = PCURVE('',#33,#93);
#93 = DEFINITIONAL_REPRESENTATION('',(#94),#98);
#94 = LINE('',#95,#96);
#95 = CARTESIAN_POINT('',(6.63860650887,6.));
#96 = VECTOR('',#97,1.);
#97 = DIRECTION('',(-1.,-0.));
#98 = ( GEOMETRIC_REPRESENTATION_CONTEXT(2)
PARAMETRIC_REPRESENTATION_CONTEXT() REPRESENTATION_CONTEXT('2D SPACE',''
  ) );
#99 = PCURVE('',#100,#105);
#100 = PLANE('',#101);
#101 = AXIS2_PLACEMENT_3D('',#102,#103,#104);
#102 = CARTESIAN_POINT('',(0.,0.,106.));
#103 = DIRECTION('',(0.,0.,1.));
#104 = DIRECTION('',(1.,0.,0.));
#105 = DEFINITIONAL_REPRESENTATION('',(#106),#114);
#106 = ( BOUNDED_CURVE() B_SPLINE_CURVE(2,(#107,#108,#109,#110,#111,#112
,#113),.UNSPECIFIED.,.T.,.F.) B_SPLINE_CURVE_WITH_KNOTS((1,2,2,2,2,1),(
    -2.094395102393,0.,2.094395102393,4.188790204786,6.28318530718,
8.377580409573),.UNSPECIFIED.) CURVE() GEOMETRIC_REPRESENTATION_ITEM()
RATIONAL_B_SPLINE_CURVE((1.,0.5,1.,0.5,1.,0.5,1.)) REPRESENTATION_ITEM(
  '') );
#107 = CARTESIAN_POINT('',(9.,3.340658617698));
#108 = CARTESIAN_POINT('',(14.786190456595,-12.24779865042));
#109 = CARTESIAN_POINT('',(-1.606904771702,-9.464557942909));
#110 = CARTESIAN_POINT('',(-18.,-6.681317235395));
#111 = CARTESIAN_POINT('',(-7.393095228298,6.123899325211));
#112 = CARTESIAN_POINT('',(3.213809543405,18.929115885818));
#113 = CARTESIAN_POINT('',(9.,3.340658617698));
#114 = ( GEOMETRIC_REPRESENTATION_CONTEXT(2)
PARAMETRIC_REPRESENTATION_CONTEXT() REPRESENTATION_CONTEXT('2D SPACE',''
  ) );
#115 = ORIENTED_EDGE('',*,*,#116,.F.);
#116 = EDGE_CURVE('',#22,#84,#117,.T.);
#117 = SURFACE_CURVE('',#118,(#122,#128),.PCURVE_S1.);
#118 = LINE('',#119,#120);
#119 = CARTESIAN_POINT('',(9.,-3.340658617698,100.));
#120 = VECTOR('',#121,1.);
#121 = DIRECTION('',(0.,0.,1.));
#122 = PCURVE('',#33,#123);
#123 = DEFINITIONAL_REPRESENTATION('',(#124),#127);
#124 = B_SPLINE_CURVE_WITH_KNOTS('',1,(#125,#126),.UNSPECIFIED.,.F.,.F.,
  (2,2),(0.,6.),.PIECEWISE_BEZIER_KNOTS.);
#125 = CARTESIAN_POINT('',(5.927764105489,0.));
#126 = CARTESIAN_POINT('',(5.927764105489,6.));
#127 = ( GEOMETRIC_REPRESENTATION_CONTEXT(2)
PARAMETRIC_REPRESENTATION_CONTEXT() REPRESENTATION_CONTEXT('2D SPACE',''
  ) );
#128 = PCURVE('',#72,#129);
#129 = DEFINITIONAL_REPRESENTATION('',(#130),#133);
#130 = B_SPLINE_CURVE_WITH_KNOTS('',1,(#131,#132),.UNSPECIFIED.,.F.,.F.,
  (2,2),(-6.000000070117E-07,6.0000006),.PIECEWISE_BEZIER_KNOTS.);
#131 = CARTESIAN_POINT('',(-6.000000070117E-07,-1.459341382302));
#132 = CARTESIAN_POINT('',(6.0000006,-1.459341382302));
#133 = ( GEOMETRIC_REPRESENTATION_CONTEXT(2)
PARAMETRIC_REPRESENTATION_CONTEXT() REPRESENTATION_CONTEXT('2D SPACE',''
  ) );
#134 = ADVANCED_FACE('',(#135),#100,.T.);
#135 = FACE_BOUND('',#136,.T.);
#136 = EDGE_LOOP('',(#137,#158));
#137 = ORIENTED_EDGE('',*,*,#138,.F.);
#138 = EDGE_CURVE('',#84,#58,#139,.T.);
#139 = SURFACE_CURVE('',#140,(#144,#151),.PCURVE_S1.);
#140 = LINE('',#141,#142);
#141 = CARTESIAN_POINT('',(9.,-4.8,106.));
#142 = VECTOR('',#143,1.);
#143 = DIRECTION('',(0.,1.,0.));
#144 = PCURVE('',#100,#145);
#145 = DEFINITIONAL_REPRESENTATION('',(#146),#150);
#146 = LINE('',#147,#148);
#147 = CARTESIAN_POINT('',(9.,-4.8));
#148 = VECTOR('',#149,1.);
#149 = DIRECTION('',(0.,1.));
#150 = ( GEOMETRIC_REPRESENTATION_CONTEXT(2)
PARAMETRIC_REPRESENTATION_CONTEXT() REPRESENTATION_CONTEXT('2D SPACE',''
  ) );
#151 = PCURVE('',#72,#152);
#152 = DEFINITIONAL_REPRESENTATION('',(#153),#157);
#153 = LINE('',#154,#155);
#154 = CARTESIAN_POINT('',(6.,0.));
#155 = VECTOR('',#156,1.);
#156 = DIRECTION('',(0.,-1.));
#157 = ( GEOMETRIC_REPRESENTATION_CONTEXT(2)
PARAMETRIC_REPRESENTATION_CONTEXT() REPRESENTATION_CONTEXT('2D SPACE',''
  ) );
#158 = ORIENTED_EDGE('',*,*,#83,.F.);
#159 = ADVANCED_FACE('',(#160),#72,.F.);
#160 = FACE_BOUND('',#161,.F.);
#161 = EDGE_LOOP('',(#162,#163,#164,#185));
#162 = ORIENTED_EDGE('',*,*,#138,.F.);
#163 = ORIENTED_EDGE('',*,*,#116,.F.);
#164 = ORIENTED_EDGE('',*,*,#165,.T.);
#165 = EDGE_CURVE('',#22,#24,#166,.T.);
#166 = SURFACE_CURVE('',#167,(#171,#178),.PCURVE_S1.);
#167 = LINE('',#168,#169);
#168 = CARTESIAN_POINT('',(9.,-4.8,100.));
#169 = VECTOR('',#170,1.);
#170 = DIRECTION('',(0.,1.,0.));
#171 = PCURVE('',#72,#172);
#172 = DEFINITIONAL_REPRESENTATION('',(#173),#177);
#173 = LINE('',#174,#175);
#174 = CARTESIAN_POINT('',(0.,0.));
#175 = VECTOR('',#176,1.);
#176 = DIRECTION('',(0.,-1.));
#177 = ( GEOMETRIC_REPRESENTATION_CONTEXT(2)
PARAMETRIC_REPRESENTATION_CONTEXT() REPRESENTATION_CONTEXT('2D SPACE',''
  ) );
#178 = PCURVE('',#45,#179);
#179 = DEFINITIONAL_REPRESENTATION('',(#180),#184);
#180 = LINE('',#181,#182);
#181 = CARTESIAN_POINT('',(9.,-4.8));
#182 = VECTOR('',#183,1.);
#183 = DIRECTION('',(0.,1.));
#184 = ( GEOMETRIC_REPRESENTATION_CONTEXT(2)
PARAMETRIC_REPRESENTATION_CONTEXT() REPRESENTATION_CONTEXT('2D SPACE',''
  ) );
#185 = ORIENTED_EDGE('',*,*,#57,.T.);
#186 = ADVANCED_FACE('',(#187),#45,.F.);
#187 = FACE_BOUND('',#188,.F.);
#188 = EDGE_LOOP('',(#189,#190));
#189 = ORIENTED_EDGE('',*,*,#21,.T.);
#190 = ORIENTED_EDGE('',*,*,#165,.F.);
#191 = MANIFOLD_SOLID_BREP('',#192);
#192 = CLOSED_SHELL('',(#193,#306,#331,#356));
#193 = ADVANCED_FACE('',(#194),#208,.T.);
#194 = FACE_BOUND('',#195,.T.);
#195 = EDGE_LOOP('',(#196,#229,#258,#279));
#196 = ORIENTED_EDGE('',*,*,#197,.T.);
#197 = EDGE_CURVE('',#198,#200,#202,.T.);
#198 = VERTEX_POINT('',#199);
#199 = CARTESIAN_POINT('',(8.31384387633,-4.8,100.));
#200 = VERTEX_POINT('',#201);
#201 = CARTESIAN_POINT('',(8.31384387633,-4.8,106.));
#202 = SURFACE_CURVE('',#203,(#207,#218),.PCURVE_S1.);
#203 = LINE('',#204,#205);
#204 = CARTESIAN_POINT('',(8.313843876331,-4.8,100.));
#205 = VECTOR('',#206,1.);
#206 = DIRECTION('',(0.,0.,1.));
#207 = PCURVE('',#208,#213);
#208 = CYLINDRICAL_SURFACE('',#209,9.6);
#209 = AXIS2_PLACEMENT_3D('',#210,#211,#212);
#210 = CARTESIAN_POINT('',(0.,0.,100.));
#211 = DIRECTION('',(0.,0.,1.));
#212 = DIRECTION('',(1.,0.,0.));
#213 = DEFINITIONAL_REPRESENTATION('',(#214),#217);
#214 = B_SPLINE_CURVE_WITH_KNOTS('',1,(#215,#216),.UNSPECIFIED.,.F.,.F.,
  (2,2),(-6.000000070117E-07,6.0000006),.PIECEWISE_BEZIER_KNOTS.);
#215 = CARTESIAN_POINT('',(5.759586531581,-6.000000070117E-07));
#216 = CARTESIAN_POINT('',(5.759586531581,6.0000006));
#217 = ( GEOMETRIC_REPRESENTATION_CONTEXT(2)
PARAMETRIC_REPRESENTATION_CONTEXT() REPRESENTATION_CONTEXT('2D SPACE',''
  ) );
#218 = PCURVE('',#219,#224);
#219 = PLANE('',#220);
#220 = AXIS2_PLACEMENT_3D('',#221,#222,#223);
#221 = CARTESIAN_POINT('',(-9.,-4.8,100.));
#222 = DIRECTION('',(0.,1.,0.));
#223 = DIRECTION('',(0.,0.,1.));
#224 = DEFINITIONAL_REPRESENTATION('',(#225),#228);
#225 = B_SPLINE_CURVE_WITH_KNOTS('',1,(#226,#227),.UNSPECIFIED.,.F.,.F.,
  (2,2),(-6.000000070117E-07,6.0000006),.PIECEWISE_BEZIER_KNOTS.);
#226 = CARTESIAN_POINT('',(-6.000000070117E-07,17.313843876331));
#227 = CARTESIAN_POINT('',(6.0000006,17.313843876331));
#228 = ( GEOMETRIC_REPRESENTATION_CONTEXT(2)
PARAMETRIC_REPRESENTATION_CONTEXT() REPRESENTATION_CONTEXT('2D SPACE',''
  ) );
#229 = ORIENTED_EDGE('',*,*,#230,.F.);
#230 = EDGE_CURVE('',#231,#200,#233,.T.);
#231 = VERTEX_POINT('',#232);
#232 = CARTESIAN_POINT('',(-8.313843876331,-4.8,106.));
#233 = SURFACE_CURVE('',#234,(#239,#246),.PCURVE_S1.);
#234 = CIRCLE('',#235,9.6);
#235 = AXIS2_PLACEMENT_3D('',#236,#237,#238);
#236 = CARTESIAN_POINT('',(0.,0.,106.));
#237 = DIRECTION('',(0.,0.,1.));
#238 = DIRECTION('',(1.,0.,0.));
#239 = PCURVE('',#208,#240);
#240 = DEFINITIONAL_REPRESENTATION('',(#241),#245);
#241 = LINE('',#242,#243);
#242 = CARTESIAN_POINT('',(0.,6.));
#243 = VECTOR('',#244,1.);
#244 = DIRECTION('',(1.,0.));
#245 = ( GEOMETRIC_REPRESENTATION_CONTEXT(2)
PARAMETRIC_REPRESENTATION_CONTEXT() REPRESENTATION_CONTEXT('2D SPACE',''
  ) );
#246 = PCURVE('',#247,#252);
#247 = PLANE('',#248);
#248 = AXIS2_PLACEMENT_3D('',#249,#250,#251);
#249 = CARTESIAN_POINT('',(0.,0.,106.));
#250 = DIRECTION('',(0.,0.,1.));
#251 = DIRECTION('',(1.,0.,0.));
#252 = DEFINITIONAL_REPRESENTATION('',(#253),#257);
#253 = CIRCLE('',#254,9.6);
#254 = AXIS2_PLACEMENT_2D('',#255,#256);
#255 = CARTESIAN_POINT('',(0.,0.));
#256 = DIRECTION('',(1.,0.));
#257 = ( GEOMETRIC_REPRESENTATION_CONTEXT(2)
PARAMETRIC_REPRESENTATION_CONTEXT() REPRESENTATION_CONTEXT('2D SPACE',''
  ) );
#258 = ORIENTED_EDGE('',*,*,#259,.F.);
#259 = EDGE_CURVE('',#260,#231,#262,.T.);
#260 = VERTEX_POINT('',#261);
#261 = CARTESIAN_POINT('',(-8.313843876331,-4.8,100.));
#262 = SURFACE_CURVE('',#263,(#267,#273),.PCURVE_S1.);
#263 = LINE('',#264,#265);
#264 = CARTESIAN_POINT('',(-8.313843876331,-4.8,100.));
#265 = VECTOR('',#266,1.);
#266 = DIRECTION('',(0.,0.,1.));
#267 = PCURVE('',#208,#268);
#268 = DEFINITIONAL_REPRESENTATION('',(#269),#272);
#269 = B_SPLINE_CURVE_WITH_KNOTS('',1,(#270,#271),.UNSPECIFIED.,.F.,.F.,
  (2,2),(-6.000000070117E-07,6.0000006),.PIECEWISE_BEZIER_KNOTS.);
#270 = CARTESIAN_POINT('',(3.665191429188,-6.000000070117E-07));
#271 = CARTESIAN_POINT('',(3.665191429188,6.0000006));
#272 = ( GEOMETRIC_REPRESENTATION_CONTEXT(2)
PARAMETRIC_REPRESENTATION_CONTEXT() REPRESENTATION_CONTEXT('2D SPACE',''
  ) );
#273 = PCURVE('',#219,#274);
#274 = DEFINITIONAL_REPRESENTATION('',(#275),#278);
#275 = B_SPLINE_CURVE_WITH_KNOTS('',1,(#276,#277),.UNSPECIFIED.,.F.,.F.,
  (2,2),(-6.000000070117E-07,6.0000006),.PIECEWISE_BEZIER_KNOTS.);
#276 = CARTESIAN_POINT('',(-6.000000070117E-07,0.686156123669));
#277 = CARTESIAN_POINT('',(6.0000006,0.686156123669));
#278 = ( GEOMETRIC_REPRESENTATION_CONTEXT(2)
PARAMETRIC_REPRESENTATION_CONTEXT() REPRESENTATION_CONTEXT('2D SPACE',''
  ) );
#279 = ORIENTED_EDGE('',*,*,#280,.T.);
#280 = EDGE_CURVE('',#260,#198,#281,.T.);
#281 = SURFACE_CURVE('',#282,(#287,#294),.PCURVE_S1.);
#282 = CIRCLE('',#283,9.6);
#283 = AXIS2_PLACEMENT_3D('',#284,#285,#286);
#284 = CARTESIAN_POINT('',(0.,0.,100.));
#285 = DIRECTION('',(0.,0.,1.));
#286 = DIRECTION('',(1.,0.,0.));
#287 = PCURVE('',#208,#288);
#288 = DEFINITIONAL_REPRESENTATION('',(#289),#293);
#289 = LINE('',#290,#291);
#290 = CARTESIAN_POINT('',(0.,0.));
#291 = VECTOR('',#292,1.);
#292 = DIRECTION('',(1.,0.));
#293 = ( GEOMETRIC_REPRESENTATION_CONTEXT(2)
PARAMETRIC_REPRESENTATION_CONTEXT() REPRESENTATION_CONTEXT('2D SPACE',''
  ) );
#294 = PCURVE('',#295,#300);
#295 = PLANE('',#296);
#296 = AXIS2_PLACEMENT_3D('',#297,#298,#299);
#297 = CARTESIAN_POINT('',(0.,0.,100.));
#298 = DIRECTION('',(0.,0.,1.));
#299 = DIRECTION('',(1.,0.,0.));
#300 = DEFINITIONAL_REPRESENTATION('',(#301),#305);
#301 = CIRCLE('',#302,9.6);
#302 = AXIS2_PLACEMENT_2D('',#303,#304);
#303 = CARTESIAN_POINT('',(0.,0.));
#304 = DIRECTION('',(1.,0.));
#305 = ( GEOMETRIC_REPRESENTATION_CONTEXT(2)
PARAMETRIC_REPRESENTATION_CONTEXT() REPRESENTATION_CONTEXT('2D SPACE',''
  ) );
#306 = ADVANCED_FACE('',(#307),#247,.T.);
#307 = FACE_BOUND('',#308,.T.);
#308 = EDGE_LOOP('',(#309,#310));
#309 = ORIENTED_EDGE('',*,*,#230,.T.);
#310 = ORIENTED_EDGE('',*,*,#311,.F.);
#311 = EDGE_CURVE('',#231,#200,#312,.T.);
#312 = SURFACE_CURVE('',#313,(#317,#324),.PCURVE_S1.);
#313 = LINE('',#314,#315);
#314 = CARTESIAN_POINT('',(-9.,-4.8,106.));
#315 = VECTOR('',#316,1.);
#316 = DIRECTION('',(1.,0.,0.));
#317 = PCURVE('',#247,#318);
#318 = DEFINITIONAL_REPRESENTATION('',(#319),#323);
#319 = LINE('',#320,#321);
#320 = CARTESIAN_POINT('',(-9.,-4.8));
#321 = VECTOR('',#322,1.);
#322 = DIRECTION('',(1.,0.));
#323 = ( GEOMETRIC_REPRESENTATION_CONTEXT(2)
PARAMETRIC_REPRESENTATION_CONTEXT() REPRESENTATION_CONTEXT('2D SPACE',''
  ) );
#324 = PCURVE('',#219,#325);
#325 = DEFINITIONAL_REPRESENTATION('',(#326),#330);
#326 = LINE('',#327,#328);
#327 = CARTESIAN_POINT('',(6.,0.));
#328 = VECTOR('',#329,1.);
#329 = DIRECTION('',(0.,1.));
#330 = ( GEOMETRIC_REPRESENTATION_CONTEXT(2)
PARAMETRIC_REPRESENTATION_CONTEXT() REPRESENTATION_CONTEXT('2D SPACE',''
  ) );
#331 = ADVANCED_FACE('',(#332),#295,.F.);
#332 = FACE_BOUND('',#333,.F.);
#333 = EDGE_LOOP('',(#334,#335));
#334 = ORIENTED_EDGE('',*,*,#280,.T.);
#335 = ORIENTED_EDGE('',*,*,#336,.F.);
#336 = EDGE_CURVE('',#260,#198,#337,.T.);
#337 = SURFACE_CURVE('',#338,(#342,#349),.PCURVE_S1.);
#338 = LINE('',#339,#340);
#339 = CARTESIAN_POINT('',(-9.,-4.8,100.));
#340 = VECTOR('',#341,1.);
#341 = DIRECTION('',(1.,0.,0.));
#342 = PCURVE('',#295,#343);
#343 = DEFINITIONAL_REPRESENTATION('',(#344),#348);
#344 = LINE('',#345,#346);
#345 = CARTESIAN_POINT('',(-9.,-4.8));
#346 = VECTOR('',#347,1.);
#347 = DIRECTION('',(1.,0.));
#348 = ( GEOMETRIC_REPRESENTATION_CONTEXT(2)
PARAMETRIC_REPRESENTATION_CONTEXT() REPRESENTATION_CONTEXT('2D SPACE',''
  ) );
#349 = PCURVE('',#219,#350);
#350 = DEFINITIONAL_REPRESENTATION('',(#351),#355);
#351 = LINE('',#352,#353);
#352 = CARTESIAN_POINT('',(0.,0.));
#353 = VECTOR('',#354,1.);
#354 = DIRECTION('',(0.,1.));
#355 = ( GEOMETRIC_REPRESENTATION_CONTEXT(2)
PARAMETRIC_REPRESENTATION_CONTEXT() REPRESENTATION_CONTEXT('2D SPACE',''
  ) );
#356 = ADVANCED_FACE('',(#357),#219,.T.);
#357 = FACE_BOUND('',#358,.T.);
#358 = EDGE_LOOP('',(#359,#360,#361,#362));
#359 = ORIENTED_EDGE('',*,*,#336,.F.);
#360 = ORIENTED_EDGE('',*,*,#259,.T.);
#361 = ORIENTED_EDGE('',*,*,#311,.T.);
#362 = ORIENTED_EDGE('',*,*,#197,.F.);
#363 = MANIFOLD_SOLID_BREP('',#364);
#364 = CLOSED_SHELL('',(#365,#478,#503,#530));
#365 = ADVANCED_FACE('',(#366),#381,.T.);
#366 = FACE_BOUND('',#367,.T.);
#367 = EDGE_LOOP('',(#368,#404,#430,#459));
#368 = ORIENTED_EDGE('',*,*,#369,.F.);
#369 = EDGE_CURVE('',#370,#372,#374,.T.);
#370 = VERTEX_POINT('',#371);
#371 = CARTESIAN_POINT('',(8.31384387633,4.8,106.));
#372 = VERTEX_POINT('',#373);
#373 = CARTESIAN_POINT('',(-8.313843876331,4.8,106.));
#374 = SURFACE_CURVE('',#375,(#380,#392),.PCURVE_S1.);
#375 = CIRCLE('',#376,9.6);
#376 = AXIS2_PLACEMENT_3D('',#377,#378,#379);
#377 = CARTESIAN_POINT('',(0.,0.,106.));
#378 = DIRECTION('',(0.,0.,1.));
#379 = DIRECTION('',(1.,0.,0.));
#380 = PCURVE('',#381,#386);
#381 = CYLINDRICAL_SURFACE('',#382,9.6);
#382 = AXIS2_PLACEMENT_3D('',#383,#384,#385);
#383 = CARTESIAN_POINT('',(0.,0.,100.));
#384 = DIRECTION('',(0.,0.,1.));
#385 = DIRECTION('',(1.,0.,0.));
#386 = DEFINITIONAL_REPRESENTATION('',(#387),#391);
#387 = LINE('',#388,#389);
#388 = CARTESIAN_POINT('',(0.,6.));
#389 = VECTOR('',#390,1.);
#390 = DIRECTION('',(1.,0.));
#391 = ( GEOMETRIC_REPRESENTATION_CONTEXT(2)
PARAMETRIC_REPRESENTATION_CONTEXT() REPRESENTATION_CONTEXT('2D SPACE',''
  ) );
#392 = PCURVE('',#393,#398);
#393 = PLANE('',#394);
#394 = AXIS2_PLACEMENT_3D('',#395,#396,#397);
#395 = CARTESIAN_POINT('',(0.,0.,106.));
#396 = DIRECTION('',(0.,0.,1.));
#397 = DIRECTION('',(1.,0.,0.));
#398 = DEFINITIONAL_REPRESENTATION('',(#399),#403);
#399 = CIRCLE('',#400,9.6);
#400 = AXIS2_PLACEMENT_2D('',#401,#402);
#401 = CARTESIAN_POINT('',(0.,0.));
#402 = DIRECTION('',(1.,0.));
#403 = ( GEOMETRIC_REPRESENTATION_CONTEXT(2)
PARAMETRIC_REPRESENTATION_CONTEXT() REPRESENTATION_CONTEXT('2D SPACE',''
  ) );
#404 = ORIENTED_EDGE('',*,*,#405,.F.);
#405 = EDGE_CURVE('',#406,#370,#408,.T.);
#406 = VERTEX_POINT('',#407);
#407 = CARTESIAN_POINT('',(8.31384387633,4.8,100.));
#408 = SURFACE_CURVE('',#409,(#413,#419),.PCURVE_S1.);
#409 = LINE('',#410,#411);
#410 = CARTESIAN_POINT('',(8.313843876331,4.8,100.));
#411 = VECTOR('',#412,1.);
#412 = DIRECTION('',(0.,0.,1.));
#413 = PCURVE('',#381,#414);
#414 = DEFINITIONAL_REPRESENTATION('',(#415),#418);
#415 = B_SPLINE_CURVE_WITH_KNOTS('',1,(#416,#417),.UNSPECIFIED.,.F.,.F.,
  (2,2),(-6.000000070117E-07,6.0000006),.PIECEWISE_BEZIER_KNOTS.);
#416 = CARTESIAN_POINT('',(0.523598775598,-6.000000070117E-07));
#417 = CARTESIAN_POINT('',(0.523598775598,6.0000006));
#418 = ( GEOMETRIC_REPRESENTATION_CONTEXT(2)
PARAMETRIC_REPRESENTATION_CONTEXT() REPRESENTATION_CONTEXT('2D SPACE',''
  ) );
#419 = PCURVE('',#420,#425);
#420 = PLANE('',#421);
#421 = AXIS2_PLACEMENT_3D('',#422,#423,#424);
#422 = CARTESIAN_POINT('',(-9.,4.8,100.));
#423 = DIRECTION('',(0.,1.,0.));
#424 = DIRECTION('',(0.,0.,1.));
#425 = DEFINITIONAL_REPRESENTATION('',(#426),#429);
#426 = B_SPLINE_CURVE_WITH_KNOTS('',1,(#427,#428),.UNSPECIFIED.,.F.,.F.,
  (2,2),(-6.000000070117E-07,6.0000006),.PIECEWISE_BEZIER_KNOTS.);
#427 = CARTESIAN_POINT('',(-6.000000070117E-07,17.313843876331));
#428 = CARTESIAN_POINT('',(6.0000006,17.313843876331));
#429 = ( GEOMETRIC_REPRESENTATION_CONTEXT(2)
PARAMETRIC_REPRESENTATION_CONTEXT() REPRESENTATION_CONTEXT('2D SPACE',''
  ) );
#430 = ORIENTED_EDGE('',*,*,#431,.T.);
#431 = EDGE_CURVE('',#406,#432,#434,.T.);
#432 = VERTEX_POINT('',#433);
#433 = CARTESIAN_POINT('',(-8.313843876331,4.8,100.));
#434 = SURFACE_CURVE('',#435,(#440,#447),.PCURVE_S1.);
#435 = CIRCLE('',#436,9.6);
#436 = AXIS2_PLACEMENT_3D('',#437,#438,#439);
#437 = CARTESIAN_POINT('',(0.,0.,100.));
#438 = DIRECTION('',(0.,0.,1.));
#439 = DIRECTION('',(1.,0.,0.));
#440 = PCURVE('',#381,#441);
#441 = DEFINITIONAL_REPRESENTATION('',(#442),#446);
#442 = LINE('',#443,#444);
#443 = CARTESIAN_POINT('',(0.,0.));
#444 = VECTOR('',#445,1.);
#445 = DIRECTION('',(1.,0.));
#446 = ( GEOMETRIC_REPRESENTATION_CONTEXT(2)
PARAMETRIC_REPRESENTATION_CONTEXT() REPRESENTATION_CONTEXT('2D SPACE',''
  ) );
#447 = PCURVE('',#448,#453);
#448 = PLANE('',#449);
#449 = AXIS2_PLACEMENT_3D('',#450,#451,#452);
#450 = CARTESIAN_POINT('',(0.,0.,100.));
#451 = DIRECTION('',(0.,0.,1.));
#452 = DIRECTION('',(1.,0.,0.));
#453 = DEFINITIONAL_REPRESENTATION('',(#454),#458);
#454 = CIRCLE('',#455,9.6);
#455 = AXIS2_PLACEMENT_2D('',#456,#457);
#456 = CARTESIAN_POINT('',(0.,0.));
#457 = DIRECTION('',(1.,0.));
#458 = ( GEOMETRIC_REPRESENTATION_CONTEXT(2)
PARAMETRIC_REPRESENTATION_CONTEXT() REPRESENTATION_CONTEXT('2D SPACE',''
  ) );
#459 = ORIENTED_EDGE('',*,*,#460,.T.);
#460 = EDGE_CURVE('',#432,#372,#461,.T.);
#461 = SURFACE_CURVE('',#462,(#466,#472),.PCURVE_S1.);
#462 = LINE('',#463,#464);
#463 = CARTESIAN_POINT('',(-8.313843876331,4.8,100.));
#464 = VECTOR('',#465,1.);
#465 = DIRECTION('',(0.,0.,1.));
#466 = PCURVE('',#381,#467);
#467 = DEFINITIONAL_REPRESENTATION('',(#468),#471);
#468 = B_SPLINE_CURVE_WITH_KNOTS('',1,(#469,#470),.UNSPECIFIED.,.F.,.F.,
  (2,2),(-6.000000070117E-07,6.0000006),.PIECEWISE_BEZIER_KNOTS.);
#469 = CARTESIAN_POINT('',(2.617993877991,-6.000000070117E-07));
#470 = CARTESIAN_POINT('',(2.617993877991,6.0000006));
#471 = ( GEOMETRIC_REPRESENTATION_CONTEXT(2)
PARAMETRIC_REPRESENTATION_CONTEXT() REPRESENTATION_CONTEXT('2D SPACE',''
  ) );
#472 = PCURVE('',#420,#473);
#473 = DEFINITIONAL_REPRESENTATION('',(#474),#477);
#474 = B_SPLINE_CURVE_WITH_KNOTS('',1,(#475,#476),.UNSPECIFIED.,.F.,.F.,
  (2,2),(-6.000000070117E-07,6.0000006),.PIECEWISE_BEZIER_KNOTS.);
#475 = CARTESIAN_POINT('',(-6.000000070117E-07,0.686156123669));
#476 = CARTESIAN_POINT('',(6.0000006,0.686156123669));
#477 = ( GEOMETRIC_REPRESENTATION_CONTEXT(2)
PARAMETRIC_REPRESENTATION_CONTEXT() REPRESENTATION_CONTEXT('2D SPACE',''
  ) );
#478 = ADVANCED_FACE('',(#479),#448,.F.);
#479 = FACE_BOUND('',#480,.F.);
#480 = EDGE_LOOP('',(#481,#502));
#481 = ORIENTED_EDGE('',*,*,#482,.T.);
#482 = EDGE_CURVE('',#432,#406,#483,.T.);
#483 = SURFACE_CURVE('',#484,(#488,#495),.PCURVE_S1.);
#484 = LINE('',#485,#486);
#485 = CARTESIAN_POINT('',(-9.,4.8,100.));
#486 = VECTOR('',#487,1.);
#487 = DIRECTION('',(1.,0.,0.));
#488 = PCURVE('',#448,#489);
#489 = DEFINITIONAL_REPRESENTATION('',(#490),#494);
#490 = LINE('',#491,#492);
#491 = CARTESIAN_POINT('',(-9.,4.8));
#492 = VECTOR('',#493,1.);
#493 = DIRECTION('',(1.,0.));
#494 = ( GEOMETRIC_REPRESENTATION_CONTEXT(2)
PARAMETRIC_REPRESENTATION_CONTEXT() REPRESENTATION_CONTEXT('2D SPACE',''
  ) );
#495 = PCURVE('',#420,#496);
#496 = DEFINITIONAL_REPRESENTATION('',(#497),#501);
#497 = LINE('',#498,#499);
#498 = CARTESIAN_POINT('',(0.,0.));
#499 = VECTOR('',#500,1.);
#500 = DIRECTION('',(0.,1.));
#501 = ( GEOMETRIC_REPRESENTATION_CONTEXT(2)
PARAMETRIC_REPRESENTATION_CONTEXT() REPRESENTATION_CONTEXT('2D SPACE',''
  ) );
#502 = ORIENTED_EDGE('',*,*,#431,.T.);
#503 = ADVANCED_FACE('',(#504),#420,.F.);
#504 = FACE_BOUND('',#505,.F.);
#505 = EDGE_LOOP('',(#506,#507,#508,#529));
#506 = ORIENTED_EDGE('',*,*,#482,.F.);
#507 = ORIENTED_EDGE('',*,*,#460,.T.);
#508 = ORIENTED_EDGE('',*,*,#509,.T.);
#509 = EDGE_CURVE('',#372,#370,#510,.T.);
#510 = SURFACE_CURVE('',#511,(#515,#522),.PCURVE_S1.);
#511 = LINE('',#512,#513);
#512 = CARTESIAN_POINT('',(-9.,4.8,106.));
#513 = VECTOR('',#514,1.);
#514 = DIRECTION('',(1.,0.,0.));
#515 = PCURVE('',#420,#516);
#516 = DEFINITIONAL_REPRESENTATION('',(#517),#521);
#517 = LINE('',#518,#519);
#518 = CARTESIAN_POINT('',(6.,0.));
#519 = VECTOR('',#520,1.);
#520 = DIRECTION('',(0.,1.));
#521 = ( GEOMETRIC_REPRESENTATION_CONTEXT(2)
PARAMETRIC_REPRESENTATION_CONTEXT() REPRESENTATION_CONTEXT('2D SPACE',''
  ) );
#522 = PCURVE('',#393,#523);
#523 = DEFINITIONAL_REPRESENTATION('',(#524),#528);
#524 = LINE('',#525,#526);
#525 = CARTESIAN_POINT('',(-9.,4.8));
#526 = VECTOR('',#527,1.);
#527 = DIRECTION('',(1.,0.));
#528 = ( GEOMETRIC_REPRESENTATION_CONTEXT(2)
PARAMETRIC_REPRESENTATION_CONTEXT() REPRESENTATION_CONTEXT('2D SPACE',''
  ) );
#529 = ORIENTED_EDGE('',*,*,#405,.F.);
#530 = ADVANCED_FACE('',(#531),#393,.T.);
#531 = FACE_BOUND('',#532,.T.);
#532 = EDGE_LOOP('',(#533,#534));
#533 = ORIENTED_EDGE('',*,*,#509,.T.);
#534 = ORIENTED_EDGE('',*,*,#369,.T.);
#535 = MANIFOLD_SOLID_BREP('',#536);
#536 = CLOSED_SHELL('',(#537,#602,#675,#700));
#537 = ADVANCED_FACE('',(#538),#552,.F.);
#538 = FACE_BOUND('',#539,.F.);
#539 = EDGE_LOOP('',(#540,#575));
#540 = ORIENTED_EDGE('',*,*,#541,.T.);
#541 = EDGE_CURVE('',#542,#544,#546,.T.);
#542 = VERTEX_POINT('',#543);
#543 = CARTESIAN_POINT('',(-9.,-3.340658617698,100.));
#544 = VERTEX_POINT('',#545);
#545 = CARTESIAN_POINT('',(-9.,3.340658617698,100.));
#546 = SURFACE_CURVE('',#547,(#551,#563),.PCURVE_S1.);
#547 = LINE('',#548,#549);
#548 = CARTESIAN_POINT('',(-9.,-4.8,100.));
#549 = VECTOR('',#550,1.);
#550 = DIRECTION('',(0.,1.,0.));
#551 = PCURVE('',#552,#557);
#552 = PLANE('',#553);
#553 = AXIS2_PLACEMENT_3D('',#554,#555,#556);
#554 = CARTESIAN_POINT('',(0.,0.,100.));
#555 = DIRECTION('',(0.,0.,1.));
#556 = DIRECTION('',(1.,0.,0.));
#557 = DEFINITIONAL_REPRESENTATION('',(#558),#562);
#558 = LINE('',#559,#560);
#559 = CARTESIAN_POINT('',(-9.,-4.8));
#560 = VECTOR('',#561,1.);
#561 = DIRECTION('',(0.,1.));
#562 = ( GEOMETRIC_REPRESENTATION_CONTEXT(2)
PARAMETRIC_REPRESENTATION_CONTEXT() REPRESENTATION_CONTEXT('2D SPACE',''
  ) );
#563 = PCURVE('',#564,#569);
#564 = PLANE('',#565);
#565 = AXIS2_PLACEMENT_3D('',#566,#567,#568);
#566 = CARTESIAN_POINT('',(-9.,-4.8,100.));
#567 = DIRECTION('',(1.,0.,0.));
#568 = DIRECTION('',(0.,0.,1.));
#569 = DEFINITIONAL_REPRESENTATION('',(#570),#574);
#570 = LINE('',#571,#572);
#571 = CARTESIAN_POINT('',(0.,0.));
#572 = VECTOR('',#573,1.);
#573 = DIRECTION('',(0.,-1.));
#574 = ( GEOMETRIC_REPRESENTATION_CONTEXT(2)
PARAMETRIC_REPRESENTATION_CONTEXT() REPRESENTATION_CONTEXT('2D SPACE',''
  ) );
#575 = ORIENTED_EDGE('',*,*,#576,.T.);
#576 = EDGE_CURVE('',#544,#542,#577,.T.);
#577 = SURFACE_CURVE('',#578,(#583,#590),.PCURVE_S1.);
#578 = CIRCLE('',#579,9.6);
#579 = AXIS2_PLACEMENT_3D('',#580,#581,#582);
#580 = CARTESIAN_POINT('',(0.,0.,100.));
#581 = DIRECTION('',(0.,0.,1.));
#582 = DIRECTION('',(1.,0.,0.));
#583 = PCURVE('',#552,#584);
#584 = DEFINITIONAL_REPRESENTATION('',(#585),#589);
#585 = CIRCLE('',#586,9.6);
#586 = AXIS2_PLACEMENT_2D('',#587,#588);
#587 = CARTESIAN_POINT('',(0.,0.));
#588 = DIRECTION('',(1.,0.));
#589 = ( GEOMETRIC_REPRESENTATION_CONTEXT(2)
PARAMETRIC_REPRESENTATION_CONTEXT() REPRESENTATION_CONTEXT('2D SPACE',''
  ) );
#590 = PCURVE('',#591,#596);
#591 = CYLINDRICAL_SURFACE('',#592,9.6);
#592 = AXIS2_PLACEMENT_3D('',#593,#594,#595);
#593 = CARTESIAN_POINT('',(0.,0.,100.));
#594 = DIRECTION('',(0.,0.,1.));
#595 = DIRECTION('',(1.,0.,0.));
#596 = DEFINITIONAL_REPRESENTATION('',(#597),#601);
#597 = LINE('',#598,#599);
#598 = CARTESIAN_POINT('',(0.,0.));
#599 = VECTOR('',#600,1.);
#600 = DIRECTION('',(1.,0.));
#601 = ( GEOMETRIC_REPRESENTATION_CONTEXT(2)
PARAMETRIC_REPRESENTATION_CONTEXT() REPRESENTATION_CONTEXT('2D SPACE',''
  ) );
#602 = ADVANCED_FACE('',(#603),#591,.T.);
#603 = FACE_BOUND('',#604,.T.);
#604 = EDGE_LOOP('',(#605,#636,#655,#656));
#605 = ORIENTED_EDGE('',*,*,#606,.F.);
#606 = EDGE_CURVE('',#607,#609,#611,.T.);
#607 = VERTEX_POINT('',#608);
#608 = CARTESIAN_POINT('',(-9.,3.340658617698,106.));
#609 = VERTEX_POINT('',#610);
#610 = CARTESIAN_POINT('',(-9.,-3.340658617698,106.));
#611 = SURFACE_CURVE('',#612,(#617,#624),.PCURVE_S1.);
#612 = CIRCLE('',#613,9.6);
#613 = AXIS2_PLACEMENT_3D('',#614,#615,#616);
#614 = CARTESIAN_POINT('',(0.,0.,106.));
#615 = DIRECTION('',(0.,0.,1.));
#616 = DIRECTION('',(1.,0.,0.));
#617 = PCURVE('',#591,#618);
#618 = DEFINITIONAL_REPRESENTATION('',(#619),#623);
#619 = LINE('',#620,#621);
#620 = CARTESIAN_POINT('',(0.,6.));
#621 = VECTOR('',#622,1.);
#622 = DIRECTION('',(1.,0.));
#623 = ( GEOMETRIC_REPRESENTATION_CONTEXT(2)
PARAMETRIC_REPRESENTATION_CONTEXT() REPRESENTATION_CONTEXT('2D SPACE',''
  ) );
#624 = PCURVE('',#625,#630);
#625 = PLANE('',#626);
#626 = AXIS2_PLACEMENT_3D('',#627,#628,#629);
#627 = CARTESIAN_POINT('',(0.,0.,106.));
#628 = DIRECTION('',(0.,0.,1.));
#629 = DIRECTION('',(1.,0.,0.));
#630 = DEFINITIONAL_REPRESENTATION('',(#631),#635);
#631 = CIRCLE('',#632,9.6);
#632 = AXIS2_PLACEMENT_2D('',#633,#634);
#633 = CARTESIAN_POINT('',(0.,0.));
#634 = DIRECTION('',(1.,0.));
#635 = ( GEOMETRIC_REPRESENTATION_CONTEXT(2)
PARAMETRIC_REPRESENTATION_CONTEXT() REPRESENTATION_CONTEXT('2D SPACE',''
  ) );
#636 = ORIENTED_EDGE('',*,*,#637,.F.);
#637 = EDGE_CURVE('',#544,#607,#638,.T.);
#638 = SURFACE_CURVE('',#639,(#643,#649),.PCURVE_S1.);
#639 = LINE('',#640,#641);
#640 = CARTESIAN_POINT('',(-9.,3.340658617698,100.));
#641 = VECTOR('',#642,1.);
#642 = DIRECTION('',(0.,0.,1.));
#643 = PCURVE('',#591,#644);
#644 = DEFINITIONAL_REPRESENTATION('',(#645),#648);
#645 = B_SPLINE_CURVE_WITH_KNOTS('',1,(#646,#647),.UNSPECIFIED.,.F.,.F.,
  (2,2),(-6.000000070117E-07,6.0000006),.PIECEWISE_BEZIER_KNOTS.);
#646 = CARTESIAN_POINT('',(2.7861714519,-6.000000070117E-07));
#647 = CARTESIAN_POINT('',(2.7861714519,6.0000006));
#648 = ( GEOMETRIC_REPRESENTATION_CONTEXT(2)
PARAMETRIC_REPRESENTATION_CONTEXT() REPRESENTATION_CONTEXT('2D SPACE',''
  ) );
#649 = PCURVE('',#564,#650);
#650 = DEFINITIONAL_REPRESENTATION('',(#651),#654);
#651 = B_SPLINE_CURVE_WITH_KNOTS('',1,(#652,#653),.UNSPECIFIED.,.F.,.F.,
  (2,2),(-6.000000070117E-07,6.0000006),.PIECEWISE_BEZIER_KNOTS.);
#652 = CARTESIAN_POINT('',(-6.000000070117E-07,-8.140658617698));
#653 = CARTESIAN_POINT('',(6.0000006,-8.140658617698));
#654 = ( GEOMETRIC_REPRESENTATION_CONTEXT(2)
PARAMETRIC_REPRESENTATION_CONTEXT() REPRESENTATION_CONTEXT('2D SPACE',''
  ) );
#655 = ORIENTED_EDGE('',*,*,#576,.T.);
#656 = ORIENTED_EDGE('',*,*,#657,.T.);
#657 = EDGE_CURVE('',#542,#609,#658,.T.);
#658 = SURFACE_CURVE('',#659,(#663,#669),.PCURVE_S1.);
#659 = LINE('',#660,#661);
#660 = CARTESIAN_POINT('',(-9.,-3.340658617698,100.));
#661 = VECTOR('',#662,1.);
#662 = DIRECTION('',(0.,0.,1.));
#663 = PCURVE('',#591,#664);
#664 = DEFINITIONAL_REPRESENTATION('',(#665),#668);
#665 = B_SPLINE_CURVE_WITH_KNOTS('',1,(#666,#667),.UNSPECIFIED.,.F.,.F.,
  (2,2),(-6.000000070117E-07,6.0000006),.PIECEWISE_BEZIER_KNOTS.);
#666 = CARTESIAN_POINT('',(3.49701385528,-6.000000070117E-07));
#667 = CARTESIAN_POINT('',(3.49701385528,6.0000006));
#668 = ( GEOMETRIC_REPRESENTATION_CONTEXT(2)
PARAMETRIC_REPRESENTATION_CONTEXT() REPRESENTATION_CONTEXT('2D SPACE',''
  ) );
#669 = PCURVE('',#564,#670);
#670 = DEFINITIONAL_REPRESENTATION('',(#671),#674);
#671 = B_SPLINE_CURVE_WITH_KNOTS('',1,(#672,#673),.UNSPECIFIED.,.F.,.F.,
  (2,2),(-6.000000070117E-07,6.0000006),.PIECEWISE_BEZIER_KNOTS.);
#672 = CARTESIAN_POINT('',(-6.000000070117E-07,-1.459341382302));
#673 = CARTESIAN_POINT('',(6.0000006,-1.459341382302));
#674 = ( GEOMETRIC_REPRESENTATION_CONTEXT(2)
PARAMETRIC_REPRESENTATION_CONTEXT() REPRESENTATION_CONTEXT('2D SPACE',''
  ) );
#675 = ADVANCED_FACE('',(#676),#625,.T.);
#676 = FACE_BOUND('',#677,.T.);
#677 = EDGE_LOOP('',(#678,#699));
#678 = ORIENTED_EDGE('',*,*,#679,.T.);
#679 = EDGE_CURVE('',#609,#607,#680,.T.);
#680 = SURFACE_CURVE('',#681,(#685,#692),.PCURVE_S1.);
#681 = LINE('',#682,#683);
#682 = CARTESIAN_POINT('',(-9.,-4.8,106.));
#683 = VECTOR('',#684,1.);
#684 = DIRECTION('',(0.,1.,0.));
#685 = PCURVE('',#625,#686);
#686 = DEFINITIONAL_REPRESENTATION('',(#687),#691);
#687 = LINE('',#688,#689);
#688 = CARTESIAN_POINT('',(-9.,-4.8));
#689 = VECTOR('',#690,1.);
#690 = DIRECTION('',(0.,1.));
#691 = ( GEOMETRIC_REPRESENTATION_CONTEXT(2)
PARAMETRIC_REPRESENTATION_CONTEXT() REPRESENTATION_CONTEXT('2D SPACE',''
  ) );
#692 = PCURVE('',#564,#693);
#693 = DEFINITIONAL_REPRESENTATION('',(#694),#698);
#694 = LINE('',#695,#696);
#695 = CARTESIAN_POINT('',(6.,0.));
#696 = VECTOR('',#697,1.);
#697 = DIRECTION('',(0.,-1.));
#698 = ( GEOMETRIC_REPRESENTATION_CONTEXT(2)
PARAMETRIC_REPRESENTATION_CONTEXT() REPRESENTATION_CONTEXT('2D SPACE',''
  ) );
#699 = ORIENTED_EDGE('',*,*,#606,.T.);
#700 = ADVANCED_FACE('',(#701),#564,.T.);
#701 = FACE_BOUND('',#702,.T.);
#702 = EDGE_LOOP('',(#703,#704,#705,#706));
#703 = ORIENTED_EDGE('',*,*,#679,.F.);
#704 = ORIENTED_EDGE('',*,*,#657,.F.);
#705 = ORIENTED_EDGE('',*,*,#541,.T.);
#706 = ORIENTED_EDGE('',*,*,#637,.T.);
#707 = MANIFOLD_SOLID_BREP('',#708);
#708 = CLOSED_SHELL('',(#709,#1140,#1144,#1148));
#709 = ADVANCED_FACE('',(#710,#797,#971),#724,.T.);
#710 = FACE_BOUND('',#711,.T.);
#711 = EDGE_LOOP('',(#712,#742,#769,#770));
#712 = ORIENTED_EDGE('',*,*,#713,.T.);
#713 = EDGE_CURVE('',#714,#716,#718,.T.);
#714 = VERTEX_POINT('',#715);
#715 = CARTESIAN_POINT('',(6.,-1.469576158977E-15,-50.));
#716 = VERTEX_POINT('',#717);
#717 = CARTESIAN_POINT('',(6.,-1.469576158977E-15,50.));
#718 = SEAM_CURVE('',#719,(#723,#735),.PCURVE_S1.);
#719 = LINE('',#720,#721);
#720 = CARTESIAN_POINT('',(6.,-1.469576158977E-15,-50.));
#721 = VECTOR('',#722,1.);
#722 = DIRECTION('',(0.,0.,1.));
#723 = PCURVE('',#724,#729);
#724 = CYLINDRICAL_SURFACE('',#725,6.);
#725 = AXIS2_PLACEMENT_3D('',#726,#727,#728);
#726 = CARTESIAN_POINT('',(0.,0.,-50.));
#727 = DIRECTION('',(0.,0.,1.));
#728 = DIRECTION('',(1.,0.,-0.));
#729 = DEFINITIONAL_REPRESENTATION('',(#730),#734);
#730 = LINE('',#731,#732);
#731 = CARTESIAN_POINT('',(6.28318530718,-0.));
#732 = VECTOR('',#733,1.);
#733 = DIRECTION('',(0.,1.));
#734 = ( GEOMETRIC_REPRESENTATION_CONTEXT(2)
PARAMETRIC_REPRESENTATION_CONTEXT() REPRESENTATION_CONTEXT('2D SPACE',''
  ) );
#735 = PCURVE('',#724,#736);
#736 = DEFINITIONAL_REPRESENTATION('',(#737),#741);
#737 = LINE('',#738,#739);
#738 = CARTESIAN_POINT('',(0.,-0.));
#739 = VECTOR('',#740,1.);
#740 = DIRECTION('',(0.,1.));
#741 = ( GEOMETRIC_REPRESENTATION_CONTEXT(2)
PARAMETRIC_REPRESENTATION_CONTEXT() REPRESENTATION_CONTEXT('2D SPACE',''
  ) );
#742 = ORIENTED_EDGE('',*,*,#743,.F.);
#743 = EDGE_CURVE('',#716,#716,#744,.T.);
#744 = SURFACE_CURVE('',#745,(#750,#757),.PCURVE_S1.);
#745 = CIRCLE('',#746,6.);
#746 = AXIS2_PLACEMENT_3D('',#747,#748,#749);
#747 = CARTESIAN_POINT('',(0.,0.,50.));
#748 = DIRECTION('',(0.,0.,1.));
#749 = DIRECTION('',(1.,0.,-0.));
#750 = PCURVE('',#724,#751);
#751 = DEFINITIONAL_REPRESENTATION('',(#752),#756);
#752 = LINE('',#753,#754);
#753 = CARTESIAN_POINT('',(0.,100.));
#754 = VECTOR('',#755,1.);
#755 = DIRECTION('',(1.,0.));
#756 = ( GEOMETRIC_REPRESENTATION_CONTEXT(2)
PARAMETRIC_REPRESENTATION_CONTEXT() REPRESENTATION_CONTEXT('2D SPACE',''
  ) );
#757 = PCURVE('',#758,#763);
#758 = PLANE('',#759);
#759 = AXIS2_PLACEMENT_3D('',#760,#761,#762);
#760 = CARTESIAN_POINT('',(0.,0.,50.));
#761 = DIRECTION('',(0.,0.,1.));
#762 = DIRECTION('',(1.,0.,-0.));
#763 = DEFINITIONAL_REPRESENTATION('',(#764),#768);
#764 = CIRCLE('',#765,6.);
#765 = AXIS2_PLACEMENT_2D('',#766,#767);
#766 = CARTESIAN_POINT('',(0.,0.));
#767 = DIRECTION('',(1.,0.));
#768 = ( GEOMETRIC_REPRESENTATION_CONTEXT(2)
PARAMETRIC_REPRESENTATION_CONTEXT() REPRESENTATION_CONTEXT('2D SPACE',''
  ) );
#769 = ORIENTED_EDGE('',*,*,#713,.F.);
#770 = ORIENTED_EDGE('',*,*,#771,.T.);
#771 = EDGE_CURVE('',#714,#714,#772,.T.);
#772 = SURFACE_CURVE('',#773,(#778,#785),.PCURVE_S1.);
#773 = CIRCLE('',#774,6.);
#774 = AXIS2_PLACEMENT_3D('',#775,#776,#777);
#775 = CARTESIAN_POINT('',(0.,0.,-50.));
#776 = DIRECTION('',(0.,0.,1.));
#777 = DIRECTION('',(1.,0.,-0.));
#778 = PCURVE('',#724,#779);
#779 = DEFINITIONAL_REPRESENTATION('',(#780),#784);
#780 = LINE('',#781,#782);
#781 = CARTESIAN_POINT('',(0.,0.));
#782 = VECTOR('',#783,1.);
#783 = DIRECTION('',(1.,0.));
#784 = ( GEOMETRIC_REPRESENTATION_CONTEXT(2)
PARAMETRIC_REPRESENTATION_CONTEXT() REPRESENTATION_CONTEXT('2D SPACE',''
  ) );
#785 = PCURVE('',#786,#791);
#786 = PLANE('',#787);
#787 = AXIS2_PLACEMENT_3D('',#788,#789,#790);
#788 = CARTESIAN_POINT('',(0.,0.,-50.));
#789 = DIRECTION('',(0.,0.,1.));
#790 = DIRECTION('',(1.,0.,-0.));
#791 = DEFINITIONAL_REPRESENTATION('',(#792),#796);
#792 = CIRCLE('',#793,6.);
#793 = AXIS2_PLACEMENT_2D('',#794,#795);
#794 = CARTESIAN_POINT('',(0.,0.));
#795 = DIRECTION('',(1.,0.));
#796 = ( GEOMETRIC_REPRESENTATION_CONTEXT(2)
PARAMETRIC_REPRESENTATION_CONTEXT() REPRESENTATION_CONTEXT('2D SPACE',''
  ) );
#797 = FACE_BOUND('',#798,.T.);
#798 = EDGE_LOOP('',(#799));
#799 = ORIENTED_EDGE('',*,*,#800,.T.);
#800 = EDGE_CURVE('',#801,#801,#803,.T.);
#801 = VERTEX_POINT('',#802);
#802 = CARTESIAN_POINT('',(1.5,5.809475019311,5.));
#803 = SURFACE_CURVE('',#804,(#856,#911),.PCURVE_S1.);
#804 = B_SPLINE_CURVE_WITH_KNOTS('',8,(#805,#806,#807,#808,#809,#810,
    #811,#812,#813,#814,#815,#816,#817,#818,#819,#820,#821,#822,#823,
    #824,#825,#826,#827,#828,#829,#830,#831,#832,#833,#834,#835,#836,
    #837,#838,#839,#840,#841,#842,#843,#844,#845,#846,#847,#848,#849,
    #850,#851,#852,#853,#854,#855),.UNSPECIFIED.,.T.,.F.,(9,7,7,7,7,7,7,
    9),(0.,0.152312036388,0.287071626637,0.424097539639,0.576946738512,
    0.705322058639,0.829263801124,1.),.UNSPECIFIED.);
#805 = CARTESIAN_POINT('',(1.5,5.809475019311,5.));
#806 = CARTESIAN_POINT('',(1.5,5.809475019311,5.158109207523));
#807 = CARTESIAN_POINT('',(1.480954019575,5.814392605472,5.31602475615)
  );
#808 = CARTESIAN_POINT('',(1.442940596596,5.824207869559,5.472239234566)
  );
#809 = CARTESIAN_POINT('',(1.385712202244,5.838610904574,5.625096775448)
  );
#810 = CARTESIAN_POINT('',(1.308841576486,5.856974376372,5.772636430098)
  );
#811 = CARTESIAN_POINT('',(1.211836742635,5.878273485929,5.912446316004)
  );
#812 = CARTESIAN_POINT('',(1.094291223864,5.901026259488,6.04147791055)
  );
#813 = CARTESIAN_POINT('',(0.833901761561,5.943057997827,6.256890807741)
  );
#814 = CARTESIAN_POINT('',(0.691487864477,5.963088234972,6.349820965126)
  );
#815 = CARTESIAN_POINT('',(0.531112430773,5.981391131099,6.427049827465)
  );
#816 = CARTESIAN_POINT('',(0.356695616919,5.995611337914,6.48309557598)
  );
#817 = CARTESIAN_POINT('',(0.173362891437,6.003739534811,6.514411770847)
  );
#818 = CARTESIAN_POINT('',(-1.31838630238E-02,6.004879348002,
    6.519318053301));
#819 = CARTESIAN_POINT('',(-0.197109637995,5.999351428417,6.498044653881
    ));
#820 = CARTESIAN_POINT('',(-0.551918649794,5.97724931685,6.406945183386)
  );
#821 = CARTESIAN_POINT('',(-0.717181406109,5.960823650795,6.337682801625
    ));
#822 = CARTESIAN_POINT('',(-0.866820807891,5.940830480852,6.24935547905)
  );
#823 = CARTESIAN_POINT('',(-0.99968682506,5.919127585332,6.145657810232)
  );
#824 = CARTESIAN_POINT('',(-1.115182775211,5.897420109356,6.029886758423
    ));
#825 = CARTESIAN_POINT('',(-1.213118726973,5.877111086242,5.905030333416
    ));
#826 = CARTESIAN_POINT('',(-1.293650879729,5.859243050196,5.773803926356
    ));
#827 = CARTESIAN_POINT('',(-1.428173399588,5.82800339291,5.487929019932)
  );
#828 = CARTESIAN_POINT('',(-1.479358556432,5.815080012749,5.329490946577
    ));
#829 = CARTESIAN_POINT('',(-1.510260939994,5.806828114316,5.165997719273
    ));
#830 = CARTESIAN_POINT('',(-1.520591990787,5.803991009535,4.999999999999
    ));
#831 = CARTESIAN_POINT('',(-1.510260939993,5.806828114316,4.834002280726
    ));
#832 = CARTESIAN_POINT('',(-1.479358556432,5.815080012749,4.670509053424
    ));
#833 = CARTESIAN_POINT('',(-1.428173399588,5.82800339291,4.512070980069)
  );
#834 = CARTESIAN_POINT('',(-1.297665365637,5.858310781278,4.234727290457
    ));
#835 = CARTESIAN_POINT('',(-1.223340135477,5.874839432813,4.111810905147
    ));
#836 = CARTESIAN_POINT('',(-1.133923544551,5.893515115968,3.994437886643
    ));
#837 = CARTESIAN_POINT('',(-1.02924106907,5.913519552663,3.884689949004)
  );
#838 = CARTESIAN_POINT('',(-0.90933155637,5.933767803112,3.784899524101)
  );
#839 = CARTESIAN_POINT('',(-0.774507274288,5.952931203166,3.697687095955
    ));
#840 = CARTESIAN_POINT('',(-0.625469975241,5.969520147235,3.626034178001
    ));
#841 = CARTESIAN_POINT('',(-0.307173932144,5.994183577391,3.522613524365
    ));
#842 = CARTESIAN_POINT('',(-0.140815292868,6.002374761526,3.490211755384
    ));
#843 = CARTESIAN_POINT('',(3.115079066798E-02,6.005292366051,
    3.479405213701));
#844 = CARTESIAN_POINT('',(0.203708847038,6.002163346414,3.491499161623)
  );
#845 = CARTESIAN_POINT('',(0.371690908324,5.993218109049,3.526039064661)
  );
#846 = CARTESIAN_POINT('',(0.530232081294,5.979660807428,3.58084171302)
  );
#847 = CARTESIAN_POINT('',(0.675220047888,5.963295827442,3.651946747873)
  );
#848 = CARTESIAN_POINT('',(0.980783378444,5.921991302423,3.845863134066)
  );
#849 = CARTESIAN_POINT('',(1.131560894657,5.895475075358,3.981224976404)
  );
#850 = CARTESIAN_POINT('',(1.255829073756,5.869495305672,4.132918840315)
  );
#851 = CARTESIAN_POINT('',(1.354161077298,5.846526917452,4.296156918353)
  );
#852 = CARTESIAN_POINT('',(1.427255049913,5.828257023854,4.467232627686)
  );
#853 = CARTESIAN_POINT('',(1.475737975752,5.815739583405,4.643189223087)
  );
#854 = CARTESIAN_POINT('',(1.5,5.809475019311,4.821551472605));
#855 = CARTESIAN_POINT('',(1.5,5.809475019311,5.));
#856 = PCURVE('',#724,#857);
#857 = DEFINITIONAL_REPRESENTATION('',(#858),#910);
#858 = B_SPLINE_CURVE_WITH_KNOTS('',8,(#859,#860,#861,#862,#863,#864,
    #865,#866,#867,#868,#869,#870,#871,#872,#873,#874,#875,#876,#877,
    #878,#879,#880,#881,#882,#883,#884,#885,#886,#887,#888,#889,#890,
    #891,#892,#893,#894,#895,#896,#897,#898,#899,#900,#901,#902,#903,
    #904,#905,#906,#907,#908,#909),.UNSPECIFIED.,.T.,.F.,(9,7,7,7,7,7,7,
    9),(0.,0.152312036388,0.287071626637,0.424097539639,0.576946738512,
    0.705322058639,0.829263801124,1.),.UNSPECIFIED.);
#859 = CARTESIAN_POINT('',(1.318116071653,55.));
#860 = CARTESIAN_POINT('',(1.318116071653,55.158109207523));
#861 = CARTESIAN_POINT('',(1.321394514975,55.31602475615));
#862 = CARTESIAN_POINT('',(1.327937828705,55.472239234566));
#863 = CARTESIAN_POINT('',(1.337773209624,55.625096775448));
#864 = CARTESIAN_POINT('',(1.350943299295,55.772636430098));
#865 = CARTESIAN_POINT('',(1.367489267935,55.912446316004));
#866 = CARTESIAN_POINT('',(1.387434121559,56.04147791055));
#867 = CARTESIAN_POINT('',(1.431394122035,56.256890807741));
#868 = CARTESIAN_POINT('',(1.455358429619,56.349820965126));
#869 = CARTESIAN_POINT('',(1.482245709151,56.427049827464));
#870 = CARTESIAN_POINT('',(1.511379396778,56.48309557598));
#871 = CARTESIAN_POINT('',(1.541921019703,56.514411770846));
#872 = CARTESIAN_POINT('',(1.572978975211,56.519318053302));
#873 = CARTESIAN_POINT('',(1.603631223214,56.498044653881));
#874 = CARTESIAN_POINT('',(1.662880681297,56.406945183386));
#875 = CARTESIAN_POINT('',(1.690541365791,56.337682801625));
#876 = CARTESIAN_POINT('',(1.715680923402,56.24935547905));
#877 = CARTESIAN_POINT('',(1.738103668997,56.145657810232));
#878 = CARTESIAN_POINT('',(1.757682887583,56.029886758423));
#879 = CARTESIAN_POINT('',(1.774349958236,55.905030333416));
#880 = CARTESIAN_POINT('',(1.788097752489,55.773803926356));
#881 = CARTESIAN_POINT('',(1.81111478998,55.487929019932));
#882 = CARTESIAN_POINT('',(1.819911725993,55.329490946577));
#883 = CARTESIAN_POINT('',(1.825242550329,55.165997719273));
#884 = CARTESIAN_POINT('',(1.82702842142,54.999999999999));
#885 = CARTESIAN_POINT('',(1.825242550329,54.834002280726));
#886 = CARTESIAN_POINT('',(1.819911725993,54.670509053424));
#887 = CARTESIAN_POINT('',(1.81111478998,54.512070980069));
#888 = CARTESIAN_POINT('',(1.788784638021,54.234727290457));
#889 = CARTESIAN_POINT('',(1.776095024533,54.111810905147));
#890 = CARTESIAN_POINT('',(1.760872921562,53.994437886643));
#891 = CARTESIAN_POINT('',(1.743115594997,53.884689949004));
#892 = CARTESIAN_POINT('',(1.722858783693,53.784899524101));
#893 = CARTESIAN_POINT('',(1.700178172051,53.697687095955));
#894 = CARTESIAN_POINT('',(1.675199280504,53.626034178001));
#895 = CARTESIAN_POINT('',(1.621990922807,53.522613524365));
#896 = CARTESIAN_POINT('',(1.594241812201,53.490211755384));
#897 = CARTESIAN_POINT('',(1.565601921914,53.479405213701));
#898 = CARTESIAN_POINT('',(1.536872475706,53.491499161623));
#899 = CARTESIAN_POINT('',(1.508866504893,53.526039064661));
#900 = CARTESIAN_POINT('',(1.482362728457,53.58084171302));
#901 = CARTESIAN_POINT('',(1.45805056388,53.651946747873));
#902 = CARTESIAN_POINT('',(1.406660170061,53.845863134066));
#903 = CARTESIAN_POINT('',(1.381165078069,53.981224976404));
#904 = CARTESIAN_POINT('',(1.360020063924,54.132918840315));
#905 = CARTESIAN_POINT('',(1.343194430906,54.296156918353));
#906 = CARTESIAN_POINT('',(1.330637870749,54.467232627686));
#907 = CARTESIAN_POINT('',(1.322292352042,54.643189223087));
#908 = CARTESIAN_POINT('',(1.318116071653,54.821551472605));
#909 = CARTESIAN_POINT('',(1.318116071653,55.));
#910 = ( GEOMETRIC_REPRESENTATION_CONTEXT(2)
PARAMETRIC_REPRESENTATION_CONTEXT() REPRESENTATION_CONTEXT('2D SPACE',''
  ) );
#911 = PCURVE('',#912,#917);
#912 = CYLINDRICAL_SURFACE('',#913,1.5);
#913 = AXIS2_PLACEMENT_3D('',#914,#915,#916);
#914 = CARTESIAN_POINT('',(0.,8.5,5.));
#915 = DIRECTION('',(0.,-1.,2.22044604925E-16));
#916 = DIRECTION('',(1.,0.,0.));
#917 = DEFINITIONAL_REPRESENTATION('',(#918),#970);
#918 = B_SPLINE_CURVE_WITH_KNOTS('',8,(#919,#920,#921,#922,#923,#924,
    #925,#926,#927,#928,#929,#930,#931,#932,#933,#934,#935,#936,#937,
    #938,#939,#940,#941,#942,#943,#944,#945,#946,#947,#948,#949,#950,
    #951,#952,#953,#954,#955,#956,#957,#958,#959,#960,#961,#962,#963,
    #964,#965,#966,#967,#968,#969),.UNSPECIFIED.,.F.,.F.,(9,7,7,7,7,7,7,
    9),(0.,0.152312036388,0.287071626637,0.424097539639,0.576946738512,
    0.705322058639,0.829263801124,1.),.UNSPECIFIED.);
#919 = CARTESIAN_POINT('',(0.,2.690524980689));
#920 = CARTESIAN_POINT('',(0.105406138349,2.690524980689));
#921 = CARTESIAN_POINT('',(0.210682901072,2.685607394528));
#922 = CARTESIAN_POINT('',(0.316611299899,2.675792130441));
#923 = CARTESIAN_POINT('',(0.423851103717,2.661389095426));
#924 = CARTESIAN_POINT('',(0.53305588306,2.643025623628));
#925 = CARTESIAN_POINT('',(0.644898302364,2.621726514071));
#926 = CARTESIAN_POINT('',(0.760110693364,2.598973740512));
#927 = CARTESIAN_POINT('',(0.985405944933,2.556942002173));
#928 = CARTESIAN_POINT('',(1.098051264825,2.536911765028));
#929 = CARTESIAN_POINT('',(1.21505187832,2.518608868901));
#930 = CARTESIAN_POINT('',(1.334860447045,2.504388662086));
#931 = CARTESIAN_POINT('',(1.456395845373,2.496260465189));
#932 = CARTESIAN_POINT('',(1.578743933057,2.495120651998));
#933 = CARTESIAN_POINT('',(1.701036085959,2.500648571583));
#934 = CARTESIAN_POINT('',(1.945247786816,2.52275068315));
#935 = CARTESIAN_POINT('',(2.063445421026,2.539176349205));
#936 = CARTESIAN_POINT('',(2.177556395603,2.559169519148));
#937 = CARTESIAN_POINT('',(2.288126421853,2.580872414668));
#938 = CARTESIAN_POINT('',(2.395565643376,2.602579890644));
#939 = CARTESIAN_POINT('',(2.500186833941,2.622888913758));
#940 = CARTESIAN_POINT('',(2.602203701575,2.640756949804));
#941 = CARTESIAN_POINT('',(2.812833203014,2.67199660709));
#942 = CARTESIAN_POINT('',(2.922935103566,2.684919987251));
#943 = CARTESIAN_POINT('',(3.03241608442,2.693171885684));
#944 = CARTESIAN_POINT('',(3.14159265359,2.696008990465));
#945 = CARTESIAN_POINT('',(3.25076922276,2.693171885684));
#946 = CARTESIAN_POINT('',(3.360250203613,2.684919987251));
#947 = CARTESIAN_POINT('',(3.470352104164,2.67199660709));
#948 = CARTESIAN_POINT('',(3.674695898452,2.641689218722));
#949 = CARTESIAN_POINT('',(3.769938383414,2.625160567187));
#950 = CARTESIAN_POINT('',(3.867359099751,2.606484884032));
#951 = CARTESIAN_POINT('',(3.967202622384,2.586480447337));
#952 = CARTESIAN_POINT('',(4.069775846182,2.566232196888));
#953 = CARTESIAN_POINT('',(4.17545379286,2.547068796834));
#954 = CARTESIAN_POINT('',(4.284710710352,2.530479852765));
#955 = CARTESIAN_POINT('',(4.507828220645,2.505816422609));
#956 = CARTESIAN_POINT('',(4.619980612589,2.497625238474));
#957 = CARTESIAN_POINT('',(4.733247280374,2.494707633949));
#958 = CARTESIAN_POINT('',(4.846573505413,2.497836653586));
#959 = CARTESIAN_POINT('',(4.958979669662,2.506781890951));
#960 = CARTESIAN_POINT('',(5.069386219058,2.520339192572));
#961 = CARTESIAN_POINT('',(5.176398383859,2.536704172558));
#962 = CARTESIAN_POINT('',(5.417665882996,2.578008697577));
#963 = CARTESIAN_POINT('',(5.550890308329,2.604524924642));
#964 = CARTESIAN_POINT('',(5.679187319336,2.630504694328));
#965 = CARTESIAN_POINT('',(5.803701230018,2.653473082548));
#966 = CARTESIAN_POINT('',(5.9254427379,2.671742976146));
#967 = CARTESIAN_POINT('',(6.045311172525,2.684260416595));
#968 = CARTESIAN_POINT('',(6.164219622249,2.690524980689));
#969 = CARTESIAN_POINT('',(6.28318530718,2.690524980689));
#970 = ( GEOMETRIC_REPRESENTATION_CONTEXT(2)
PARAMETRIC_REPRESENTATION_CONTEXT() REPRESENTATION_CONTEXT('2D SPACE',''
  ) );
#971 = FACE_BOUND('',#972,.T.);
#972 = EDGE_LOOP('',(#973));
#973 = ORIENTED_EDGE('',*,*,#974,.F.);
#974 = EDGE_CURVE('',#975,#975,#977,.T.);
#975 = VERTEX_POINT('',#976);
#976 = CARTESIAN_POINT('',(1.5,-5.809475019311,5.));
#977 = SURFACE_CURVE('',#978,(#1030,#1085),.PCURVE_S1.);
#978 = B_SPLINE_CURVE_WITH_KNOTS('',8,(#979,#980,#981,#982,#983,#984,
    #985,#986,#987,#988,#989,#990,#991,#992,#993,#994,#995,#996,#997,
    #998,#999,#1000,#1001,#1002,#1003,#1004,#1005,#1006,#1007,#1008,
    #1009,#1010,#1011,#1012,#1013,#1014,#1015,#1016,#1017,#1018,#1019,
    #1020,#1021,#1022,#1023,#1024,#1025,#1026,#1027,#1028,#1029),
  .UNSPECIFIED.,.T.,.F.,(9,7,7,7,7,7,7,9),(0.,0.152312036387,
    0.287071626636,0.424097539637,0.576946738508,0.705322058637,
    0.829263801122,1.),.UNSPECIFIED.);
#979 = CARTESIAN_POINT('',(1.5,-5.809475019311,5.));
#980 = CARTESIAN_POINT('',(1.5,-5.809475019311,5.158109207523));
#981 = CARTESIAN_POINT('',(1.480954019575,-5.814392605472,5.31602475615)
  );
#982 = CARTESIAN_POINT('',(1.442940596596,-5.824207869559,5.472239234566
    ));
#983 = CARTESIAN_POINT('',(1.385712202244,-5.838610904574,5.625096775448
    ));
#984 = CARTESIAN_POINT('',(1.308841576486,-5.856974376372,5.772636430099
    ));
#985 = CARTESIAN_POINT('',(1.211836742635,-5.878273485929,5.912446316004
    ));
#986 = CARTESIAN_POINT('',(1.094291223864,-5.901026259488,6.04147791055)
  );
#987 = CARTESIAN_POINT('',(0.833901761561,-5.943057997827,6.256890807741
    ));
#988 = CARTESIAN_POINT('',(0.691487864477,-5.963088234972,6.349820965126
    ));
#989 = CARTESIAN_POINT('',(0.531112430773,-5.981391131099,6.427049827466
    ));
#990 = CARTESIAN_POINT('',(0.356695616918,-5.995611337914,6.483095575978
    ));
#991 = CARTESIAN_POINT('',(0.173362891438,-6.003739534811,6.514411770848
    ));
#992 = CARTESIAN_POINT('',(-1.318386302471E-02,-6.004879348002,
    6.519318053301));
#993 = CARTESIAN_POINT('',(-0.197109637994,-5.999351428417,
    6.498044653881));
#994 = CARTESIAN_POINT('',(-0.551918649794,-5.97724931685,6.406945183386
    ));
#995 = CARTESIAN_POINT('',(-0.717181406109,-5.960823650795,
    6.337682801625));
#996 = CARTESIAN_POINT('',(-0.866820807891,-5.940830480852,6.24935547905
    ));
#997 = CARTESIAN_POINT('',(-0.99968682506,-5.919127585332,6.145657810232
    ));
#998 = CARTESIAN_POINT('',(-1.115182775211,-5.897420109356,
    6.029886758423));
#999 = CARTESIAN_POINT('',(-1.213118726973,-5.877111086242,
    5.905030333416));
#1000 = CARTESIAN_POINT('',(-1.29365087973,-5.859243050196,
    5.773803926356));
#1001 = CARTESIAN_POINT('',(-1.428173399587,-5.82800339291,
    5.487929019933));
#1002 = CARTESIAN_POINT('',(-1.479358556431,-5.815080012749,
    5.329490946579));
#1003 = CARTESIAN_POINT('',(-1.510260939994,-5.806828114316,
    5.165997719275));
#1004 = CARTESIAN_POINT('',(-1.520591990788,-5.803991009535,5.));
#1005 = CARTESIAN_POINT('',(-1.510260939994,-5.806828114316,
    4.834002280725));
#1006 = CARTESIAN_POINT('',(-1.479358556431,-5.815080012749,
    4.670509053421));
#1007 = CARTESIAN_POINT('',(-1.428173399587,-5.82800339291,
    4.512070980066));
#1008 = CARTESIAN_POINT('',(-1.297665365637,-5.858310781278,
    4.234727290457));
#1009 = CARTESIAN_POINT('',(-1.223340135477,-5.874839432813,
    4.111810905147));
#1010 = CARTESIAN_POINT('',(-1.133923544551,-5.893515115968,
    3.994437886643));
#1011 = CARTESIAN_POINT('',(-1.02924106907,-5.913519552663,
    3.884689949004));
#1012 = CARTESIAN_POINT('',(-0.90933155637,-5.933767803112,
    3.784899524101));
#1013 = CARTESIAN_POINT('',(-0.774507274288,-5.952931203166,
    3.697687095955));
#1014 = CARTESIAN_POINT('',(-0.62546997524,-5.969520147235,
    3.626034178001));
#1015 = CARTESIAN_POINT('',(-0.307173932144,-5.994183577391,
    3.522613524365));
#1016 = CARTESIAN_POINT('',(-0.140815292868,-6.002374761526,
    3.490211755384));
#1017 = CARTESIAN_POINT('',(3.115079066814E-02,-6.005292366051,
    3.479405213701));
#1018 = CARTESIAN_POINT('',(0.203708847038,-6.002163346414,
    3.491499161623));
#1019 = CARTESIAN_POINT('',(0.371690908324,-5.993218109049,
    3.526039064661));
#1020 = CARTESIAN_POINT('',(0.530232081295,-5.979660807428,3.58084171302
    ));
#1021 = CARTESIAN_POINT('',(0.675220047888,-5.963295827442,
    3.651946747873));
#1022 = CARTESIAN_POINT('',(0.980783378444,-5.921991302423,
    3.845863134066));
#1023 = CARTESIAN_POINT('',(1.131560894657,-5.895475075358,
    3.981224976404));
#1024 = CARTESIAN_POINT('',(1.255829073755,-5.869495305672,
    4.132918840314));
#1025 = CARTESIAN_POINT('',(1.354161077299,-5.846526917452,
    4.296156918353));
#1026 = CARTESIAN_POINT('',(1.427255049913,-5.828257023854,
    4.467232627686));
#1027 = CARTESIAN_POINT('',(1.475737975752,-5.815739583405,
    4.643189223087));
#1028 = CARTESIAN_POINT('',(1.5,-5.809475019311,4.821551472605));
#1029 = CARTESIAN_POINT('',(1.5,-5.809475019311,5.));
#1030 = PCURVE('',#724,#1031);
#1031 = DEFINITIONAL_REPRESENTATION('',(#1032),#1084);
#1032 = B_SPLINE_CURVE_WITH_KNOTS('',8,(#1033,#1034,#1035,#1036,#1037,
    #1038,#1039,#1040,#1041,#1042,#1043,#1044,#1045,#1046,#1047,#1048,
    #1049,#1050,#1051,#1052,#1053,#1054,#1055,#1056,#1057,#1058,#1059,
    #1060,#1061,#1062,#1063,#1064,#1065,#1066,#1067,#1068,#1069,#1070,
    #1071,#1072,#1073,#1074,#1075,#1076,#1077,#1078,#1079,#1080,#1081,
    #1082,#1083),.UNSPECIFIED.,.T.,.F.,(9,7,7,7,7,7,7,9),(0.,
    0.152312036387,0.287071626636,0.424097539637,0.576946738508,
    0.705322058637,0.829263801122,1.),.UNSPECIFIED.);
#1033 = CARTESIAN_POINT('',(4.965069235527,55.));
#1034 = CARTESIAN_POINT('',(4.965069235527,55.158109207523));
#1035 = CARTESIAN_POINT('',(4.961790792204,55.31602475615));
#1036 = CARTESIAN_POINT('',(4.955247478474,55.472239234566));
#1037 = CARTESIAN_POINT('',(4.945412097556,55.625096775448));
#1038 = CARTESIAN_POINT('',(4.932242007885,55.772636430099));
#1039 = CARTESIAN_POINT('',(4.915696039245,55.912446316004));
#1040 = CARTESIAN_POINT('',(4.89575118562,56.04147791055));
#1041 = CARTESIAN_POINT('',(4.851791185145,56.256890807741));
#1042 = CARTESIAN_POINT('',(4.82782687756,56.349820965126));
#1043 = CARTESIAN_POINT('',(4.800939598029,56.427049827466));
#1044 = CARTESIAN_POINT('',(4.771805910402,56.483095575978));
#1045 = CARTESIAN_POINT('',(4.741264287477,56.514411770848));
#1046 = CARTESIAN_POINT('',(4.710206331968,56.519318053301));
#1047 = CARTESIAN_POINT('',(4.679554083965,56.498044653881));
#1048 = CARTESIAN_POINT('',(4.620304625883,56.406945183386));
#1049 = CARTESIAN_POINT('',(4.592643941389,56.337682801625));
#1050 = CARTESIAN_POINT('',(4.567504383777,56.24935547905));
#1051 = CARTESIAN_POINT('',(4.545081638183,56.145657810232));
#1052 = CARTESIAN_POINT('',(4.525502419597,56.029886758423));
#1053 = CARTESIAN_POINT('',(4.508835348943,55.905030333416));
#1054 = CARTESIAN_POINT('',(4.495087554691,55.773803926356));
#1055 = CARTESIAN_POINT('',(4.472070517199,55.487929019933));
#1056 = CARTESIAN_POINT('',(4.463273581187,55.329490946579));
#1057 = CARTESIAN_POINT('',(4.457942756851,55.165997719275));
#1058 = CARTESIAN_POINT('',(4.456156885759,55.));
#1059 = CARTESIAN_POINT('',(4.457942756851,54.834002280725));
#1060 = CARTESIAN_POINT('',(4.463273581187,54.670509053421));
#1061 = CARTESIAN_POINT('',(4.472070517199,54.512070980066));
#1062 = CARTESIAN_POINT('',(4.494400669159,54.234727290457));
#1063 = CARTESIAN_POINT('',(4.507090282647,54.111810905147));
#1064 = CARTESIAN_POINT('',(4.522312385618,53.994437886643));
#1065 = CARTESIAN_POINT('',(4.540069712183,53.884689949004));
#1066 = CARTESIAN_POINT('',(4.560326523487,53.784899524101));
#1067 = CARTESIAN_POINT('',(4.583007135129,53.697687095955));
#1068 = CARTESIAN_POINT('',(4.607986026676,53.626034178001));
#1069 = CARTESIAN_POINT('',(4.661194384373,53.522613524365));
#1070 = CARTESIAN_POINT('',(4.688943494979,53.490211755384));
#1071 = CARTESIAN_POINT('',(4.717583385266,53.479405213701));
#1072 = CARTESIAN_POINT('',(4.746312831474,53.491499161623));
#1073 = CARTESIAN_POINT('',(4.774318802287,53.526039064661));
#1074 = CARTESIAN_POINT('',(4.800822578723,53.58084171302));
#1075 = CARTESIAN_POINT('',(4.8251347433,53.651946747873));
#1076 = CARTESIAN_POINT('',(4.876525137119,53.845863134066));
#1077 = CARTESIAN_POINT('',(4.902020229111,53.981224976404));
#1078 = CARTESIAN_POINT('',(4.923165243255,54.132918840315));
#1079 = CARTESIAN_POINT('',(4.939990876273,54.296156918353));
#1080 = CARTESIAN_POINT('',(4.952547436431,54.467232627686));
#1081 = CARTESIAN_POINT('',(4.960892955137,54.643189223087));
#1082 = CARTESIAN_POINT('',(4.965069235527,54.821551472605));
#1083 = CARTESIAN_POINT('',(4.965069235527,55.));
#1084 = ( GEOMETRIC_REPRESENTATION_CONTEXT(2)
PARAMETRIC_REPRESENTATION_CONTEXT() REPRESENTATION_CONTEXT('2D SPACE',''
  ) );
#1085 = PCURVE('',#912,#1086);
#1086 = DEFINITIONAL_REPRESENTATION('',(#1087),#1139);
#1087 = B_SPLINE_CURVE_WITH_KNOTS('',8,(#1088,#1089,#1090,#1091,#1092,
    #1093,#1094,#1095,#1096,#1097,#1098,#1099,#1100,#1101,#1102,#1103,
    #1104,#1105,#1106,#1107,#1108,#1109,#1110,#1111,#1112,#1113,#1114,
    #1115,#1116,#1117,#1118,#1119,#1120,#1121,#1122,#1123,#1124,#1125,
    #1126,#1127,#1128,#1129,#1130,#1131,#1132,#1133,#1134,#1135,#1136,
    #1137,#1138),.UNSPECIFIED.,.F.,.F.,(9,7,7,7,7,7,7,9),(0.,
    0.152312036387,0.287071626636,0.424097539637,0.576946738508,
    0.705322058637,0.829263801122,1.),.UNSPECIFIED.);
#1088 = CARTESIAN_POINT('',(0.,14.309475019311));
#1089 = CARTESIAN_POINT('',(0.105406138349,14.309475019311));
#1090 = CARTESIAN_POINT('',(0.210682901073,14.314392605472));
#1091 = CARTESIAN_POINT('',(0.316611299899,14.324207869559));
#1092 = CARTESIAN_POINT('',(0.423851103717,14.338610904574));
#1093 = CARTESIAN_POINT('',(0.53305588306,14.356974376372));
#1094 = CARTESIAN_POINT('',(0.644898302364,14.378273485929));
#1095 = CARTESIAN_POINT('',(0.760110693364,14.401026259488));
#1096 = CARTESIAN_POINT('',(0.985405944933,14.443057997827));
#1097 = CARTESIAN_POINT('',(1.098051264825,14.463088234972));
#1098 = CARTESIAN_POINT('',(1.21505187832,14.481391131099));
#1099 = CARTESIAN_POINT('',(1.334860447045,14.495611337914));
#1100 = CARTESIAN_POINT('',(1.456395845373,14.503739534811));
#1101 = CARTESIAN_POINT('',(1.578743933057,14.504879348002));
#1102 = CARTESIAN_POINT('',(1.701036085959,14.499351428417));
#1103 = CARTESIAN_POINT('',(1.945247786816,14.47724931685));
#1104 = CARTESIAN_POINT('',(2.063445421026,14.460823650795));
#1105 = CARTESIAN_POINT('',(2.177556395603,14.440830480852));
#1106 = CARTESIAN_POINT('',(2.288126421853,14.419127585332));
#1107 = CARTESIAN_POINT('',(2.395565643376,14.397420109356));
#1108 = CARTESIAN_POINT('',(2.500186833941,14.377111086242));
#1109 = CARTESIAN_POINT('',(2.602203701575,14.359243050196));
#1110 = CARTESIAN_POINT('',(2.812833203014,14.32800339291));
#1111 = CARTESIAN_POINT('',(2.922935103565,14.315080012749));
#1112 = CARTESIAN_POINT('',(3.032416084419,14.306828114316));
#1113 = CARTESIAN_POINT('',(3.14159265359,14.303991009535));
#1114 = CARTESIAN_POINT('',(3.25076922276,14.306828114316));
#1115 = CARTESIAN_POINT('',(3.360250203615,14.315080012749));
#1116 = CARTESIAN_POINT('',(3.470352104167,14.32800339291));
#1117 = CARTESIAN_POINT('',(3.674695898452,14.358310781278));
#1118 = CARTESIAN_POINT('',(3.769938383414,14.374839432813));
#1119 = CARTESIAN_POINT('',(3.867359099751,14.393515115968));
#1120 = CARTESIAN_POINT('',(3.967202622384,14.413519552663));
#1121 = CARTESIAN_POINT('',(4.069775846182,14.433767803112));
#1122 = CARTESIAN_POINT('',(4.17545379286,14.452931203166));
#1123 = CARTESIAN_POINT('',(4.284710710352,14.469520147235));
#1124 = CARTESIAN_POINT('',(4.507828220645,14.494183577391));
#1125 = CARTESIAN_POINT('',(4.619980612588,14.502374761526));
#1126 = CARTESIAN_POINT('',(4.733247280374,14.505292366051));
#1127 = CARTESIAN_POINT('',(4.846573505413,14.502163346414));
#1128 = CARTESIAN_POINT('',(4.958979669662,14.493218109049));
#1129 = CARTESIAN_POINT('',(5.069386219058,14.479660807428));
#1130 = CARTESIAN_POINT('',(5.176398383859,14.463295827442));
#1131 = CARTESIAN_POINT('',(5.417665882996,14.421991302423));
#1132 = CARTESIAN_POINT('',(5.55089030833,14.395475075358));
#1133 = CARTESIAN_POINT('',(5.679187319335,14.369495305672));
#1134 = CARTESIAN_POINT('',(5.80370123002,14.346526917452));
#1135 = CARTESIAN_POINT('',(5.925442737898,14.328257023854));
#1136 = CARTESIAN_POINT('',(6.045311172525,14.315739583405));
#1137 = CARTESIAN_POINT('',(6.164219622249,14.309475019311));
#1138 = CARTESIAN_POINT('',(6.28318530718,14.309475019311));
#1139 = ( GEOMETRIC_REPRESENTATION_CONTEXT(2)
PARAMETRIC_REPRESENTATION_CONTEXT() REPRESENTATION_CONTEXT('2D SPACE',''
  ) );
#1140 = ADVANCED_FACE('',(#1141),#786,.F.);
#1141 = FACE_BOUND('',#1142,.T.);
#1142 = EDGE_LOOP('',(#1143));
#1143 = ORIENTED_EDGE('',*,*,#771,.F.);
#1144 = ADVANCED_FACE('',(#1145),#758,.T.);
#1145 = FACE_BOUND('',#1146,.T.);
#1146 = EDGE_LOOP('',(#1147));
#1147 = ORIENTED_EDGE('',*,*,#743,.T.);
#1148 = ADVANCED_FACE('',(#1149),#912,.F.);
#1149 = FACE_BOUND('',#1150,.F.);
#1150 = EDGE_LOOP('',(#1151,#1152,#1173,#1174));
#1151 = ORIENTED_EDGE('',*,*,#974,.F.);
#1152 = ORIENTED_EDGE('',*,*,#1153,.F.);
#1153 = EDGE_CURVE('',#801,#975,#1154,.T.);
#1154 = SEAM_CURVE('',#1155,(#1159,#1166),.PCURVE_S1.);
#1155 = LINE('',#1156,#1157);
#1156 = CARTESIAN_POINT('',(1.5,8.5,5.));
#1157 = VECTOR('',#1158,1.);
#1158 = DIRECTION('',(0.,-1.,2.22044604925E-16));
#1159 = PCURVE('',#912,#1160);
#1160 = DEFINITIONAL_REPRESENTATION('',(#1161),#1165);
#1161 = LINE('',#1162,#1163);
#1162 = CARTESIAN_POINT('',(6.28318530718,-0.));
#1163 = VECTOR('',#1164,1.);
#1164 = DIRECTION('',(0.,1.));
#1165 = ( GEOMETRIC_REPRESENTATION_CONTEXT(2)
PARAMETRIC_REPRESENTATION_CONTEXT() REPRESENTATION_CONTEXT('2D SPACE',''
  ) );
#1166 = PCURVE('',#912,#1167);
#1167 = DEFINITIONAL_REPRESENTATION('',(#1168),#1172);
#1168 = LINE('',#1169,#1170);
#1169 = CARTESIAN_POINT('',(0.,-0.));
#1170 = VECTOR('',#1171,1.);
#1171 = DIRECTION('',(0.,1.));
#1172 = ( GEOMETRIC_REPRESENTATION_CONTEXT(2)
PARAMETRIC_REPRESENTATION_CONTEXT() REPRESENTATION_CONTEXT('2D SPACE',''
  ) );
#1173 = ORIENTED_EDGE('',*,*,#800,.T.);
#1174 = ORIENTED_EDGE('',*,*,#1153,.T.);
#1175 = ( GEOMETRIC_REPRESENTATION_CONTEXT(3)
GLOBAL_UNCERTAINTY_ASSIGNED_CONTEXT((#1179))
GLOBAL_UNIT_ASSIGNED_CONTEXT((#1176,#1177,#1178)) REPRESENTATION_CONTEXT
('Context #1','3D Context with UNIT and UNCERTAINTY') );
#1176 = ( LENGTH_UNIT() NAMED_UNIT(*) SI_UNIT(.MILLI.,.METRE.) );
#1177 = ( NAMED_UNIT(*) PLANE_ANGLE_UNIT() SI_UNIT($,.RADIAN.) );
#1178 = ( NAMED_UNIT(*) SI_UNIT($,.STERADIAN.) SOLID_ANGLE_UNIT() );
#1179 = UNCERTAINTY_MEASURE_WITH_UNIT(LENGTH_MEASURE(1.E-07),#1176,
  'distance_accuracy_value','confusion accuracy');
#1180 = PRODUCT_RELATED_PRODUCT_CATEGORY('part',$,(#7));
ENDSEC;
END-ISO-10303-21;
