ISO-10303-21;
HEADER;
FILE_DESCRIPTION(('Open CASCADE Model'),'2;1');
FILE_NAME('Open CASCADE Shape Model','2026-07-09T15:22:08',('Author'),(
    'Open CASCADE'),'Open CASCADE STEP processor 7.9','build123d',
  'Unknown');
FILE_SCHEMA(('AUTOMOTIVE_DESIGN { 1 0 10303 214 1 1 1 1 }'));
ENDSEC;
DATA;
#1 = APPLICATION_PROTOCOL_DEFINITION('international standard',
  'automotive_design',2000,#2);
#2 = APPLICATION_CONTEXT(
  'core data for automotive mechanical design processes');
#3 = SHAPE_DEFINITION_REPRESENTATION(#4,#10);
#4 = PRODUCT_DEFINITION_SHAPE('','',#5);
#5 = PRODUCT_DEFINITION('design','',#6,#9);
#6 = PRODUCT_DEFINITION_FORMATION('','',#7);
#7 = PRODUCT('COMPOUND','COMPOUND','',(#8));
#8 = PRODUCT_CONTEXT('',#2,'mechanical');
#9 = PRODUCT_DEFINITION_CONTEXT('part definition',#2,'design');
#10 = ADVANCED_BREP_SHAPE_REPRESENTATION('',(#11,#15),#987);
#11 = AXIS2_PLACEMENT_3D('',#12,#13,#14);
#12 = CARTESIAN_POINT('',(0.,0.,0.));
#13 = DIRECTION('',(0.,0.,1.));
#14 = DIRECTION('',(1.,0.,-0.));
#15 = BREP_WITH_VOIDS('',#16,(#889));
#16 = CLOSED_SHELL('',(#17,#133,#207,#254,#408,#541,#548,#653,#748,#775,
    #802,#852,#879));
#17 = ADVANCED_FACE('',(#18),#32,.T.);
#18 = FACE_BOUND('',#19,.T.);
#19 = EDGE_LOOP('',(#20,#55,#81,#107));
#20 = ORIENTED_EDGE('',*,*,#21,.F.);
#21 = EDGE_CURVE('',#22,#24,#26,.T.);
#22 = VERTEX_POINT('',#23);
#23 = CARTESIAN_POINT('',(8.,13.,23.535533905933));
#24 = VERTEX_POINT('',#25);
#25 = CARTESIAN_POINT('',(13.303300858899,13.,18.232233047034));
#26 = SURFACE_CURVE('',#27,(#31,#43),.PCURVE_S1.);
#27 = LINE('',#28,#29);
#28 = CARTESIAN_POINT('',(6.232233047034,13.,25.303300858899));
#29 = VECTOR('',#30,1.);
#30 = DIRECTION('',(0.707106781187,0.,-0.707106781187));
#31 = PCURVE('',#32,#37);
#32 = PLANE('',#33);
#33 = AXIS2_PLACEMENT_3D('',#34,#35,#36);
#34 = CARTESIAN_POINT('',(6.232233047034,3.,25.303300858899));
#35 = DIRECTION('',(0.707106781187,0.,0.707106781187));
#36 = DIRECTION('',(0.707106781187,0.,-0.707106781187));
#37 = DEFINITIONAL_REPRESENTATION('',(#38),#42);
#38 = LINE('',#39,#40);
#39 = CARTESIAN_POINT('',(0.,10.));
#40 = VECTOR('',#41,1.);
#41 = DIRECTION('',(1.,0.));
#42 = ( GEOMETRIC_REPRESENTATION_CONTEXT(2)
PARAMETRIC_REPRESENTATION_CONTEXT() REPRESENTATION_CONTEXT('2D SPACE',''
  ) );
#43 = PCURVE('',#44,#49);
#44 = PLANE('',#45);
#45 = AXIS2_PLACEMENT_3D('',#46,#47,#48);
#46 = CARTESIAN_POINT('',(2.696699141101,13.,21.767766952966));
#47 = DIRECTION('',(0.,1.,0.));
#48 = DIRECTION('',(0.707106781187,0.,0.707106781187));
#49 = DEFINITIONAL_REPRESENTATION('',(#50),#54);
#50 = LINE('',#51,#52);
#51 = CARTESIAN_POINT('',(5.,0.));
#52 = VECTOR('',#53,1.);
#53 = DIRECTION('',(0.,1.));
<<<<<<< Updated upstream
#54 = ( GEOMETRIC_REPRESENTATION_CONTEXT(2)
=======
#54 = ( GEOMETRIC_REPRESENTATION_CONTEXT(2)
>>>>>>> Stashed changes
PARAMETRIC_REPRESENTATION_CONTEXT() REPRESENTATION_CONTEXT('2D SPACE',''
  ) );
#55 = ORIENTED_EDGE('',*,*,#56,.F.);
#56 = EDGE_CURVE('',#57,#22,#59,.T.);
#57 = VERTEX_POINT('',#58);
#58 = CARTESIAN_POINT('',(8.,8.,23.535533905933));
#59 = SURFACE_CURVE('',#60,(#64,#70),.PCURVE_S1.);
#60 = LINE('',#61,#62);
#61 = CARTESIAN_POINT('',(8.,5.5,23.535533905933));
#62 = VECTOR('',#63,1.);
#63 = DIRECTION('',(0.,1.,-0.));
#64 = PCURVE('',#32,#65);
#65 = DEFINITIONAL_REPRESENTATION('',(#66),#69);
#66 = B_SPLINE_CURVE_WITH_KNOTS('',1,(#67,#68),.UNSPECIFIED.,.F.,.F.,(2,
    2),(2.5,7.5),.PIECEWISE_BEZIER_KNOTS.);
#67 = CARTESIAN_POINT('',(2.5,5.));
#68 = CARTESIAN_POINT('',(2.5,10.));
<<<<<<< Updated upstream
#69 = ( GEOMETRIC_REPRESENTATION_CONTEXT(2)
=======
#69 = ( GEOMETRIC_REPRESENTATION_CONTEXT(2)
>>>>>>> Stashed changes
PARAMETRIC_REPRESENTATION_CONTEXT() REPRESENTATION_CONTEXT('2D SPACE',''
  ) );
#70 = PCURVE('',#71,#76);
#71 = PLANE('',#72);
#72 = AXIS2_PLACEMENT_3D('',#73,#74,#75);
#73 = CARTESIAN_POINT('',(8.,8.,0.));
#74 = DIRECTION('',(-1.,0.,0.));
#75 = DIRECTION('',(0.,1.,0.));
#76 = DEFINITIONAL_REPRESENTATION('',(#77),#80);
#77 = B_SPLINE_CURVE_WITH_KNOTS('',1,(#78,#79),.UNSPECIFIED.,.F.,.F.,(2,
    2),(2.5,7.5),.PIECEWISE_BEZIER_KNOTS.);
#78 = CARTESIAN_POINT('',(0.,-23.53553390593));
#79 = CARTESIAN_POINT('',(5.,-23.53553390593));
<<<<<<< Updated upstream
#80 = ( GEOMETRIC_REPRESENTATION_CONTEXT(2)
=======
#80 = ( GEOMETRIC_REPRESENTATION_CONTEXT(2)
>>>>>>> Stashed changes
PARAMETRIC_REPRESENTATION_CONTEXT() REPRESENTATION_CONTEXT('2D SPACE',''
  ) );
#81 = ORIENTED_EDGE('',*,*,#82,.F.);
#82 = EDGE_CURVE('',#83,#57,#85,.T.);
#83 = VERTEX_POINT('',#84);
#84 = CARTESIAN_POINT('',(13.303300858899,8.,18.232233047034));
#85 = SURFACE_CURVE('',#86,(#90,#96),.PCURVE_S1.);
#86 = LINE('',#87,#88);
#87 = CARTESIAN_POINT('',(48.5,8.,-16.96446609406));
#88 = VECTOR('',#89,1.);
#89 = DIRECTION('',(-0.707106781187,0.,0.707106781187));
#90 = PCURVE('',#32,#91);
#91 = DEFINITIONAL_REPRESENTATION('',(#92),#95);
#92 = B_SPLINE_CURVE_WITH_KNOTS('',1,(#93,#94),.UNSPECIFIED.,.F.,.F.,(2,
    2),(49.77564927611,57.27564927611),.PIECEWISE_BEZIER_KNOTS.);
#93 = CARTESIAN_POINT('',(10.,5.));
#94 = CARTESIAN_POINT('',(2.5,5.));
<<<<<<< Updated upstream
#95 = ( GEOMETRIC_REPRESENTATION_CONTEXT(2)
=======
#95 = ( GEOMETRIC_REPRESENTATION_CONTEXT(2)
>>>>>>> Stashed changes
PARAMETRIC_REPRESENTATION_CONTEXT() REPRESENTATION_CONTEXT('2D SPACE',''
  ) );
#96 = PCURVE('',#97,#102);
#97 = PLANE('',#98);
#98 = AXIS2_PLACEMENT_3D('',#99,#100,#101);
#99 = CARTESIAN_POINT('',(150.,8.,0.));
#100 = DIRECTION('',(0.,-1.,0.));
#101 = DIRECTION('',(-1.,0.,0.));
#102 = DEFINITIONAL_REPRESENTATION('',(#103),#106);
#103 = B_SPLINE_CURVE_WITH_KNOTS('',1,(#104,#105),.UNSPECIFIED.,.F.,.F.,
  (2,2),(49.77564927611,57.27564927611),.PIECEWISE_BEZIER_KNOTS.);
#104 = CARTESIAN_POINT('',(136.6966991411,-18.23223304703));
#105 = CARTESIAN_POINT('',(142.,-23.53553390593));
<<<<<<< Updated upstream
#106 = ( GEOMETRIC_REPRESENTATION_CONTEXT(2)
=======
#106 = ( GEOMETRIC_REPRESENTATION_CONTEXT(2)
>>>>>>> Stashed changes
PARAMETRIC_REPRESENTATION_CONTEXT() REPRESENTATION_CONTEXT('2D SPACE',''
  ) );
#107 = ORIENTED_EDGE('',*,*,#108,.T.);
#108 = EDGE_CURVE('',#83,#24,#109,.T.);
#109 = SURFACE_CURVE('',#110,(#114,#121),.PCURVE_S1.);
#110 = LINE('',#111,#112);
#111 = CARTESIAN_POINT('',(13.303300858899,3.,18.232233047034));
#112 = VECTOR('',#113,1.);
#113 = DIRECTION('',(0.,1.,0.));
#114 = PCURVE('',#32,#115);
#115 = DEFINITIONAL_REPRESENTATION('',(#116),#120);
#116 = LINE('',#117,#118);
#117 = CARTESIAN_POINT('',(10.,0.));
#118 = VECTOR('',#119,1.);
#119 = DIRECTION('',(0.,1.));
<<<<<<< Updated upstream
#120 = ( GEOMETRIC_REPRESENTATION_CONTEXT(2)
=======
#120 = ( GEOMETRIC_REPRESENTATION_CONTEXT(2)
>>>>>>> Stashed changes
PARAMETRIC_REPRESENTATION_CONTEXT() REPRESENTATION_CONTEXT('2D SPACE',''
  ) );
#121 = PCURVE('',#122,#127);
#122 = PLANE('',#123);
#123 = AXIS2_PLACEMENT_3D('',#124,#125,#126);
#124 = CARTESIAN_POINT('',(9.767766952966,3.,14.696699141101));
#125 = DIRECTION('',(0.707106781187,0.,-0.707106781187));
#126 = DIRECTION('',(0.707106781187,0.,0.707106781187));
#127 = DEFINITIONAL_REPRESENTATION('',(#128),#132);
#128 = LINE('',#129,#130);
#129 = CARTESIAN_POINT('',(5.,0.));
#130 = VECTOR('',#131,1.);
#131 = DIRECTION('',(0.,-1.));
<<<<<<< Updated upstream
#132 = ( GEOMETRIC_REPRESENTATION_CONTEXT(2)
=======
#132 = ( GEOMETRIC_REPRESENTATION_CONTEXT(2)
>>>>>>> Stashed changes
PARAMETRIC_REPRESENTATION_CONTEXT() REPRESENTATION_CONTEXT('2D SPACE',''
  ) );
#133 = ADVANCED_FACE('',(#134),#44,.T.);
#134 = FACE_BOUND('',#135,.T.);
#135 = EDGE_LOOP('',(#136,#166,#185,#186));
#136 = ORIENTED_EDGE('',*,*,#137,.F.);
#137 = EDGE_CURVE('',#138,#140,#142,.T.);
#138 = VERTEX_POINT('',#139);
#139 = CARTESIAN_POINT('',(8.,13.,16.464466094067));
#140 = VERTEX_POINT('',#141);
#141 = CARTESIAN_POINT('',(9.767766952966,13.,14.696699141101));
#142 = SURFACE_CURVE('',#143,(#147,#154),.PCURVE_S1.);
#143 = LINE('',#144,#145);
#144 = CARTESIAN_POINT('',(2.696699141101,13.,21.767766952966));
#145 = VECTOR('',#146,1.);
#146 = DIRECTION('',(0.707106781187,0.,-0.707106781187));
#147 = PCURVE('',#44,#148);
#148 = DEFINITIONAL_REPRESENTATION('',(#149),#153);
#149 = LINE('',#150,#151);
#150 = CARTESIAN_POINT('',(0.,0.));
#151 = VECTOR('',#152,1.);
#152 = DIRECTION('',(0.,1.));
<<<<<<< Updated upstream
#153 = ( GEOMETRIC_REPRESENTATION_CONTEXT(2)
=======
#153 = ( GEOMETRIC_REPRESENTATION_CONTEXT(2)
>>>>>>> Stashed changes
PARAMETRIC_REPRESENTATION_CONTEXT() REPRESENTATION_CONTEXT('2D SPACE',''
  ) );
#154 = PCURVE('',#155,#160);
#155 = PLANE('',#156);
#156 = AXIS2_PLACEMENT_3D('',#157,#158,#159);
#157 = CARTESIAN_POINT('',(2.696699141101,3.,21.767766952966));
#158 = DIRECTION('',(0.707106781187,0.,0.707106781187));
#159 = DIRECTION('',(0.707106781187,0.,-0.707106781187));
#160 = DEFINITIONAL_REPRESENTATION('',(#161),#165);
#161 = LINE('',#162,#163);
#162 = CARTESIAN_POINT('',(0.,10.));
#163 = VECTOR('',#164,1.);
#164 = DIRECTION('',(1.,0.));
<<<<<<< Updated upstream
#165 = ( GEOMETRIC_REPRESENTATION_CONTEXT(2)
=======
#165 = ( GEOMETRIC_REPRESENTATION_CONTEXT(2)
>>>>>>> Stashed changes
PARAMETRIC_REPRESENTATION_CONTEXT() REPRESENTATION_CONTEXT('2D SPACE',''
  ) );
#166 = ORIENTED_EDGE('',*,*,#167,.F.);
#167 = EDGE_CURVE('',#22,#138,#168,.T.);
#168 = SURFACE_CURVE('',#169,(#173,#179),.PCURVE_S1.);
#169 = LINE('',#170,#171);
#170 = CARTESIAN_POINT('',(8.,13.,10.883883476483));
#171 = VECTOR('',#172,1.);
#172 = DIRECTION('',(0.,0.,-1.));
#173 = PCURVE('',#44,#174);
#174 = DEFINITIONAL_REPRESENTATION('',(#175),#178);
#175 = B_SPLINE_CURVE_WITH_KNOTS('',1,(#176,#177),.UNSPECIFIED.,.F.,.F.,
  (2,2),(-12.65165042945,-5.580582617584),.PIECEWISE_BEZIER_KNOTS.);
#176 = CARTESIAN_POINT('',(5.,2.5));
#177 = CARTESIAN_POINT('',(0.,7.5));
<<<<<<< Updated upstream
#178 = ( GEOMETRIC_REPRESENTATION_CONTEXT(2)
=======
#178 = ( GEOMETRIC_REPRESENTATION_CONTEXT(2)
>>>>>>> Stashed changes
PARAMETRIC_REPRESENTATION_CONTEXT() REPRESENTATION_CONTEXT('2D SPACE',''
  ) );
#179 = PCURVE('',#71,#180);
#180 = DEFINITIONAL_REPRESENTATION('',(#181),#184);
#181 = B_SPLINE_CURVE_WITH_KNOTS('',1,(#182,#183),.UNSPECIFIED.,.F.,.F.,
  (2,2),(-12.65165042945,-5.580582617584),.PIECEWISE_BEZIER_KNOTS.);
#182 = CARTESIAN_POINT('',(5.,-23.53553390593));
#183 = CARTESIAN_POINT('',(5.,-16.46446609406));
<<<<<<< Updated upstream
#184 = ( GEOMETRIC_REPRESENTATION_CONTEXT(2)
=======
#184 = ( GEOMETRIC_REPRESENTATION_CONTEXT(2)
>>>>>>> Stashed changes
PARAMETRIC_REPRESENTATION_CONTEXT() REPRESENTATION_CONTEXT('2D SPACE',''
  ) );
#185 = ORIENTED_EDGE('',*,*,#21,.T.);
#186 = ORIENTED_EDGE('',*,*,#187,.F.);
#187 = EDGE_CURVE('',#140,#24,#188,.T.);
#188 = SURFACE_CURVE('',#189,(#193,#200),.PCURVE_S1.);
#189 = LINE('',#190,#191);
#190 = CARTESIAN_POINT('',(9.767766952966,13.,14.696699141101));
#191 = VECTOR('',#192,1.);
#192 = DIRECTION('',(0.707106781187,0.,0.707106781187));
#193 = PCURVE('',#44,#194);
#194 = DEFINITIONAL_REPRESENTATION('',(#195),#199);
#195 = LINE('',#196,#197);
#196 = CARTESIAN_POINT('',(0.,10.));
#197 = VECTOR('',#198,1.);
#198 = DIRECTION('',(1.,0.));
<<<<<<< Updated upstream
#199 = ( GEOMETRIC_REPRESENTATION_CONTEXT(2)
=======
#199 = ( GEOMETRIC_REPRESENTATION_CONTEXT(2)
>>>>>>> Stashed changes
PARAMETRIC_REPRESENTATION_CONTEXT() REPRESENTATION_CONTEXT('2D SPACE',''
  ) );
#200 = PCURVE('',#122,#201);
#201 = DEFINITIONAL_REPRESENTATION('',(#202),#206);
#202 = LINE('',#203,#204);
#203 = CARTESIAN_POINT('',(0.,-10.));
#204 = VECTOR('',#205,1.);
#205 = DIRECTION('',(1.,0.));
<<<<<<< Updated upstream
#206 = ( GEOMETRIC_REPRESENTATION_CONTEXT(2)
=======
#206 = ( GEOMETRIC_REPRESENTATION_CONTEXT(2)
>>>>>>> Stashed changes
PARAMETRIC_REPRESENTATION_CONTEXT() REPRESENTATION_CONTEXT('2D SPACE',''
  ) );
#207 = ADVANCED_FACE('',(#208),#122,.T.);
#208 = FACE_BOUND('',#209,.T.);
#209 = EDGE_LOOP('',(#210,#211,#232,#253));
#210 = ORIENTED_EDGE('',*,*,#108,.F.);
#211 = ORIENTED_EDGE('',*,*,#212,.F.);
#212 = EDGE_CURVE('',#213,#83,#215,.T.);
#213 = VERTEX_POINT('',#214);
#214 = CARTESIAN_POINT('',(9.767766952966,8.,14.696699141101));
#215 = SURFACE_CURVE('',#216,(#220,#226),.PCURVE_S1.);
#216 = LINE('',#217,#218);
#217 = CARTESIAN_POINT('',(41.15165042945,8.,46.080582617584));
#218 = VECTOR('',#219,1.);
#219 = DIRECTION('',(0.707106781187,0.,0.707106781187));
#220 = PCURVE('',#122,#221);
#221 = DEFINITIONAL_REPRESENTATION('',(#222),#225);
#222 = B_SPLINE_CURVE_WITH_KNOTS('',1,(#223,#224),.UNSPECIFIED.,.F.,.F.,
  (2,2),(-44.38351365237,-39.38351365237),.PIECEWISE_BEZIER_KNOTS.);
#223 = CARTESIAN_POINT('',(0.,-5.));
#224 = CARTESIAN_POINT('',(5.,-5.));
<<<<<<< Updated upstream
#225 = ( GEOMETRIC_REPRESENTATION_CONTEXT(2)
=======
#225 = ( GEOMETRIC_REPRESENTATION_CONTEXT(2)
>>>>>>> Stashed changes
PARAMETRIC_REPRESENTATION_CONTEXT() REPRESENTATION_CONTEXT('2D SPACE',''
  ) );
#226 = PCURVE('',#97,#227);
#227 = DEFINITIONAL_REPRESENTATION('',(#228),#231);
#228 = B_SPLINE_CURVE_WITH_KNOTS('',1,(#229,#230),.UNSPECIFIED.,.F.,.F.,
  (2,2),(-44.38351365237,-39.38351365237),.PIECEWISE_BEZIER_KNOTS.);
#229 = CARTESIAN_POINT('',(140.23223304703,-14.6966991411));
#230 = CARTESIAN_POINT('',(136.6966991411,-18.23223304703));
<<<<<<< Updated upstream
#231 = ( GEOMETRIC_REPRESENTATION_CONTEXT(2)
=======
#231 = ( GEOMETRIC_REPRESENTATION_CONTEXT(2)
>>>>>>> Stashed changes
PARAMETRIC_REPRESENTATION_CONTEXT() REPRESENTATION_CONTEXT('2D SPACE',''
  ) );
#232 = ORIENTED_EDGE('',*,*,#233,.T.);
#233 = EDGE_CURVE('',#213,#140,#234,.T.);
#234 = SURFACE_CURVE('',#235,(#239,#246),.PCURVE_S1.);
#235 = LINE('',#236,#237);
#236 = CARTESIAN_POINT('',(9.767766952966,3.,14.696699141101));
#237 = VECTOR('',#238,1.);
#238 = DIRECTION('',(0.,1.,0.));
#239 = PCURVE('',#122,#240);
#240 = DEFINITIONAL_REPRESENTATION('',(#241),#245);
#241 = LINE('',#242,#243);
#242 = CARTESIAN_POINT('',(0.,0.));
#243 = VECTOR('',#244,1.);
#244 = DIRECTION('',(0.,-1.));
<<<<<<< Updated upstream
#245 = ( GEOMETRIC_REPRESENTATION_CONTEXT(2)
=======
#245 = ( GEOMETRIC_REPRESENTATION_CONTEXT(2)
>>>>>>> Stashed changes
PARAMETRIC_REPRESENTATION_CONTEXT() REPRESENTATION_CONTEXT('2D SPACE',''
  ) );
#246 = PCURVE('',#155,#247);
#247 = DEFINITIONAL_REPRESENTATION('',(#248),#252);
#248 = LINE('',#249,#250);
#249 = CARTESIAN_POINT('',(10.,0.));
#250 = VECTOR('',#251,1.);
#251 = DIRECTION('',(0.,1.));
<<<<<<< Updated upstream
#252 = ( GEOMETRIC_REPRESENTATION_CONTEXT(2)
=======
#252 = ( GEOMETRIC_REPRESENTATION_CONTEXT(2)
>>>>>>> Stashed changes
PARAMETRIC_REPRESENTATION_CONTEXT() REPRESENTATION_CONTEXT('2D SPACE',''
  ) );
#253 = ORIENTED_EDGE('',*,*,#187,.T.);
#254 = ADVANCED_FACE('',(#255),#97,.F.);
#255 = FACE_BOUND('',#256,.F.);
#256 = EDGE_LOOP('',(#257,#287,#315,#343,#364,#365,#366,#387));
#257 = ORIENTED_EDGE('',*,*,#258,.F.);
#258 = EDGE_CURVE('',#259,#261,#263,.T.);
#259 = VERTEX_POINT('',#260);
#260 = CARTESIAN_POINT('',(150.,8.,0.));
#261 = VERTEX_POINT('',#262);
#262 = CARTESIAN_POINT('',(8.,8.,0.));
#263 = SURFACE_CURVE('',#264,(#268,#275),.PCURVE_S1.);
#264 = LINE('',#265,#266);
#265 = CARTESIAN_POINT('',(150.,8.,0.));
#266 = VECTOR('',#267,1.);
#267 = DIRECTION('',(-1.,0.,0.));
#268 = PCURVE('',#97,#269);
#269 = DEFINITIONAL_REPRESENTATION('',(#270),#274);
#270 = LINE('',#271,#272);
#271 = CARTESIAN_POINT('',(0.,-0.));
#272 = VECTOR('',#273,1.);
#273 = DIRECTION('',(1.,0.));
<<<<<<< Updated upstream
#274 = ( GEOMETRIC_REPRESENTATION_CONTEXT(2)
=======
#274 = ( GEOMETRIC_REPRESENTATION_CONTEXT(2)
>>>>>>> Stashed changes
PARAMETRIC_REPRESENTATION_CONTEXT() REPRESENTATION_CONTEXT('2D SPACE',''
  ) );
#275 = PCURVE('',#276,#281);
#276 = PLANE('',#277);
#277 = AXIS2_PLACEMENT_3D('',#278,#279,#280);
#278 = CARTESIAN_POINT('',(41.393333333333,41.393333333333,0.));
#279 = DIRECTION('',(0.,0.,1.));
#280 = DIRECTION('',(1.,0.,0.));
#281 = DEFINITIONAL_REPRESENTATION('',(#282),#286);
#282 = LINE('',#283,#284);
#283 = CARTESIAN_POINT('',(108.60666666666,-33.39333333333));
#284 = VECTOR('',#285,1.);
#285 = DIRECTION('',(-1.,0.));
<<<<<<< Updated upstream
#286 = ( GEOMETRIC_REPRESENTATION_CONTEXT(2)
=======
#286 = ( GEOMETRIC_REPRESENTATION_CONTEXT(2)
>>>>>>> Stashed changes
PARAMETRIC_REPRESENTATION_CONTEXT() REPRESENTATION_CONTEXT('2D SPACE',''
  ) );
#287 = ORIENTED_EDGE('',*,*,#288,.T.);
#288 = EDGE_CURVE('',#259,#289,#291,.T.);
#289 = VERTEX_POINT('',#290);
#290 = CARTESIAN_POINT('',(150.,8.,40.));
#291 = SURFACE_CURVE('',#292,(#296,#303),.PCURVE_S1.);
#292 = LINE('',#293,#294);
#293 = CARTESIAN_POINT('',(150.,8.,0.));
#294 = VECTOR('',#295,1.);
#295 = DIRECTION('',(0.,0.,1.));
#296 = PCURVE('',#97,#297);
#297 = DEFINITIONAL_REPRESENTATION('',(#298),#302);
#298 = LINE('',#299,#300);
#299 = CARTESIAN_POINT('',(0.,-0.));
#300 = VECTOR('',#301,1.);
#301 = DIRECTION('',(0.,-1.));
<<<<<<< Updated upstream
#302 = ( GEOMETRIC_REPRESENTATION_CONTEXT(2)
=======
#302 = ( GEOMETRIC_REPRESENTATION_CONTEXT(2)
>>>>>>> Stashed changes
PARAMETRIC_REPRESENTATION_CONTEXT() REPRESENTATION_CONTEXT('2D SPACE',''
  ) );
#303 = PCURVE('',#304,#309);
#304 = PLANE('',#305);
#305 = AXIS2_PLACEMENT_3D('',#306,#307,#308);
#306 = CARTESIAN_POINT('',(150.,0.,0.));
#307 = DIRECTION('',(-1.,0.,0.));
#308 = DIRECTION('',(0.,1.,0.));
#309 = DEFINITIONAL_REPRESENTATION('',(#310),#314);
#310 = LINE('',#311,#312);
#311 = CARTESIAN_POINT('',(8.,0.));
#312 = VECTOR('',#313,1.);
#313 = DIRECTION('',(0.,-1.));
<<<<<<< Updated upstream
#314 = ( GEOMETRIC_REPRESENTATION_CONTEXT(2)
=======
#314 = ( GEOMETRIC_REPRESENTATION_CONTEXT(2)
>>>>>>> Stashed changes
PARAMETRIC_REPRESENTATION_CONTEXT() REPRESENTATION_CONTEXT('2D SPACE',''
  ) );
#315 = ORIENTED_EDGE('',*,*,#316,.T.);
#316 = EDGE_CURVE('',#289,#317,#319,.T.);
#317 = VERTEX_POINT('',#318);
#318 = CARTESIAN_POINT('',(8.,8.,40.));
#319 = SURFACE_CURVE('',#320,(#324,#331),.PCURVE_S1.);
#320 = LINE('',#321,#322);
#321 = CARTESIAN_POINT('',(150.,8.,40.));
#322 = VECTOR('',#323,1.);
#323 = DIRECTION('',(-1.,0.,0.));
#324 = PCURVE('',#97,#325);
#325 = DEFINITIONAL_REPRESENTATION('',(#326),#330);
#326 = LINE('',#327,#328);
#327 = CARTESIAN_POINT('',(0.,-40.));
#328 = VECTOR('',#329,1.);
#329 = DIRECTION('',(1.,0.));
<<<<<<< Updated upstream
#330 = ( GEOMETRIC_REPRESENTATION_CONTEXT(2)
=======
#330 = ( GEOMETRIC_REPRESENTATION_CONTEXT(2)
>>>>>>> Stashed changes
PARAMETRIC_REPRESENTATION_CONTEXT() REPRESENTATION_CONTEXT('2D SPACE',''
  ) );
#331 = PCURVE('',#332,#337);
#332 = PLANE('',#333);
#333 = AXIS2_PLACEMENT_3D('',#334,#335,#336);
#334 = CARTESIAN_POINT('',(41.393333333333,41.393333333333,40.));
#335 = DIRECTION('',(0.,0.,1.));
#336 = DIRECTION('',(1.,0.,0.));
#337 = DEFINITIONAL_REPRESENTATION('',(#338),#342);
#338 = LINE('',#339,#340);
#339 = CARTESIAN_POINT('',(108.60666666666,-33.39333333333));
#340 = VECTOR('',#341,1.);
#341 = DIRECTION('',(-1.,0.));
<<<<<<< Updated upstream
#342 = ( GEOMETRIC_REPRESENTATION_CONTEXT(2)
=======
#342 = ( GEOMETRIC_REPRESENTATION_CONTEXT(2)
>>>>>>> Stashed changes
PARAMETRIC_REPRESENTATION_CONTEXT() REPRESENTATION_CONTEXT('2D SPACE',''
  ) );
#343 = ORIENTED_EDGE('',*,*,#344,.F.);
#344 = EDGE_CURVE('',#57,#317,#345,.T.);
#345 = SURFACE_CURVE('',#346,(#350,#357),.PCURVE_S1.);
#346 = LINE('',#347,#348);
#347 = CARTESIAN_POINT('',(8.,8.,0.));
#348 = VECTOR('',#349,1.);
#349 = DIRECTION('',(0.,0.,1.));
#350 = PCURVE('',#97,#351);
#351 = DEFINITIONAL_REPRESENTATION('',(#352),#356);
#352 = LINE('',#353,#354);
#353 = CARTESIAN_POINT('',(142.,0.));
#354 = VECTOR('',#355,1.);
#355 = DIRECTION('',(0.,-1.));
<<<<<<< Updated upstream
#356 = ( GEOMETRIC_REPRESENTATION_CONTEXT(2)
=======
#356 = ( GEOMETRIC_REPRESENTATION_CONTEXT(2)
>>>>>>> Stashed changes
PARAMETRIC_REPRESENTATION_CONTEXT() REPRESENTATION_CONTEXT('2D SPACE',''
  ) );
#357 = PCURVE('',#71,#358);
#358 = DEFINITIONAL_REPRESENTATION('',(#359),#363);
#359 = LINE('',#360,#361);
#360 = CARTESIAN_POINT('',(0.,0.));
#361 = VECTOR('',#362,1.);
#362 = DIRECTION('',(0.,-1.));
<<<<<<< Updated upstream
#363 = ( GEOMETRIC_REPRESENTATION_CONTEXT(2)
=======
#363 = ( GEOMETRIC_REPRESENTATION_CONTEXT(2)
>>>>>>> Stashed changes
PARAMETRIC_REPRESENTATION_CONTEXT() REPRESENTATION_CONTEXT('2D SPACE',''
  ) );
#364 = ORIENTED_EDGE('',*,*,#82,.F.);
#365 = ORIENTED_EDGE('',*,*,#212,.F.);
#366 = ORIENTED_EDGE('',*,*,#367,.T.);
#367 = EDGE_CURVE('',#213,#368,#370,.T.);
#368 = VERTEX_POINT('',#369);
#369 = CARTESIAN_POINT('',(8.,8.,16.464466094067));
#370 = SURFACE_CURVE('',#371,(#375,#381),.PCURVE_S1.);
#371 = LINE('',#372,#373);
#372 = CARTESIAN_POINT('',(44.964466094067,8.,-20.5));
#373 = VECTOR('',#374,1.);
#374 = DIRECTION('',(-0.707106781187,0.,0.707106781187));
#375 = PCURVE('',#97,#376);
#376 = DEFINITIONAL_REPRESENTATION('',(#377),#380);
#377 = B_SPLINE_CURVE_WITH_KNOTS('',1,(#378,#379),.UNSPECIFIED.,.F.,.F.,
  (2,2),(49.77564927611,52.27564927611),.PIECEWISE_BEZIER_KNOTS.);
#378 = CARTESIAN_POINT('',(140.23223304703,-14.6966991411));
#379 = CARTESIAN_POINT('',(142.,-16.46446609406));
<<<<<<< Updated upstream
#380 = ( GEOMETRIC_REPRESENTATION_CONTEXT(2)
=======
#380 = ( GEOMETRIC_REPRESENTATION_CONTEXT(2)
>>>>>>> Stashed changes
PARAMETRIC_REPRESENTATION_CONTEXT() REPRESENTATION_CONTEXT('2D SPACE',''
  ) );
#381 = PCURVE('',#155,#382);
#382 = DEFINITIONAL_REPRESENTATION('',(#383),#386);
#383 = B_SPLINE_CURVE_WITH_KNOTS('',1,(#384,#385),.UNSPECIFIED.,.F.,.F.,
  (2,2),(49.77564927611,52.27564927611),.PIECEWISE_BEZIER_KNOTS.);
#384 = CARTESIAN_POINT('',(10.,5.));
#385 = CARTESIAN_POINT('',(7.5,5.));
<<<<<<< Updated upstream
#386 = ( GEOMETRIC_REPRESENTATION_CONTEXT(2)
=======
#386 = ( GEOMETRIC_REPRESENTATION_CONTEXT(2)
>>>>>>> Stashed changes
PARAMETRIC_REPRESENTATION_CONTEXT() REPRESENTATION_CONTEXT('2D SPACE',''
  ) );
#387 = ORIENTED_EDGE('',*,*,#388,.F.);
#388 = EDGE_CURVE('',#261,#368,#389,.T.);
#389 = SURFACE_CURVE('',#390,(#394,#401),.PCURVE_S1.);
#390 = LINE('',#391,#392);
#391 = CARTESIAN_POINT('',(8.,8.,0.));
#392 = VECTOR('',#393,1.);
#393 = DIRECTION('',(0.,0.,1.));
#394 = PCURVE('',#97,#395);
#395 = DEFINITIONAL_REPRESENTATION('',(#396),#400);
#396 = LINE('',#397,#398);
#397 = CARTESIAN_POINT('',(142.,0.));
#398 = VECTOR('',#399,1.);
#399 = DIRECTION('',(0.,-1.));
<<<<<<< Updated upstream
#400 = ( GEOMETRIC_REPRESENTATION_CONTEXT(2)
=======
#400 = ( GEOMETRIC_REPRESENTATION_CONTEXT(2)
>>>>>>> Stashed changes
PARAMETRIC_REPRESENTATION_CONTEXT() REPRESENTATION_CONTEXT('2D SPACE',''
  ) );
#401 = PCURVE('',#71,#402);
#402 = DEFINITIONAL_REPRESENTATION('',(#403),#407);
#403 = LINE('',#404,#405);
#404 = CARTESIAN_POINT('',(0.,0.));
#405 = VECTOR('',#406,1.);
#406 = DIRECTION('',(0.,-1.));
<<<<<<< Updated upstream
#407 = ( GEOMETRIC_REPRESENTATION_CONTEXT(2)
=======
#407 = ( GEOMETRIC_REPRESENTATION_CONTEXT(2)
>>>>>>> Stashed changes
PARAMETRIC_REPRESENTATION_CONTEXT() REPRESENTATION_CONTEXT('2D SPACE',''
  ) );
#408 = ADVANCED_FACE('',(#409,#506),#71,.F.);
#409 = FACE_BOUND('',#410,.F.);
#410 = EDGE_LOOP('',(#411,#434,#435,#454,#455,#456,#457,#480));
#411 = ORIENTED_EDGE('',*,*,#412,.F.);
#412 = EDGE_CURVE('',#261,#413,#415,.T.);
#413 = VERTEX_POINT('',#414);
#414 = CARTESIAN_POINT('',(8.,150.,0.));
#415 = SURFACE_CURVE('',#416,(#420,#427),.PCURVE_S1.);
#416 = LINE('',#417,#418);
#417 = CARTESIAN_POINT('',(8.,8.,0.));
#418 = VECTOR('',#419,1.);
#419 = DIRECTION('',(0.,1.,0.));
#420 = PCURVE('',#71,#421);
#421 = DEFINITIONAL_REPRESENTATION('',(#422),#426);
#422 = LINE('',#423,#424);
#423 = CARTESIAN_POINT('',(0.,0.));
#424 = VECTOR('',#425,1.);
#425 = DIRECTION('',(1.,0.));
<<<<<<< Updated upstream
#426 = ( GEOMETRIC_REPRESENTATION_CONTEXT(2)
=======
#426 = ( GEOMETRIC_REPRESENTATION_CONTEXT(2)
>>>>>>> Stashed changes
PARAMETRIC_REPRESENTATION_CONTEXT() REPRESENTATION_CONTEXT('2D SPACE',''
  ) );
#427 = PCURVE('',#276,#428);
#428 = DEFINITIONAL_REPRESENTATION('',(#429),#433);
#429 = LINE('',#430,#431);
#430 = CARTESIAN_POINT('',(-33.39333333333,-33.39333333333));
#431 = VECTOR('',#432,1.);
#432 = DIRECTION('',(0.,1.));
<<<<<<< Updated upstream
#433 = ( GEOMETRIC_REPRESENTATION_CONTEXT(2)
=======
#433 = ( GEOMETRIC_REPRESENTATION_CONTEXT(2)
>>>>>>> Stashed changes
PARAMETRIC_REPRESENTATION_CONTEXT() REPRESENTATION_CONTEXT('2D SPACE',''
  ) );
#434 = ORIENTED_EDGE('',*,*,#388,.T.);
#435 = ORIENTED_EDGE('',*,*,#436,.T.);
#436 = EDGE_CURVE('',#368,#138,#437,.T.);
#437 = SURFACE_CURVE('',#438,(#442,#448),.PCURVE_S1.);
#438 = LINE('',#439,#440);
#439 = CARTESIAN_POINT('',(8.,5.5,16.464466094067));
#440 = VECTOR('',#441,1.);
#441 = DIRECTION('',(0.,1.,-0.));
#442 = PCURVE('',#71,#443);
#443 = DEFINITIONAL_REPRESENTATION('',(#444),#447);
#444 = B_SPLINE_CURVE_WITH_KNOTS('',1,(#445,#446),.UNSPECIFIED.,.F.,.F.,
  (2,2),(2.5,7.5),.PIECEWISE_BEZIER_KNOTS.);
#445 = CARTESIAN_POINT('',(0.,-16.46446609406));
#446 = CARTESIAN_POINT('',(5.,-16.46446609406));
<<<<<<< Updated upstream
#447 = ( GEOMETRIC_REPRESENTATION_CONTEXT(2)
=======
#447 = ( GEOMETRIC_REPRESENTATION_CONTEXT(2)
>>>>>>> Stashed changes
PARAMETRIC_REPRESENTATION_CONTEXT() REPRESENTATION_CONTEXT('2D SPACE',''
  ) );
#448 = PCURVE('',#155,#449);
#449 = DEFINITIONAL_REPRESENTATION('',(#450),#453);
#450 = B_SPLINE_CURVE_WITH_KNOTS('',1,(#451,#452),.UNSPECIFIED.,.F.,.F.,
  (2,2),(2.5,7.5),.PIECEWISE_BEZIER_KNOTS.);
#451 = CARTESIAN_POINT('',(7.5,5.));
#452 = CARTESIAN_POINT('',(7.5,10.));
<<<<<<< Updated upstream
#453 = ( GEOMETRIC_REPRESENTATION_CONTEXT(2)
=======
#453 = ( GEOMETRIC_REPRESENTATION_CONTEXT(2)
>>>>>>> Stashed changes
PARAMETRIC_REPRESENTATION_CONTEXT() REPRESENTATION_CONTEXT('2D SPACE',''
  ) );
#454 = ORIENTED_EDGE('',*,*,#167,.F.);
#455 = ORIENTED_EDGE('',*,*,#56,.F.);
#456 = ORIENTED_EDGE('',*,*,#344,.T.);
#457 = ORIENTED_EDGE('',*,*,#458,.T.);
#458 = EDGE_CURVE('',#317,#459,#461,.T.);
#459 = VERTEX_POINT('',#460);
#460 = CARTESIAN_POINT('',(8.,150.,40.));
#461 = SURFACE_CURVE('',#462,(#466,#473),.PCURVE_S1.);
#462 = LINE('',#463,#464);
#463 = CARTESIAN_POINT('',(8.,8.,40.));
#464 = VECTOR('',#465,1.);
#465 = DIRECTION('',(0.,1.,0.));
#466 = PCURVE('',#71,#467);
#467 = DEFINITIONAL_REPRESENTATION('',(#468),#472);
#468 = LINE('',#469,#470);
#469 = CARTESIAN_POINT('',(0.,-40.));
#470 = VECTOR('',#471,1.);
#471 = DIRECTION('',(1.,0.));
<<<<<<< Updated upstream
#472 = ( GEOMETRIC_REPRESENTATION_CONTEXT(2)
=======
#472 = ( GEOMETRIC_REPRESENTATION_CONTEXT(2)
>>>>>>> Stashed changes
PARAMETRIC_REPRESENTATION_CONTEXT() REPRESENTATION_CONTEXT('2D SPACE',''
  ) );
#473 = PCURVE('',#332,#474);
#474 = DEFINITIONAL_REPRESENTATION('',(#475),#479);
#475 = LINE('',#476,#477);
#476 = CARTESIAN_POINT('',(-33.39333333333,-33.39333333333));
#477 = VECTOR('',#478,1.);
#478 = DIRECTION('',(0.,1.));
<<<<<<< Updated upstream
#479 = ( GEOMETRIC_REPRESENTATION_CONTEXT(2)
=======
#479 = ( GEOMETRIC_REPRESENTATION_CONTEXT(2)
>>>>>>> Stashed changes
PARAMETRIC_REPRESENTATION_CONTEXT() REPRESENTATION_CONTEXT('2D SPACE',''
  ) );
#480 = ORIENTED_EDGE('',*,*,#481,.F.);
#481 = EDGE_CURVE('',#413,#459,#482,.T.);
#482 = SURFACE_CURVE('',#483,(#487,#494),.PCURVE_S1.);
#483 = LINE('',#484,#485);
#484 = CARTESIAN_POINT('',(8.,150.,0.));
#485 = VECTOR('',#486,1.);
#486 = DIRECTION('',(0.,0.,1.));
#487 = PCURVE('',#71,#488);
#488 = DEFINITIONAL_REPRESENTATION('',(#489),#493);
#489 = LINE('',#490,#491);
#490 = CARTESIAN_POINT('',(142.,0.));
#491 = VECTOR('',#492,1.);
#492 = DIRECTION('',(0.,-1.));
<<<<<<< Updated upstream
#493 = ( GEOMETRIC_REPRESENTATION_CONTEXT(2)
=======
#493 = ( GEOMETRIC_REPRESENTATION_CONTEXT(2)
>>>>>>> Stashed changes
PARAMETRIC_REPRESENTATION_CONTEXT() REPRESENTATION_CONTEXT('2D SPACE',''
  ) );
#494 = PCURVE('',#495,#500);
#495 = PLANE('',#496);
#496 = AXIS2_PLACEMENT_3D('',#497,#498,#499);
#497 = CARTESIAN_POINT('',(8.,150.,0.));
#498 = DIRECTION('',(0.,-1.,0.));
#499 = DIRECTION('',(-1.,0.,0.));
#500 = DEFINITIONAL_REPRESENTATION('',(#501),#505);
#501 = LINE('',#502,#503);
#502 = CARTESIAN_POINT('',(0.,-0.));
#503 = VECTOR('',#504,1.);
#504 = DIRECTION('',(0.,-1.));
<<<<<<< Updated upstream
#505 = ( GEOMETRIC_REPRESENTATION_CONTEXT(2)
=======
#505 = ( GEOMETRIC_REPRESENTATION_CONTEXT(2)
>>>>>>> Stashed changes
PARAMETRIC_REPRESENTATION_CONTEXT() REPRESENTATION_CONTEXT('2D SPACE',''
  ) );
#506 = FACE_BOUND('',#507,.F.);
#507 = EDGE_LOOP('',(#508));
#508 = ORIENTED_EDGE('',*,*,#509,.T.);
#509 = EDGE_CURVE('',#510,#510,#512,.T.);
#510 = VERTEX_POINT('',#511);
#511 = CARTESIAN_POINT('',(8.,105.,17.25));
#512 = SURFACE_CURVE('',#513,(#518,#529),.PCURVE_S1.);
#513 = CIRCLE('',#514,2.75);
#514 = AXIS2_PLACEMENT_3D('',#515,#516,#517);
#515 = CARTESIAN_POINT('',(8.,105.,20.));
#516 = DIRECTION('',(1.,0.,2.22044604925E-16));
#517 = DIRECTION('',(2.22044604925E-16,0.,-1.));
#518 = PCURVE('',#71,#519);
#519 = DEFINITIONAL_REPRESENTATION('',(#520),#528);
#520 = ( BOUNDED_CURVE() B_SPLINE_CURVE(2,(#521,#522,#523,#524,#525,#526
,#527),.UNSPECIFIED.,.T.,.F.) B_SPLINE_CURVE_WITH_KNOTS((1,2,2,2,2,1),(
    -2.094395102393,0.,2.094395102393,4.188790204786,6.28318530718,
<<<<<<< Updated upstream
8.377580409573),.UNSPECIFIED.) CURVE() GEOMETRIC_REPRESENTATION_ITEM()
=======
8.377580409573),.UNSPECIFIED.) CURVE() GEOMETRIC_REPRESENTATION_ITEM()
>>>>>>> Stashed changes
RATIONAL_B_SPLINE_CURVE((1.,0.5,1.,0.5,1.,0.5,1.)) REPRESENTATION_ITEM(
  '') );
#521 = CARTESIAN_POINT('',(97.,-17.25));
#522 = CARTESIAN_POINT('',(101.76313972081,-17.25));
#523 = CARTESIAN_POINT('',(99.381569860407,-21.375));
#524 = CARTESIAN_POINT('',(97.,-25.5));
#525 = CARTESIAN_POINT('',(94.618430139593,-21.375));
#526 = CARTESIAN_POINT('',(92.236860279186,-17.25));
#527 = CARTESIAN_POINT('',(97.,-17.25));
<<<<<<< Updated upstream
#528 = ( GEOMETRIC_REPRESENTATION_CONTEXT(2)
=======
#528 = ( GEOMETRIC_REPRESENTATION_CONTEXT(2)
>>>>>>> Stashed changes
PARAMETRIC_REPRESENTATION_CONTEXT() REPRESENTATION_CONTEXT('2D SPACE',''
  ) );
#529 = PCURVE('',#530,#535);
#530 = CYLINDRICAL_SURFACE('',#531,2.75);
#531 = AXIS2_PLACEMENT_3D('',#532,#533,#534);
#532 = CARTESIAN_POINT('',(-1.,105.,20.));
#533 = DIRECTION('',(1.,0.,2.22044604925E-16));
#534 = DIRECTION('',(2.22044604925E-16,0.,-1.));
#535 = DEFINITIONAL_REPRESENTATION('',(#536),#540);
#536 = LINE('',#537,#538);
#537 = CARTESIAN_POINT('',(0.,9.));
#538 = VECTOR('',#539,1.);
#539 = DIRECTION('',(1.,0.));
<<<<<<< Updated upstream
#540 = ( GEOMETRIC_REPRESENTATION_CONTEXT(2)
=======
#540 = ( GEOMETRIC_REPRESENTATION_CONTEXT(2)
>>>>>>> Stashed changes
PARAMETRIC_REPRESENTATION_CONTEXT() REPRESENTATION_CONTEXT('2D SPACE',''
  ) );
#541 = ADVANCED_FACE('',(#542),#155,.F.);
#542 = FACE_BOUND('',#543,.F.);
#543 = EDGE_LOOP('',(#544,#545,#546,#547));
#544 = ORIENTED_EDGE('',*,*,#137,.F.);
#545 = ORIENTED_EDGE('',*,*,#436,.F.);
#546 = ORIENTED_EDGE('',*,*,#367,.F.);
#547 = ORIENTED_EDGE('',*,*,#233,.T.);
#548 = ADVANCED_FACE('',(#549),#276,.F.);
#549 = FACE_BOUND('',#550,.F.);
#550 = EDGE_LOOP('',(#551,#581,#602,#603,#604,#627));
#551 = ORIENTED_EDGE('',*,*,#552,.T.);
#552 = EDGE_CURVE('',#553,#555,#557,.T.);
#553 = VERTEX_POINT('',#554);
#554 = CARTESIAN_POINT('',(0.,0.,0.));
#555 = VERTEX_POINT('',#556);
#556 = CARTESIAN_POINT('',(150.,0.,0.));
#557 = SURFACE_CURVE('',#558,(#562,#569),.PCURVE_S1.);
#558 = LINE('',#559,#560);
#559 = CARTESIAN_POINT('',(0.,0.,0.));
#560 = VECTOR('',#561,1.);
#561 = DIRECTION('',(1.,0.,0.));
#562 = PCURVE('',#276,#563);
#563 = DEFINITIONAL_REPRESENTATION('',(#564),#568);
#564 = LINE('',#565,#566);
#565 = CARTESIAN_POINT('',(-41.39333333333,-41.39333333333));
#566 = VECTOR('',#567,1.);
#567 = DIRECTION('',(1.,0.));
<<<<<<< Updated upstream
#568 = ( GEOMETRIC_REPRESENTATION_CONTEXT(2)
=======
#568 = ( GEOMETRIC_REPRESENTATION_CONTEXT(2)
>>>>>>> Stashed changes
PARAMETRIC_REPRESENTATION_CONTEXT() REPRESENTATION_CONTEXT('2D SPACE',''
  ) );
#569 = PCURVE('',#570,#575);
#570 = PLANE('',#571);
#571 = AXIS2_PLACEMENT_3D('',#572,#573,#574);
#572 = CARTESIAN_POINT('',(0.,0.,0.));
#573 = DIRECTION('',(0.,1.,0.));
#574 = DIRECTION('',(1.,0.,0.));
#575 = DEFINITIONAL_REPRESENTATION('',(#576),#580);
#576 = LINE('',#577,#578);
#577 = CARTESIAN_POINT('',(0.,0.));
#578 = VECTOR('',#579,1.);
#579 = DIRECTION('',(1.,0.));
<<<<<<< Updated upstream
#580 = ( GEOMETRIC_REPRESENTATION_CONTEXT(2)
=======
#580 = ( GEOMETRIC_REPRESENTATION_CONTEXT(2)
>>>>>>> Stashed changes
PARAMETRIC_REPRESENTATION_CONTEXT() REPRESENTATION_CONTEXT('2D SPACE',''
  ) );
#581 = ORIENTED_EDGE('',*,*,#582,.T.);
#582 = EDGE_CURVE('',#555,#259,#583,.T.);
#583 = SURFACE_CURVE('',#584,(#588,#595),.PCURVE_S1.);
#584 = LINE('',#585,#586);
#585 = CARTESIAN_POINT('',(150.,0.,0.));
#586 = VECTOR('',#587,1.);
#587 = DIRECTION('',(0.,1.,0.));
#588 = PCURVE('',#276,#589);
#589 = DEFINITIONAL_REPRESENTATION('',(#590),#594);
#590 = LINE('',#591,#592);
#591 = CARTESIAN_POINT('',(108.60666666666,-41.39333333333));
#592 = VECTOR('',#593,1.);
#593 = DIRECTION('',(0.,1.));
<<<<<<< Updated upstream
#594 = ( GEOMETRIC_REPRESENTATION_CONTEXT(2)
=======
#594 = ( GEOMETRIC_REPRESENTATION_CONTEXT(2)
>>>>>>> Stashed changes
PARAMETRIC_REPRESENTATION_CONTEXT() REPRESENTATION_CONTEXT('2D SPACE',''
  ) );
#595 = PCURVE('',#304,#596);
#596 = DEFINITIONAL_REPRESENTATION('',(#597),#601);
#597 = LINE('',#598,#599);
#598 = CARTESIAN_POINT('',(0.,0.));
#599 = VECTOR('',#600,1.);
#600 = DIRECTION('',(1.,0.));
<<<<<<< Updated upstream
#601 = ( GEOMETRIC_REPRESENTATION_CONTEXT(2)
=======
#601 = ( GEOMETRIC_REPRESENTATION_CONTEXT(2)
>>>>>>> Stashed changes
PARAMETRIC_REPRESENTATION_CONTEXT() REPRESENTATION_CONTEXT('2D SPACE',''
  ) );
#602 = ORIENTED_EDGE('',*,*,#258,.T.);
#603 = ORIENTED_EDGE('',*,*,#412,.T.);
#604 = ORIENTED_EDGE('',*,*,#605,.T.);
#605 = EDGE_CURVE('',#413,#606,#608,.T.);
#606 = VERTEX_POINT('',#607);
#607 = CARTESIAN_POINT('',(0.,150.,0.));
#608 = SURFACE_CURVE('',#609,(#613,#620),.PCURVE_S1.);
#609 = LINE('',#610,#611);
#610 = CARTESIAN_POINT('',(8.,150.,0.));
#611 = VECTOR('',#612,1.);
#612 = DIRECTION('',(-1.,0.,0.));
#613 = PCURVE('',#276,#614);
#614 = DEFINITIONAL_REPRESENTATION('',(#615),#619);
#615 = LINE('',#616,#617);
#616 = CARTESIAN_POINT('',(-33.39333333333,108.60666666666));
#617 = VECTOR('',#618,1.);
#618 = DIRECTION('',(-1.,0.));
<<<<<<< Updated upstream
#619 = ( GEOMETRIC_REPRESENTATION_CONTEXT(2)
=======
#619 = ( GEOMETRIC_REPRESENTATION_CONTEXT(2)
>>>>>>> Stashed changes
PARAMETRIC_REPRESENTATION_CONTEXT() REPRESENTATION_CONTEXT('2D SPACE',''
  ) );
#620 = PCURVE('',#495,#621);
#621 = DEFINITIONAL_REPRESENTATION('',(#622),#626);
#622 = LINE('',#623,#624);
#623 = CARTESIAN_POINT('',(0.,-0.));
#624 = VECTOR('',#625,1.);
#625 = DIRECTION('',(1.,0.));
<<<<<<< Updated upstream
#626 = ( GEOMETRIC_REPRESENTATION_CONTEXT(2)
=======
#626 = ( GEOMETRIC_REPRESENTATION_CONTEXT(2)
>>>>>>> Stashed changes
PARAMETRIC_REPRESENTATION_CONTEXT() REPRESENTATION_CONTEXT('2D SPACE',''
  ) );
#627 = ORIENTED_EDGE('',*,*,#628,.T.);
#628 = EDGE_CURVE('',#606,#553,#629,.T.);
#629 = SURFACE_CURVE('',#630,(#634,#641),.PCURVE_S1.);
#630 = LINE('',#631,#632);
#631 = CARTESIAN_POINT('',(0.,150.,0.));
#632 = VECTOR('',#633,1.);
#633 = DIRECTION('',(0.,-1.,0.));
#634 = PCURVE('',#276,#635);
#635 = DEFINITIONAL_REPRESENTATION('',(#636),#640);
#636 = LINE('',#637,#638);
#637 = CARTESIAN_POINT('',(-41.39333333333,108.60666666666));
#638 = VECTOR('',#639,1.);
#639 = DIRECTION('',(0.,-1.));
<<<<<<< Updated upstream
#640 = ( GEOMETRIC_REPRESENTATION_CONTEXT(2)
=======
#640 = ( GEOMETRIC_REPRESENTATION_CONTEXT(2)
>>>>>>> Stashed changes
PARAMETRIC_REPRESENTATION_CONTEXT() REPRESENTATION_CONTEXT('2D SPACE',''
  ) );
#641 = PCURVE('',#642,#647);
#642 = PLANE('',#643);
#643 = AXIS2_PLACEMENT_3D('',#644,#645,#646);
#644 = CARTESIAN_POINT('',(0.,150.,0.));
#645 = DIRECTION('',(1.,0.,-0.));
#646 = DIRECTION('',(0.,-1.,0.));
#647 = DEFINITIONAL_REPRESENTATION('',(#648),#652);
#648 = LINE('',#649,#650);
#649 = CARTESIAN_POINT('',(0.,0.));
#650 = VECTOR('',#651,1.);
#651 = DIRECTION('',(1.,0.));
<<<<<<< Updated upstream
#652 = ( GEOMETRIC_REPRESENTATION_CONTEXT(2)
=======
#652 = ( GEOMETRIC_REPRESENTATION_CONTEXT(2)
>>>>>>> Stashed changes
PARAMETRIC_REPRESENTATION_CONTEXT() REPRESENTATION_CONTEXT('2D SPACE',''
  ) );
#653 = ADVANCED_FACE('',(#654),#332,.T.);
#654 = FACE_BOUND('',#655,.T.);
#655 = EDGE_LOOP('',(#656,#681,#702,#703,#704,#727));
#656 = ORIENTED_EDGE('',*,*,#657,.T.);
#657 = EDGE_CURVE('',#658,#660,#662,.T.);
#658 = VERTEX_POINT('',#659);
#659 = CARTESIAN_POINT('',(0.,0.,40.));
#660 = VERTEX_POINT('',#661);
#661 = CARTESIAN_POINT('',(150.,0.,40.));
#662 = SURFACE_CURVE('',#663,(#667,#674),.PCURVE_S1.);
#663 = LINE('',#664,#665);
#664 = CARTESIAN_POINT('',(0.,0.,40.));
#665 = VECTOR('',#666,1.);
#666 = DIRECTION('',(1.,0.,0.));
#667 = PCURVE('',#332,#668);
#668 = DEFINITIONAL_REPRESENTATION('',(#669),#673);
#669 = LINE('',#670,#671);
#670 = CARTESIAN_POINT('',(-41.39333333333,-41.39333333333));
#671 = VECTOR('',#672,1.);
#672 = DIRECTION('',(1.,0.));
<<<<<<< Updated upstream
#673 = ( GEOMETRIC_REPRESENTATION_CONTEXT(2)
=======
#673 = ( GEOMETRIC_REPRESENTATION_CONTEXT(2)
>>>>>>> Stashed changes
PARAMETRIC_REPRESENTATION_CONTEXT() REPRESENTATION_CONTEXT('2D SPACE',''
  ) );
#674 = PCURVE('',#570,#675);
#675 = DEFINITIONAL_REPRESENTATION('',(#676),#680);
#676 = LINE('',#677,#678);
#677 = CARTESIAN_POINT('',(0.,-40.));
#678 = VECTOR('',#679,1.);
#679 = DIRECTION('',(1.,0.));
<<<<<<< Updated upstream
#680 = ( GEOMETRIC_REPRESENTATION_CONTEXT(2)
=======
#680 = ( GEOMETRIC_REPRESENTATION_CONTEXT(2)
>>>>>>> Stashed changes
PARAMETRIC_REPRESENTATION_CONTEXT() REPRESENTATION_CONTEXT('2D SPACE',''
  ) );
#681 = ORIENTED_EDGE('',*,*,#682,.T.);
#682 = EDGE_CURVE('',#660,#289,#683,.T.);
#683 = SURFACE_CURVE('',#684,(#688,#695),.PCURVE_S1.);
#684 = LINE('',#685,#686);
#685 = CARTESIAN_POINT('',(150.,0.,40.));
#686 = VECTOR('',#687,1.);
#687 = DIRECTION('',(0.,1.,0.));
#688 = PCURVE('',#332,#689);
#689 = DEFINITIONAL_REPRESENTATION('',(#690),#694);
#690 = LINE('',#691,#692);
#691 = CARTESIAN_POINT('',(108.60666666666,-41.39333333333));
#692 = VECTOR('',#693,1.);
#693 = DIRECTION('',(0.,1.));
<<<<<<< Updated upstream
#694 = ( GEOMETRIC_REPRESENTATION_CONTEXT(2)
=======
#694 = ( GEOMETRIC_REPRESENTATION_CONTEXT(2)
>>>>>>> Stashed changes
PARAMETRIC_REPRESENTATION_CONTEXT() REPRESENTATION_CONTEXT('2D SPACE',''
  ) );
#695 = PCURVE('',#304,#696);
#696 = DEFINITIONAL_REPRESENTATION('',(#697),#701);
#697 = LINE('',#698,#699);
#698 = CARTESIAN_POINT('',(0.,-40.));
#699 = VECTOR('',#700,1.);
#700 = DIRECTION('',(1.,0.));
<<<<<<< Updated upstream
#701 = ( GEOMETRIC_REPRESENTATION_CONTEXT(2)
=======
#701 = ( GEOMETRIC_REPRESENTATION_CONTEXT(2)
>>>>>>> Stashed changes
PARAMETRIC_REPRESENTATION_CONTEXT() REPRESENTATION_CONTEXT('2D SPACE',''
  ) );
#702 = ORIENTED_EDGE('',*,*,#316,.T.);
#703 = ORIENTED_EDGE('',*,*,#458,.T.);
#704 = ORIENTED_EDGE('',*,*,#705,.T.);
#705 = EDGE_CURVE('',#459,#706,#708,.T.);
#706 = VERTEX_POINT('',#707);
#707 = CARTESIAN_POINT('',(0.,150.,40.));
#708 = SURFACE_CURVE('',#709,(#713,#720),.PCURVE_S1.);
#709 = LINE('',#710,#711);
#710 = CARTESIAN_POINT('',(8.,150.,40.));
#711 = VECTOR('',#712,1.);
#712 = DIRECTION('',(-1.,0.,0.));
#713 = PCURVE('',#332,#714);
#714 = DEFINITIONAL_REPRESENTATION('',(#715),#719);
#715 = LINE('',#716,#717);
#716 = CARTESIAN_POINT('',(-33.39333333333,108.60666666666));
#717 = VECTOR('',#718,1.);
#718 = DIRECTION('',(-1.,0.));
<<<<<<< Updated upstream
#719 = ( GEOMETRIC_REPRESENTATION_CONTEXT(2)
=======
#719 = ( GEOMETRIC_REPRESENTATION_CONTEXT(2)
>>>>>>> Stashed changes
PARAMETRIC_REPRESENTATION_CONTEXT() REPRESENTATION_CONTEXT('2D SPACE',''
  ) );
#720 = PCURVE('',#495,#721);
#721 = DEFINITIONAL_REPRESENTATION('',(#722),#726);
#722 = LINE('',#723,#724);
#723 = CARTESIAN_POINT('',(0.,-40.));
#724 = VECTOR('',#725,1.);
#725 = DIRECTION('',(1.,0.));
<<<<<<< Updated upstream
#726 = ( GEOMETRIC_REPRESENTATION_CONTEXT(2)
=======
#726 = ( GEOMETRIC_REPRESENTATION_CONTEXT(2)
>>>>>>> Stashed changes
PARAMETRIC_REPRESENTATION_CONTEXT() REPRESENTATION_CONTEXT('2D SPACE',''
  ) );
#727 = ORIENTED_EDGE('',*,*,#728,.T.);
#728 = EDGE_CURVE('',#706,#658,#729,.T.);
#729 = SURFACE_CURVE('',#730,(#734,#741),.PCURVE_S1.);
#730 = LINE('',#731,#732);
#731 = CARTESIAN_POINT('',(0.,150.,40.));
#732 = VECTOR('',#733,1.);
#733 = DIRECTION('',(0.,-1.,0.));
#734 = PCURVE('',#332,#735);
#735 = DEFINITIONAL_REPRESENTATION('',(#736),#740);
#736 = LINE('',#737,#738);
#737 = CARTESIAN_POINT('',(-41.39333333333,108.60666666666));
#738 = VECTOR('',#739,1.);
#739 = DIRECTION('',(0.,-1.));
<<<<<<< Updated upstream
#740 = ( GEOMETRIC_REPRESENTATION_CONTEXT(2)
=======
#740 = ( GEOMETRIC_REPRESENTATION_CONTEXT(2)
>>>>>>> Stashed changes
PARAMETRIC_REPRESENTATION_CONTEXT() REPRESENTATION_CONTEXT('2D SPACE',''
  ) );
#741 = PCURVE('',#642,#742);
#742 = DEFINITIONAL_REPRESENTATION('',(#743),#747);
#743 = LINE('',#744,#745);
#744 = CARTESIAN_POINT('',(0.,-40.));
#745 = VECTOR('',#746,1.);
#746 = DIRECTION('',(1.,0.));
<<<<<<< Updated upstream
#747 = ( GEOMETRIC_REPRESENTATION_CONTEXT(2)
=======
#747 = ( GEOMETRIC_REPRESENTATION_CONTEXT(2)
>>>>>>> Stashed changes
PARAMETRIC_REPRESENTATION_CONTEXT() REPRESENTATION_CONTEXT('2D SPACE',''
  ) );
#748 = ADVANCED_FACE('',(#749),#304,.F.);
#749 = FACE_BOUND('',#750,.F.);
#750 = EDGE_LOOP('',(#751,#772,#773,#774));
#751 = ORIENTED_EDGE('',*,*,#752,.T.);
#752 = EDGE_CURVE('',#555,#660,#753,.T.);
#753 = SURFACE_CURVE('',#754,(#758,#765),.PCURVE_S1.);
#754 = LINE('',#755,#756);
#755 = CARTESIAN_POINT('',(150.,0.,0.));
#756 = VECTOR('',#757,1.);
#757 = DIRECTION('',(0.,0.,1.));
#758 = PCURVE('',#304,#759);
#759 = DEFINITIONAL_REPRESENTATION('',(#760),#764);
#760 = LINE('',#761,#762);
#761 = CARTESIAN_POINT('',(0.,0.));
#762 = VECTOR('',#763,1.);
#763 = DIRECTION('',(0.,-1.));
<<<<<<< Updated upstream
#764 = ( GEOMETRIC_REPRESENTATION_CONTEXT(2)
=======
#764 = ( GEOMETRIC_REPRESENTATION_CONTEXT(2)
>>>>>>> Stashed changes
PARAMETRIC_REPRESENTATION_CONTEXT() REPRESENTATION_CONTEXT('2D SPACE',''
  ) );
#765 = PCURVE('',#570,#766);
#766 = DEFINITIONAL_REPRESENTATION('',(#767),#771);
#767 = LINE('',#768,#769);
#768 = CARTESIAN_POINT('',(150.,0.));
#769 = VECTOR('',#770,1.);
#770 = DIRECTION('',(0.,-1.));
<<<<<<< Updated upstream
#771 = ( GEOMETRIC_REPRESENTATION_CONTEXT(2)
=======
#771 = ( GEOMETRIC_REPRESENTATION_CONTEXT(2)
>>>>>>> Stashed changes
PARAMETRIC_REPRESENTATION_CONTEXT() REPRESENTATION_CONTEXT('2D SPACE',''
  ) );
#772 = ORIENTED_EDGE('',*,*,#682,.T.);
#773 = ORIENTED_EDGE('',*,*,#288,.F.);
#774 = ORIENTED_EDGE('',*,*,#582,.F.);
#775 = ADVANCED_FACE('',(#776),#495,.F.);
#776 = FACE_BOUND('',#777,.F.);
#777 = EDGE_LOOP('',(#778,#779,#780,#801));
#778 = ORIENTED_EDGE('',*,*,#481,.T.);
#779 = ORIENTED_EDGE('',*,*,#705,.T.);
#780 = ORIENTED_EDGE('',*,*,#781,.F.);
#781 = EDGE_CURVE('',#606,#706,#782,.T.);
#782 = SURFACE_CURVE('',#783,(#787,#794),.PCURVE_S1.);
#783 = LINE('',#784,#785);
#784 = CARTESIAN_POINT('',(0.,150.,0.));
#785 = VECTOR('',#786,1.);
#786 = DIRECTION('',(0.,0.,1.));
#787 = PCURVE('',#495,#788);
#788 = DEFINITIONAL_REPRESENTATION('',(#789),#793);
#789 = LINE('',#790,#791);
#790 = CARTESIAN_POINT('',(8.,0.));
#791 = VECTOR('',#792,1.);
#792 = DIRECTION('',(0.,-1.));
<<<<<<< Updated upstream
#793 = ( GEOMETRIC_REPRESENTATION_CONTEXT(2)
=======
#793 = ( GEOMETRIC_REPRESENTATION_CONTEXT(2)
>>>>>>> Stashed changes
PARAMETRIC_REPRESENTATION_CONTEXT() REPRESENTATION_CONTEXT('2D SPACE',''
  ) );
#794 = PCURVE('',#642,#795);
#795 = DEFINITIONAL_REPRESENTATION('',(#796),#800);
#796 = LINE('',#797,#798);
#797 = CARTESIAN_POINT('',(0.,0.));
#798 = VECTOR('',#799,1.);
#799 = DIRECTION('',(0.,-1.));
<<<<<<< Updated upstream
#800 = ( GEOMETRIC_REPRESENTATION_CONTEXT(2)
=======
#800 = ( GEOMETRIC_REPRESENTATION_CONTEXT(2)
>>>>>>> Stashed changes
PARAMETRIC_REPRESENTATION_CONTEXT() REPRESENTATION_CONTEXT('2D SPACE',''
  ) );
#801 = ORIENTED_EDGE('',*,*,#605,.F.);
#802 = ADVANCED_FACE('',(#803),#530,.F.);
#803 = FACE_BOUND('',#804,.F.);
#804 = EDGE_LOOP('',(#805,#806,#829,#851));
#805 = ORIENTED_EDGE('',*,*,#509,.F.);
#806 = ORIENTED_EDGE('',*,*,#807,.F.);
#807 = EDGE_CURVE('',#808,#510,#810,.T.);
#808 = VERTEX_POINT('',#809);
#809 = CARTESIAN_POINT('',(0.,105.,17.25));
#810 = SEAM_CURVE('',#811,(#815,#822),.PCURVE_S1.);
#811 = LINE('',#812,#813);
#812 = CARTESIAN_POINT('',(-1.,105.,17.25));
#813 = VECTOR('',#814,1.);
#814 = DIRECTION('',(1.,0.,2.22044604925E-16));
#815 = PCURVE('',#530,#816);
#816 = DEFINITIONAL_REPRESENTATION('',(#817),#821);
#817 = LINE('',#818,#819);
#818 = CARTESIAN_POINT('',(6.28318530718,-0.));
#819 = VECTOR('',#820,1.);
#820 = DIRECTION('',(0.,1.));
<<<<<<< Updated upstream
#821 = ( GEOMETRIC_REPRESENTATION_CONTEXT(2)
=======
#821 = ( GEOMETRIC_REPRESENTATION_CONTEXT(2)
>>>>>>> Stashed changes
PARAMETRIC_REPRESENTATION_CONTEXT() REPRESENTATION_CONTEXT('2D SPACE',''
  ) );
#822 = PCURVE('',#530,#823);
#823 = DEFINITIONAL_REPRESENTATION('',(#824),#828);
#824 = LINE('',#825,#826);
#825 = CARTESIAN_POINT('',(0.,-0.));
#826 = VECTOR('',#827,1.);
#827 = DIRECTION('',(0.,1.));
<<<<<<< Updated upstream
#828 = ( GEOMETRIC_REPRESENTATION_CONTEXT(2)
=======
#828 = ( GEOMETRIC_REPRESENTATION_CONTEXT(2)
>>>>>>> Stashed changes
PARAMETRIC_REPRESENTATION_CONTEXT() REPRESENTATION_CONTEXT('2D SPACE',''
  ) );
#829 = ORIENTED_EDGE('',*,*,#830,.T.);
#830 = EDGE_CURVE('',#808,#808,#831,.T.);
#831 = SURFACE_CURVE('',#832,(#837,#844),.PCURVE_S1.);
#832 = CIRCLE('',#833,2.75);
#833 = AXIS2_PLACEMENT_3D('',#834,#835,#836);
#834 = CARTESIAN_POINT('',(0.,105.,20.));
#835 = DIRECTION('',(1.,0.,2.22044604925E-16));
#836 = DIRECTION('',(2.22044604925E-16,0.,-1.));
#837 = PCURVE('',#530,#838);
#838 = DEFINITIONAL_REPRESENTATION('',(#839),#843);
#839 = LINE('',#840,#841);
#840 = CARTESIAN_POINT('',(0.,1.));
#841 = VECTOR('',#842,1.);
#842 = DIRECTION('',(1.,0.));
<<<<<<< Updated upstream
#843 = ( GEOMETRIC_REPRESENTATION_CONTEXT(2)
=======
#843 = ( GEOMETRIC_REPRESENTATION_CONTEXT(2)
>>>>>>> Stashed changes
PARAMETRIC_REPRESENTATION_CONTEXT() REPRESENTATION_CONTEXT('2D SPACE',''
  ) );
#844 = PCURVE('',#642,#845);
#845 = DEFINITIONAL_REPRESENTATION('',(#846),#850);
#846 = CIRCLE('',#847,2.75);
#847 = AXIS2_PLACEMENT_2D('',#848,#849);
#848 = CARTESIAN_POINT('',(45.,-20.));
#849 = DIRECTION('',(0.,1.));
<<<<<<< Updated upstream
#850 = ( GEOMETRIC_REPRESENTATION_CONTEXT(2)
=======
#850 = ( GEOMETRIC_REPRESENTATION_CONTEXT(2)
>>>>>>> Stashed changes
PARAMETRIC_REPRESENTATION_CONTEXT() REPRESENTATION_CONTEXT('2D SPACE',''
  ) );
#851 = ORIENTED_EDGE('',*,*,#807,.T.);
#852 = ADVANCED_FACE('',(#853),#570,.F.);
#853 = FACE_BOUND('',#854,.F.);
#854 = EDGE_LOOP('',(#855,#876,#877,#878));
#855 = ORIENTED_EDGE('',*,*,#856,.T.);
#856 = EDGE_CURVE('',#553,#658,#857,.T.);
#857 = SURFACE_CURVE('',#858,(#862,#869),.PCURVE_S1.);
#858 = LINE('',#859,#860);
#859 = CARTESIAN_POINT('',(0.,0.,0.));
#860 = VECTOR('',#861,1.);
#861 = DIRECTION('',(0.,0.,1.));
#862 = PCURVE('',#570,#863);
#863 = DEFINITIONAL_REPRESENTATION('',(#864),#868);
#864 = LINE('',#865,#866);
#865 = CARTESIAN_POINT('',(0.,0.));
#866 = VECTOR('',#867,1.);
#867 = DIRECTION('',(0.,-1.));
<<<<<<< Updated upstream
#868 = ( GEOMETRIC_REPRESENTATION_CONTEXT(2)
=======
#868 = ( GEOMETRIC_REPRESENTATION_CONTEXT(2)
>>>>>>> Stashed changes
PARAMETRIC_REPRESENTATION_CONTEXT() REPRESENTATION_CONTEXT('2D SPACE',''
  ) );
#869 = PCURVE('',#642,#870);
#870 = DEFINITIONAL_REPRESENTATION('',(#871),#875);
#871 = LINE('',#872,#873);
#872 = CARTESIAN_POINT('',(150.,0.));
#873 = VECTOR('',#874,1.);
#874 = DIRECTION('',(0.,-1.));
<<<<<<< Updated upstream
#875 = ( GEOMETRIC_REPRESENTATION_CONTEXT(2)
=======
#875 = ( GEOMETRIC_REPRESENTATION_CONTEXT(2)
>>>>>>> Stashed changes
PARAMETRIC_REPRESENTATION_CONTEXT() REPRESENTATION_CONTEXT('2D SPACE',''
  ) );
#876 = ORIENTED_EDGE('',*,*,#657,.T.);
#877 = ORIENTED_EDGE('',*,*,#752,.F.);
#878 = ORIENTED_EDGE('',*,*,#552,.F.);
#879 = ADVANCED_FACE('',(#880,#886),#642,.F.);
#880 = FACE_BOUND('',#881,.F.);
#881 = EDGE_LOOP('',(#882,#883,#884,#885));
#882 = ORIENTED_EDGE('',*,*,#781,.T.);
#883 = ORIENTED_EDGE('',*,*,#728,.T.);
#884 = ORIENTED_EDGE('',*,*,#856,.F.);
#885 = ORIENTED_EDGE('',*,*,#628,.F.);
#886 = FACE_BOUND('',#887,.F.);
#887 = EDGE_LOOP('',(#888));
#888 = ORIENTED_EDGE('',*,*,#830,.F.);
#889 = ORIENTED_CLOSED_SHELL('',*,#890,.F.);
#890 = CLOSED_SHELL('',(#891,#979,#983));
#891 = ADVANCED_FACE('',(#892),#905,.T.);
#892 = FACE_BOUND('',#893,.T.);
#893 = EDGE_LOOP('',(#894,#928,#951,#978));
#894 = ORIENTED_EDGE('',*,*,#895,.F.);
#895 = EDGE_CURVE('',#896,#896,#898,.T.);
#896 = VERTEX_POINT('',#897);
#897 = CARTESIAN_POINT('',(107.75,4.,25.));
#898 = SURFACE_CURVE('',#899,(#904,#916),.PCURVE_S1.);
#899 = CIRCLE('',#900,2.75);
#900 = AXIS2_PLACEMENT_3D('',#901,#902,#903);
#901 = CARTESIAN_POINT('',(105.,4.,25.));
#902 = DIRECTION('',(0.,0.,1.));
#903 = DIRECTION('',(1.,0.,0.));
#904 = PCURVE('',#905,#910);
#905 = CYLINDRICAL_SURFACE('',#906,2.75);
#906 = AXIS2_PLACEMENT_3D('',#907,#908,#909);
#907 = CARTESIAN_POINT('',(105.,4.,15.));
#908 = DIRECTION('',(0.,0.,1.));
#909 = DIRECTION('',(1.,0.,0.));
#910 = DEFINITIONAL_REPRESENTATION('',(#911),#915);
#911 = LINE('',#912,#913);
#912 = CARTESIAN_POINT('',(0.,10.));
#913 = VECTOR('',#914,1.);
#914 = DIRECTION('',(1.,0.));
<<<<<<< Updated upstream
#915 = ( GEOMETRIC_REPRESENTATION_CONTEXT(2)
=======
#915 = ( GEOMETRIC_REPRESENTATION_CONTEXT(2)
>>>>>>> Stashed changes
PARAMETRIC_REPRESENTATION_CONTEXT() REPRESENTATION_CONTEXT('2D SPACE',''
  ) );
#916 = PCURVE('',#917,#922);
#917 = PLANE('',#918);
#918 = AXIS2_PLACEMENT_3D('',#919,#920,#921);
#919 = CARTESIAN_POINT('',(105.,4.,25.));
#920 = DIRECTION('',(0.,0.,1.));
#921 = DIRECTION('',(1.,0.,0.));
#922 = DEFINITIONAL_REPRESENTATION('',(#923),#927);
#923 = CIRCLE('',#924,2.75);
#924 = AXIS2_PLACEMENT_2D('',#925,#926);
#925 = CARTESIAN_POINT('',(0.,0.));
#926 = DIRECTION('',(1.,0.));
<<<<<<< Updated upstream
#927 = ( GEOMETRIC_REPRESENTATION_CONTEXT(2)
=======
#927 = ( GEOMETRIC_REPRESENTATION_CONTEXT(2)
>>>>>>> Stashed changes
PARAMETRIC_REPRESENTATION_CONTEXT() REPRESENTATION_CONTEXT('2D SPACE',''
  ) );
#928 = ORIENTED_EDGE('',*,*,#929,.F.);
#929 = EDGE_CURVE('',#930,#896,#932,.T.);
#930 = VERTEX_POINT('',#931);
#931 = CARTESIAN_POINT('',(107.75,4.,15.));
#932 = SEAM_CURVE('',#933,(#937,#944),.PCURVE_S1.);
#933 = LINE('',#934,#935);
#934 = CARTESIAN_POINT('',(107.75,4.,15.));
#935 = VECTOR('',#936,1.);
#936 = DIRECTION('',(0.,0.,1.));
#937 = PCURVE('',#905,#938);
#938 = DEFINITIONAL_REPRESENTATION('',(#939),#943);
#939 = LINE('',#940,#941);
#940 = CARTESIAN_POINT('',(6.28318530718,-0.));
#941 = VECTOR('',#942,1.);
#942 = DIRECTION('',(0.,1.));
<<<<<<< Updated upstream
#943 = ( GEOMETRIC_REPRESENTATION_CONTEXT(2)
=======
#943 = ( GEOMETRIC_REPRESENTATION_CONTEXT(2)
>>>>>>> Stashed changes
PARAMETRIC_REPRESENTATION_CONTEXT() REPRESENTATION_CONTEXT('2D SPACE',''
  ) );
#944 = PCURVE('',#905,#945);
#945 = DEFINITIONAL_REPRESENTATION('',(#946),#950);
#946 = LINE('',#947,#948);
#947 = CARTESIAN_POINT('',(0.,-0.));
#948 = VECTOR('',#949,1.);
#949 = DIRECTION('',(0.,1.));
<<<<<<< Updated upstream
#950 = ( GEOMETRIC_REPRESENTATION_CONTEXT(2)
=======
#950 = ( GEOMETRIC_REPRESENTATION_CONTEXT(2)
>>>>>>> Stashed changes
PARAMETRIC_REPRESENTATION_CONTEXT() REPRESENTATION_CONTEXT('2D SPACE',''
  ) );
#951 = ORIENTED_EDGE('',*,*,#952,.T.);
#952 = EDGE_CURVE('',#930,#930,#953,.T.);
#953 = SURFACE_CURVE('',#954,(#959,#966),.PCURVE_S1.);
#954 = CIRCLE('',#955,2.75);
#955 = AXIS2_PLACEMENT_3D('',#956,#957,#958);
#956 = CARTESIAN_POINT('',(105.,4.,15.));
#957 = DIRECTION('',(0.,0.,1.));
#958 = DIRECTION('',(1.,0.,0.));
#959 = PCURVE('',#905,#960);
#960 = DEFINITIONAL_REPRESENTATION('',(#961),#965);
#961 = LINE('',#962,#963);
#962 = CARTESIAN_POINT('',(0.,0.));
#963 = VECTOR('',#964,1.);
#964 = DIRECTION('',(1.,0.));
<<<<<<< Updated upstream
#965 = ( GEOMETRIC_REPRESENTATION_CONTEXT(2)
=======
#965 = ( GEOMETRIC_REPRESENTATION_CONTEXT(2)
>>>>>>> Stashed changes
PARAMETRIC_REPRESENTATION_CONTEXT() REPRESENTATION_CONTEXT('2D SPACE',''
  ) );
#966 = PCURVE('',#967,#972);
#967 = PLANE('',#968);
#968 = AXIS2_PLACEMENT_3D('',#969,#970,#971);
#969 = CARTESIAN_POINT('',(105.,4.,15.));
#970 = DIRECTION('',(0.,0.,1.));
#971 = DIRECTION('',(1.,0.,0.));
#972 = DEFINITIONAL_REPRESENTATION('',(#973),#977);
#973 = CIRCLE('',#974,2.75);
#974 = AXIS2_PLACEMENT_2D('',#975,#976);
#975 = CARTESIAN_POINT('',(0.,0.));
#976 = DIRECTION('',(1.,0.));
<<<<<<< Updated upstream
#977 = ( GEOMETRIC_REPRESENTATION_CONTEXT(2)
=======
#977 = ( GEOMETRIC_REPRESENTATION_CONTEXT(2)
>>>>>>> Stashed changes
PARAMETRIC_REPRESENTATION_CONTEXT() REPRESENTATION_CONTEXT('2D SPACE',''
  ) );
#978 = ORIENTED_EDGE('',*,*,#929,.T.);
#979 = ADVANCED_FACE('',(#980),#917,.T.);
#980 = FACE_BOUND('',#981,.T.);
#981 = EDGE_LOOP('',(#982));
#982 = ORIENTED_EDGE('',*,*,#895,.T.);
#983 = ADVANCED_FACE('',(#984),#967,.F.);
#984 = FACE_BOUND('',#985,.T.);
#985 = EDGE_LOOP('',(#986));
#986 = ORIENTED_EDGE('',*,*,#952,.F.);
<<<<<<< Updated upstream
#987 = ( GEOMETRIC_REPRESENTATION_CONTEXT(3)
=======
#987 = ( GEOMETRIC_REPRESENTATION_CONTEXT(3)
>>>>>>> Stashed changes
GLOBAL_UNCERTAINTY_ASSIGNED_CONTEXT((#991)) GLOBAL_UNIT_ASSIGNED_CONTEXT
((#988,#989,#990)) REPRESENTATION_CONTEXT('Context #1',
  '3D Context with UNIT and UNCERTAINTY') );
#988 = ( LENGTH_UNIT() NAMED_UNIT(*) SI_UNIT(.MILLI.,.METRE.) );
#989 = ( NAMED_UNIT(*) PLANE_ANGLE_UNIT() SI_UNIT($,.RADIAN.) );
#990 = ( NAMED_UNIT(*) SI_UNIT($,.STERADIAN.) SOLID_ANGLE_UNIT() );
#991 = UNCERTAINTY_MEASURE_WITH_UNIT(LENGTH_MEASURE(1.E-07),#988,
  'distance_accuracy_value','confusion accuracy');
#992 = PRODUCT_RELATED_PRODUCT_CATEGORY('part',$,(#7));
ENDSEC;
END-ISO-10303-21;
